G04 Layer_Color=128*
%FSLAX25Y25*%
%MOIN*%
G70*
G01*
G75*
D33*
X384500Y153500D02*
Y191500D01*
X331000Y153500D02*
X384500D01*
X130000Y481000D02*
X384500D01*
Y406000D02*
Y481000D01*
X130000Y153500D02*
X331000D01*
X130000D02*
Y481000D01*
X384500Y191500D02*
Y406000D01*
D93*
X231842Y173699D02*
X234204D01*
X233023Y172518D02*
Y174880D01*
X247196Y173699D02*
X249558D01*
X248377Y172518D02*
Y174880D01*
X250322Y165234D02*
X253322D01*
X251822Y163734D02*
Y166734D01*
X228078Y165234D02*
X231078D01*
X229578Y163734D02*
Y166734D01*
X353908Y271150D02*
X357845D01*
X355876Y269181D02*
Y273118D01*
X353898Y302640D02*
X357835D01*
X355867Y300672D02*
Y304608D01*
X215100Y445000D02*
X217900D01*
X216500Y443600D02*
Y446400D01*
X215100Y425000D02*
X217900D01*
X216500Y423600D02*
Y426400D01*
X157327Y255500D02*
X160673D01*
X159000Y253827D02*
Y257173D01*
X157327Y245500D02*
X160673D01*
X159000Y243827D02*
Y247173D01*
X157327Y235500D02*
X160673D01*
X159000Y233827D02*
Y237173D01*
X157327Y225500D02*
X160673D01*
X159000Y223827D02*
Y227173D01*
X144327Y255500D02*
X147673D01*
X146000Y253827D02*
Y257173D01*
X144327Y245500D02*
X147673D01*
X146000Y243827D02*
Y247173D01*
X144327Y235500D02*
X147673D01*
X146000Y233827D02*
Y237173D01*
X144327Y225500D02*
X147673D01*
X146000Y223827D02*
Y227173D01*
X169827Y255500D02*
X173173D01*
X171500Y253827D02*
Y257173D01*
X169827Y245500D02*
X173173D01*
X171500Y243827D02*
Y247173D01*
X169827Y235500D02*
X173173D01*
X171500Y233827D02*
Y237173D01*
X169827Y225500D02*
X173173D01*
X171500Y223827D02*
Y227173D01*
X286327Y225833D02*
X289673D01*
X288000Y224160D02*
Y227507D01*
X276327Y225833D02*
X279673D01*
X278000Y224160D02*
Y227507D01*
X226401Y257795D02*
X231401D01*
X228901Y255295D02*
Y260295D01*
X226401Y232205D02*
X231401D01*
X228901Y229705D02*
Y234705D01*
X208685Y232205D02*
X213685D01*
X211185Y229705D02*
Y234705D01*
X208685Y257795D02*
X213685D01*
X211185Y255295D02*
Y260295D01*
X286327Y212500D02*
X289673D01*
X288000Y210827D02*
Y214173D01*
X276327Y212500D02*
X279673D01*
X278000Y210827D02*
Y214173D01*
X286327Y199167D02*
X289673D01*
X288000Y197493D02*
Y200840D01*
X276327Y199167D02*
X279673D01*
X278000Y197493D02*
Y200840D01*
X286327Y185833D02*
X289673D01*
X288000Y184160D02*
Y187507D01*
X276327Y185833D02*
X279673D01*
X278000Y184160D02*
Y187507D01*
X144327Y321500D02*
X147673D01*
X146000Y319827D02*
Y323173D01*
X144327Y311500D02*
X147673D01*
X146000Y309827D02*
Y313173D01*
X144327Y301500D02*
X147673D01*
X146000Y299827D02*
Y303173D01*
X144327Y291500D02*
X147673D01*
X146000Y289827D02*
Y293173D01*
X144327Y281500D02*
X147673D01*
X146000Y279827D02*
Y283173D01*
X156827Y321500D02*
X160173D01*
X158500Y319827D02*
Y323173D01*
X156827Y311500D02*
X160173D01*
X158500Y309827D02*
Y313173D01*
X156827Y301500D02*
X160173D01*
X158500Y299827D02*
Y303173D01*
X156827Y291500D02*
X160173D01*
X158500Y289827D02*
Y293173D01*
X156827Y281500D02*
X160173D01*
X158500Y279827D02*
Y283173D01*
X364827Y433000D02*
X368173D01*
X366500Y431327D02*
Y434673D01*
X364827Y423000D02*
X368173D01*
X366500Y421327D02*
Y424673D01*
X364827Y413000D02*
X368173D01*
X366500Y411327D02*
Y414673D01*
X364827Y403000D02*
X368173D01*
X366500Y401327D02*
Y404673D01*
X364827Y393000D02*
X368173D01*
X366500Y391327D02*
Y394673D01*
X364827Y383000D02*
X368173D01*
X366500Y381327D02*
Y384673D01*
X364827Y373000D02*
X368173D01*
X366500Y371327D02*
Y374673D01*
X364827Y363000D02*
X368173D01*
X366500Y361327D02*
Y364673D01*
X159327Y430500D02*
X162673D01*
X161000Y428827D02*
Y432173D01*
X159327Y420500D02*
X162673D01*
X161000Y418827D02*
Y422173D01*
X159327Y410500D02*
X162673D01*
X161000Y408827D02*
Y412173D01*
X159327Y400500D02*
X162673D01*
X161000Y398827D02*
Y402173D01*
X159327Y390500D02*
X162673D01*
X161000Y388827D02*
Y392173D01*
X159327Y380500D02*
X162673D01*
X161000Y378827D02*
Y382173D01*
X159327Y370500D02*
X162673D01*
X161000Y368827D02*
Y372173D01*
X159327Y360500D02*
X162673D01*
X161000Y358827D02*
Y362173D01*
X243827Y469000D02*
X247173D01*
X245500Y467327D02*
Y470673D01*
X253827Y469000D02*
X257173D01*
X255500Y467327D02*
Y470673D01*
X263827Y469000D02*
X267173D01*
X265500Y467327D02*
Y470673D01*
X273827Y469000D02*
X277173D01*
X275500Y467327D02*
Y470673D01*
X283827Y469000D02*
X287173D01*
X285500Y467327D02*
Y470673D01*
X293827Y469000D02*
X297173D01*
X295500Y467327D02*
Y470673D01*
X303827Y469000D02*
X307173D01*
X305500Y467327D02*
Y470673D01*
X313827Y469000D02*
X317173D01*
X315500Y467327D02*
Y470673D01*
X203600Y372500D02*
X206400D01*
X205000Y371100D02*
Y373900D01*
X194600Y372500D02*
X197400D01*
X196000Y371100D02*
Y373900D01*
X327700Y411000D02*
X329300D01*
X328500Y410200D02*
Y411800D01*
X324700Y297500D02*
X326300D01*
X325500Y296700D02*
Y298300D01*
X350200Y403000D02*
X351800D01*
X351000Y402200D02*
Y403800D01*
X324324Y290876D02*
X325924D01*
X325124Y290076D02*
Y291676D01*
X197200Y321500D02*
X198800D01*
X198000Y320700D02*
Y322300D01*
X247700Y357000D02*
X249300D01*
X248500Y356200D02*
Y357800D01*
X332700Y165000D02*
X334300D01*
X333500Y164200D02*
Y165800D01*
X308700Y208000D02*
X310300D01*
X309500Y207200D02*
Y208800D01*
X247450Y190750D02*
X249050D01*
X248250Y189950D02*
Y191550D01*
X240700Y315500D02*
X242300D01*
X241500Y314700D02*
Y316300D01*
X145200Y181000D02*
X146800D01*
X146000Y180200D02*
Y181800D01*
X168200Y193000D02*
X169800D01*
X169000Y192200D02*
Y193800D01*
X206700Y170500D02*
X208300D01*
X207500Y169700D02*
Y171300D01*
X235200Y199500D02*
X236800D01*
X236000Y198700D02*
Y200300D01*
X245018Y182318D02*
X246618D01*
X245818Y181518D02*
Y183118D01*
X194200Y262500D02*
X195800D01*
X195000Y261700D02*
Y263300D01*
X322200Y273000D02*
X323800D01*
X323000Y272200D02*
Y273800D01*
X297700Y339000D02*
X299300D01*
X298500Y338200D02*
Y339800D01*
X294700Y268000D02*
X296300D01*
X295500Y267200D02*
Y268800D01*
X271700Y266500D02*
X273300D01*
X272500Y265700D02*
Y267300D01*
X239700Y356500D02*
X241300D01*
X240500Y355700D02*
Y357300D01*
X225200Y403500D02*
X226800D01*
X226000Y402700D02*
Y404300D01*
X298200Y436000D02*
X299800D01*
X299000Y435200D02*
Y436800D01*
X293200Y442000D02*
X294800D01*
X294000Y441200D02*
Y442800D01*
X283700Y445000D02*
X285300D01*
X284500Y444200D02*
Y445800D01*
X275200Y438500D02*
X276800D01*
X276000Y437700D02*
Y439300D01*
X236200Y430500D02*
X237800D01*
X237000Y429700D02*
Y431300D01*
X234200Y211000D02*
X235800D01*
X235000Y210200D02*
Y211800D01*
X222700Y210500D02*
X224300D01*
X223500Y209700D02*
Y211300D01*
X228700Y204000D02*
X230300D01*
X229500Y203200D02*
Y204800D01*
X184200Y321500D02*
X185800D01*
X185000Y320700D02*
Y322300D01*
X187700Y286500D02*
X189300D01*
X188500Y285700D02*
Y287300D01*
X306700Y427500D02*
X308300D01*
X307500Y426700D02*
Y428300D01*
X300200Y431500D02*
X301800D01*
X301000Y430700D02*
Y432300D01*
X259700Y261500D02*
X261300D01*
X260500Y260700D02*
Y262300D01*
X271700Y317000D02*
X273300D01*
X272500Y316200D02*
Y317800D01*
X286700Y321000D02*
X288300D01*
X287500Y320200D02*
Y321800D01*
X264700Y436500D02*
X266300D01*
X265500Y435700D02*
Y437300D01*
X263200Y432000D02*
X264800D01*
X264000Y431200D02*
Y432800D01*
X208700Y431500D02*
X210300D01*
X209500Y430700D02*
Y432300D01*
X247200Y406000D02*
X248800D01*
X248000Y405200D02*
Y406800D01*
X252200Y408000D02*
X253800D01*
X253000Y407200D02*
Y408800D01*
X221200Y389000D02*
X222800D01*
X222000Y388200D02*
Y389800D01*
X242200Y403500D02*
X243800D01*
X243000Y402700D02*
Y404300D01*
X234700Y391500D02*
X236300D01*
X235500Y390700D02*
Y392300D01*
X232200Y387000D02*
X233800D01*
X233000Y386200D02*
Y387800D01*
X237700Y383000D02*
X239300D01*
X238500Y382200D02*
Y383800D01*
X215700Y358000D02*
X217300D01*
X216500Y357200D02*
Y358800D01*
X181200Y390500D02*
X182800D01*
X182000Y389700D02*
Y391300D01*
X352700Y197250D02*
X354300D01*
X353500Y196450D02*
Y198050D01*
X318700Y238000D02*
X320300D01*
X319500Y237200D02*
Y238800D01*
X238700Y366000D02*
X240300D01*
X239500Y365200D02*
Y366800D01*
X318200Y362000D02*
X319800D01*
X319000Y361200D02*
Y362800D01*
X228700Y315500D02*
X230300D01*
X229500Y314700D02*
Y316300D01*
X291700Y385000D02*
X293300D01*
X292500Y384200D02*
Y385800D01*
X281200Y390500D02*
X282800D01*
X282000Y389700D02*
Y391300D01*
X273200Y391500D02*
X274800D01*
X274000Y390700D02*
Y392300D01*
X286200Y340500D02*
X287800D01*
X287000Y339700D02*
Y341300D01*
X284700Y346500D02*
X286300D01*
X285500Y345700D02*
Y347300D01*
X249200Y345000D02*
X250800D01*
X250000Y344200D02*
Y345800D01*
X249200Y286500D02*
X250800D01*
X250000Y285700D02*
Y287300D01*
X285200Y335000D02*
X286800D01*
X286000Y334200D02*
Y335800D01*
X256200Y346500D02*
X257800D01*
X257000Y345700D02*
Y347300D01*
X281200Y328000D02*
X282800D01*
X282000Y327200D02*
Y328800D01*
M02*
