G04 Layer_Color=16711935*
%FSLAX25Y25*%
%MOIN*%
G70*
G01*
G75*
D33*
X384500Y153500D02*
Y191500D01*
X331000Y153500D02*
X384500D01*
X130000Y481000D02*
X384500D01*
Y406000D02*
Y481000D01*
X130000Y153500D02*
X331000D01*
X130000D02*
Y481000D01*
X384500Y191500D02*
Y406000D01*
D78*
X233023Y173699D02*
D03*
X248377D02*
D03*
D79*
X251822Y165234D02*
D03*
X229578D02*
D03*
D80*
X355876Y271150D02*
D03*
X355867Y302640D02*
D03*
D81*
X216500Y445000D02*
D03*
Y425000D02*
D03*
X205000Y372500D02*
D03*
X196000D02*
D03*
D82*
X159000Y255500D02*
D03*
Y245500D02*
D03*
Y235500D02*
D03*
X146000Y255500D02*
D03*
Y245500D02*
D03*
Y235500D02*
D03*
X171500Y255500D02*
D03*
Y245500D02*
D03*
Y235500D02*
D03*
X288000Y225833D02*
D03*
Y212500D02*
D03*
Y199167D02*
D03*
Y185833D02*
D03*
X146000Y321500D02*
D03*
Y311500D02*
D03*
Y301500D02*
D03*
Y291500D02*
D03*
X158500Y321500D02*
D03*
Y311500D02*
D03*
Y301500D02*
D03*
Y291500D02*
D03*
D83*
X159000Y225500D02*
D03*
X146000D02*
D03*
X171500D02*
D03*
X146000Y281500D02*
D03*
X158500D02*
D03*
D84*
X278000Y225833D02*
D03*
Y212500D02*
D03*
Y199167D02*
D03*
Y185833D02*
D03*
D85*
X228901Y257795D02*
D03*
Y232205D02*
D03*
X211185D02*
D03*
Y257795D02*
D03*
D86*
X366500Y433000D02*
D03*
X161000Y430500D02*
D03*
D87*
X366500Y423000D02*
D03*
Y413000D02*
D03*
Y403000D02*
D03*
Y393000D02*
D03*
Y383000D02*
D03*
Y373000D02*
D03*
Y363000D02*
D03*
X161000Y420500D02*
D03*
Y410500D02*
D03*
Y400500D02*
D03*
Y390500D02*
D03*
Y380500D02*
D03*
Y370500D02*
D03*
Y360500D02*
D03*
D88*
X245500Y469000D02*
D03*
D89*
X255500D02*
D03*
X265500D02*
D03*
X275500D02*
D03*
X285500D02*
D03*
X295500D02*
D03*
X305500D02*
D03*
X315500D02*
D03*
D90*
X328500Y411000D02*
D03*
X325500Y297500D02*
D03*
X351000Y403000D02*
D03*
X325124Y290876D02*
D03*
X198000Y321500D02*
D03*
X248500Y357000D02*
D03*
X333500Y165000D02*
D03*
X309500Y208000D02*
D03*
X248250Y190750D02*
D03*
X241500Y315500D02*
D03*
X146000Y181000D02*
D03*
X169000Y193000D02*
D03*
X207500Y170500D02*
D03*
X236000Y199500D02*
D03*
X245818Y182318D02*
D03*
X195000Y262500D02*
D03*
X323000Y273000D02*
D03*
X298500Y339000D02*
D03*
X295500Y268000D02*
D03*
X272500Y266500D02*
D03*
X240500Y356500D02*
D03*
X226000Y403500D02*
D03*
X299000Y436000D02*
D03*
X294000Y442000D02*
D03*
X284500Y445000D02*
D03*
X276000Y438500D02*
D03*
X237000Y430500D02*
D03*
X235000Y211000D02*
D03*
X223500Y210500D02*
D03*
X229500Y204000D02*
D03*
X185000Y321500D02*
D03*
X188500Y286500D02*
D03*
X307500Y427500D02*
D03*
X301000Y431500D02*
D03*
X260500Y261500D02*
D03*
X272500Y317000D02*
D03*
X287500Y321000D02*
D03*
X265500Y436500D02*
D03*
X264000Y432000D02*
D03*
X209500Y431500D02*
D03*
X248000Y406000D02*
D03*
X253000Y408000D02*
D03*
X222000Y389000D02*
D03*
X243000Y403500D02*
D03*
X235500Y391500D02*
D03*
X233000Y387000D02*
D03*
X238500Y383000D02*
D03*
X216500Y358000D02*
D03*
X182000Y390500D02*
D03*
X353500Y197250D02*
D03*
X319500Y238000D02*
D03*
X239500Y366000D02*
D03*
X319000Y362000D02*
D03*
X229500Y315500D02*
D03*
X292500Y385000D02*
D03*
X282000Y390500D02*
D03*
X274000Y391500D02*
D03*
X287000Y340500D02*
D03*
X285500Y346500D02*
D03*
X250000Y345000D02*
D03*
Y286500D02*
D03*
X286000Y335000D02*
D03*
X257000Y346500D02*
D03*
X282000Y328000D02*
D03*
D91*
X244500Y327500D02*
D03*
X240500Y335000D02*
D03*
M02*
