G04 Layer_Color=255*
%FSLAX25Y25*%
%MOIN*%
G70*
G01*
G75*
D33*
X384500Y153500D02*
Y191500D01*
X331000Y153500D02*
X384500D01*
X130000Y481000D02*
X384500D01*
Y406000D02*
Y481000D01*
X130000Y153500D02*
X331000D01*
X130000D02*
Y481000D01*
X384500Y191500D02*
Y406000D01*
D34*
X233023Y173699D02*
D03*
X248377D02*
D03*
D35*
X251822Y165234D02*
D03*
X229578D02*
D03*
D36*
X355876Y271150D02*
D03*
X355867Y302640D02*
D03*
D37*
X216500Y445000D02*
D03*
Y425000D02*
D03*
X205000Y372500D02*
D03*
X196000D02*
D03*
D38*
X159000Y255500D02*
D03*
Y245500D02*
D03*
Y235500D02*
D03*
X146000Y255500D02*
D03*
Y245500D02*
D03*
Y235500D02*
D03*
X171500Y255500D02*
D03*
Y245500D02*
D03*
Y235500D02*
D03*
X288000Y225833D02*
D03*
Y212500D02*
D03*
Y199167D02*
D03*
Y185833D02*
D03*
X146000Y321500D02*
D03*
Y311500D02*
D03*
Y301500D02*
D03*
Y291500D02*
D03*
X158500Y321500D02*
D03*
Y311500D02*
D03*
Y301500D02*
D03*
Y291500D02*
D03*
D39*
X159000Y225500D02*
D03*
X146000D02*
D03*
X171500D02*
D03*
X146000Y281500D02*
D03*
X158500D02*
D03*
D40*
X278000Y225833D02*
D03*
Y212500D02*
D03*
Y199167D02*
D03*
Y185833D02*
D03*
D41*
X228901Y257795D02*
D03*
Y232205D02*
D03*
X211185D02*
D03*
Y257795D02*
D03*
D42*
X366500Y433000D02*
D03*
X161000Y430500D02*
D03*
D43*
X366500Y423000D02*
D03*
Y413000D02*
D03*
Y403000D02*
D03*
Y393000D02*
D03*
Y383000D02*
D03*
Y373000D02*
D03*
Y363000D02*
D03*
X161000Y420500D02*
D03*
Y410500D02*
D03*
Y400500D02*
D03*
Y390500D02*
D03*
Y380500D02*
D03*
Y370500D02*
D03*
Y360500D02*
D03*
D44*
X245500Y469000D02*
D03*
D45*
X255500D02*
D03*
X265500D02*
D03*
X275500D02*
D03*
X285500D02*
D03*
X295500D02*
D03*
X305500D02*
D03*
X315500D02*
D03*
D47*
X244500Y327500D02*
D03*
X240500Y335000D02*
D03*
M02*
