G04 Layer_Color=2752767*
%FSLAX25Y25*%
%MOIN*%
G70*
G01*
G75*
D33*
X384500Y153500D02*
Y191500D01*
X331000Y153500D02*
X384500D01*
X130000Y481000D02*
X384500D01*
Y406000D02*
Y481000D01*
X130000Y153500D02*
X331000D01*
X130000D02*
Y481000D01*
X384500Y191500D02*
Y406000D01*
D93*
X232223Y172899D02*
Y174499D01*
X233823D01*
Y172899D01*
X232223D01*
X247577D02*
Y174499D01*
X249177D01*
Y172899D01*
X247577D01*
X355876Y270350D02*
X355077Y271950D01*
X356677D01*
X355876Y270350D01*
X355867Y301840D02*
X355066Y303440D01*
X356666D01*
X355867Y301840D01*
X216500Y444200D02*
X216900Y444600D01*
X217300D01*
X216900Y445000D01*
X217300Y445400D01*
X216900D01*
X216500Y445800D01*
X216100Y445400D01*
X215700D01*
X216100Y445000D01*
X215700Y444600D01*
X216100D01*
X216500Y444200D01*
Y424200D02*
X216900Y424600D01*
X217300D01*
X216900Y425000D01*
X217300Y425400D01*
X216900D01*
X216500Y425800D01*
X216100Y425400D01*
X215700D01*
X216100Y425000D01*
X215700Y424600D01*
X216100D01*
X216500Y424200D01*
X158200Y254700D02*
X158600Y255500D01*
X158200Y256300D01*
X159000Y255900D01*
X159800Y256300D01*
X159400Y255500D01*
X159800Y254700D01*
X159000Y255100D01*
X158200Y254700D01*
Y244700D02*
X158600Y245500D01*
X158200Y246300D01*
X159000Y245900D01*
X159800Y246300D01*
X159400Y245500D01*
X159800Y244700D01*
X159000Y245100D01*
X158200Y244700D01*
Y234700D02*
X158600Y235500D01*
X158200Y236300D01*
X159000Y235900D01*
X159800Y236300D01*
X159400Y235500D01*
X159800Y234700D01*
X159000Y235100D01*
X158200Y234700D01*
Y224700D02*
X158600Y225500D01*
X158200Y226300D01*
X159000Y225900D01*
X159800Y226300D01*
X159400Y225500D01*
X159800Y224700D01*
X159000Y225100D01*
X158200Y224700D01*
X145200Y254700D02*
X145600Y255500D01*
X145200Y256300D01*
X146000Y255900D01*
X146800Y256300D01*
X146400Y255500D01*
X146800Y254700D01*
X146000Y255100D01*
X145200Y254700D01*
Y244700D02*
X145600Y245500D01*
X145200Y246300D01*
X146000Y245900D01*
X146800Y246300D01*
X146400Y245500D01*
X146800Y244700D01*
X146000Y245100D01*
X145200Y244700D01*
Y234700D02*
X145600Y235500D01*
X145200Y236300D01*
X146000Y235900D01*
X146800Y236300D01*
X146400Y235500D01*
X146800Y234700D01*
X146000Y235100D01*
X145200Y234700D01*
Y224700D02*
X145600Y225500D01*
X145200Y226300D01*
X146000Y225900D01*
X146800Y226300D01*
X146400Y225500D01*
X146800Y224700D01*
X146000Y225100D01*
X145200Y224700D01*
X170700Y254700D02*
X171100Y255500D01*
X170700Y256300D01*
X171500Y255900D01*
X172300Y256300D01*
X171900Y255500D01*
X172300Y254700D01*
X171500Y255100D01*
X170700Y254700D01*
Y244700D02*
X171100Y245500D01*
X170700Y246300D01*
X171500Y245900D01*
X172300Y246300D01*
X171900Y245500D01*
X172300Y244700D01*
X171500Y245100D01*
X170700Y244700D01*
Y234700D02*
X171100Y235500D01*
X170700Y236300D01*
X171500Y235900D01*
X172300Y236300D01*
X171900Y235500D01*
X172300Y234700D01*
X171500Y235100D01*
X170700Y234700D01*
Y224700D02*
X171100Y225500D01*
X170700Y226300D01*
X171500Y225900D01*
X172300Y226300D01*
X171900Y225500D01*
X172300Y224700D01*
X171500Y225100D01*
X170700Y224700D01*
X287200Y225033D02*
X287600Y225833D01*
X287200Y226633D01*
X288000Y226233D01*
X288800Y226633D01*
X288400Y225833D01*
X288800Y225033D01*
X288000Y225433D01*
X287200Y225033D01*
X277200D02*
X277600Y225833D01*
X277200Y226633D01*
X278000Y226233D01*
X278800Y226633D01*
X278400Y225833D01*
X278800Y225033D01*
X278000Y225433D01*
X277200Y225033D01*
X228501Y257395D02*
Y256995D01*
X229301D01*
Y257395D01*
X229701D01*
Y258195D01*
X229301D01*
Y258595D01*
X228501D01*
Y258195D01*
X228101D01*
Y257395D01*
X228501D01*
Y231805D02*
Y231405D01*
X229301D01*
Y231805D01*
X229701D01*
Y232605D01*
X229301D01*
Y233005D01*
X228501D01*
Y232605D01*
X228101D01*
Y231805D01*
X228501D01*
X210785D02*
Y231405D01*
X211585D01*
Y231805D01*
X211985D01*
Y232605D01*
X211585D01*
Y233005D01*
X210785D01*
Y232605D01*
X210385D01*
Y231805D01*
X210785D01*
Y257395D02*
Y256995D01*
X211585D01*
Y257395D01*
X211985D01*
Y258195D01*
X211585D01*
Y258595D01*
X210785D01*
Y258195D01*
X210385D01*
Y257395D01*
X210785D01*
X287200Y211700D02*
X287600Y212500D01*
X287200Y213300D01*
X288000Y212900D01*
X288800Y213300D01*
X288400Y212500D01*
X288800Y211700D01*
X288000Y212100D01*
X287200Y211700D01*
X277200D02*
X277600Y212500D01*
X277200Y213300D01*
X278000Y212900D01*
X278800Y213300D01*
X278400Y212500D01*
X278800Y211700D01*
X278000Y212100D01*
X277200Y211700D01*
X287200Y198367D02*
X287600Y199167D01*
X287200Y199967D01*
X288000Y199567D01*
X288800Y199967D01*
X288400Y199167D01*
X288800Y198367D01*
X288000Y198767D01*
X287200Y198367D01*
X277200D02*
X277600Y199167D01*
X277200Y199967D01*
X278000Y199567D01*
X278800Y199967D01*
X278400Y199167D01*
X278800Y198367D01*
X278000Y198767D01*
X277200Y198367D01*
X287200Y185033D02*
X287600Y185833D01*
X287200Y186633D01*
X288000Y186233D01*
X288800Y186633D01*
X288400Y185833D01*
X288800Y185033D01*
X288000Y185433D01*
X287200Y185033D01*
X277200D02*
X277600Y185833D01*
X277200Y186633D01*
X278000Y186233D01*
X278800Y186633D01*
X278400Y185833D01*
X278800Y185033D01*
X278000Y185433D01*
X277200Y185033D01*
X145200Y320700D02*
X145600Y321500D01*
X145200Y322300D01*
X146000Y321900D01*
X146800Y322300D01*
X146400Y321500D01*
X146800Y320700D01*
X146000Y321100D01*
X145200Y320700D01*
Y310700D02*
X145600Y311500D01*
X145200Y312300D01*
X146000Y311900D01*
X146800Y312300D01*
X146400Y311500D01*
X146800Y310700D01*
X146000Y311100D01*
X145200Y310700D01*
Y300700D02*
X145600Y301500D01*
X145200Y302300D01*
X146000Y301900D01*
X146800Y302300D01*
X146400Y301500D01*
X146800Y300700D01*
X146000Y301100D01*
X145200Y300700D01*
Y290700D02*
X145600Y291500D01*
X145200Y292300D01*
X146000Y291900D01*
X146800Y292300D01*
X146400Y291500D01*
X146800Y290700D01*
X146000Y291100D01*
X145200Y290700D01*
Y280700D02*
X145600Y281500D01*
X145200Y282300D01*
X146000Y281900D01*
X146800Y282300D01*
X146400Y281500D01*
X146800Y280700D01*
X146000Y281100D01*
X145200Y280700D01*
X157700Y320700D02*
X158100Y321500D01*
X157700Y322300D01*
X158500Y321900D01*
X159300Y322300D01*
X158900Y321500D01*
X159300Y320700D01*
X158500Y321100D01*
X157700Y320700D01*
Y310700D02*
X158100Y311500D01*
X157700Y312300D01*
X158500Y311900D01*
X159300Y312300D01*
X158900Y311500D01*
X159300Y310700D01*
X158500Y311100D01*
X157700Y310700D01*
Y300700D02*
X158100Y301500D01*
X157700Y302300D01*
X158500Y301900D01*
X159300Y302300D01*
X158900Y301500D01*
X159300Y300700D01*
X158500Y301100D01*
X157700Y300700D01*
Y290700D02*
X158100Y291500D01*
X157700Y292300D01*
X158500Y291900D01*
X159300Y292300D01*
X158900Y291500D01*
X159300Y290700D01*
X158500Y291100D01*
X157700Y290700D01*
Y280700D02*
X158100Y281500D01*
X157700Y282300D01*
X158500Y281900D01*
X159300Y282300D01*
X158900Y281500D01*
X159300Y280700D01*
X158500Y281100D01*
X157700Y280700D01*
X365700Y432200D02*
X366100Y433000D01*
X365700Y433800D01*
X366500Y433400D01*
X367300Y433800D01*
X366900Y433000D01*
X367300Y432200D01*
X366500Y432600D01*
X365700Y432200D01*
Y422200D02*
X366100Y423000D01*
X365700Y423800D01*
X366500Y423400D01*
X367300Y423800D01*
X366900Y423000D01*
X367300Y422200D01*
X366500Y422600D01*
X365700Y422200D01*
Y412200D02*
X366100Y413000D01*
X365700Y413800D01*
X366500Y413400D01*
X367300Y413800D01*
X366900Y413000D01*
X367300Y412200D01*
X366500Y412600D01*
X365700Y412200D01*
Y402200D02*
X366100Y403000D01*
X365700Y403800D01*
X366500Y403400D01*
X367300Y403800D01*
X366900Y403000D01*
X367300Y402200D01*
X366500Y402600D01*
X365700Y402200D01*
Y392200D02*
X366100Y393000D01*
X365700Y393800D01*
X366500Y393400D01*
X367300Y393800D01*
X366900Y393000D01*
X367300Y392200D01*
X366500Y392600D01*
X365700Y392200D01*
Y382200D02*
X366100Y383000D01*
X365700Y383800D01*
X366500Y383400D01*
X367300Y383800D01*
X366900Y383000D01*
X367300Y382200D01*
X366500Y382600D01*
X365700Y382200D01*
Y372200D02*
X366100Y373000D01*
X365700Y373800D01*
X366500Y373400D01*
X367300Y373800D01*
X366900Y373000D01*
X367300Y372200D01*
X366500Y372600D01*
X365700Y372200D01*
Y362200D02*
X366100Y363000D01*
X365700Y363800D01*
X366500Y363400D01*
X367300Y363800D01*
X366900Y363000D01*
X367300Y362200D01*
X366500Y362600D01*
X365700Y362200D01*
X160200Y429700D02*
X160600Y430500D01*
X160200Y431300D01*
X161000Y430900D01*
X161800Y431300D01*
X161400Y430500D01*
X161800Y429700D01*
X161000Y430100D01*
X160200Y429700D01*
Y419700D02*
X160600Y420500D01*
X160200Y421300D01*
X161000Y420900D01*
X161800Y421300D01*
X161400Y420500D01*
X161800Y419700D01*
X161000Y420100D01*
X160200Y419700D01*
Y409700D02*
X160600Y410500D01*
X160200Y411300D01*
X161000Y410900D01*
X161800Y411300D01*
X161400Y410500D01*
X161800Y409700D01*
X161000Y410100D01*
X160200Y409700D01*
Y399700D02*
X160600Y400500D01*
X160200Y401300D01*
X161000Y400900D01*
X161800Y401300D01*
X161400Y400500D01*
X161800Y399700D01*
X161000Y400100D01*
X160200Y399700D01*
Y389700D02*
X160600Y390500D01*
X160200Y391300D01*
X161000Y390900D01*
X161800Y391300D01*
X161400Y390500D01*
X161800Y389700D01*
X161000Y390100D01*
X160200Y389700D01*
Y379700D02*
X160600Y380500D01*
X160200Y381300D01*
X161000Y380900D01*
X161800Y381300D01*
X161400Y380500D01*
X161800Y379700D01*
X161000Y380100D01*
X160200Y379700D01*
Y369700D02*
X160600Y370500D01*
X160200Y371300D01*
X161000Y370900D01*
X161800Y371300D01*
X161400Y370500D01*
X161800Y369700D01*
X161000Y370100D01*
X160200Y369700D01*
Y359700D02*
X160600Y360500D01*
X160200Y361300D01*
X161000Y360900D01*
X161800Y361300D01*
X161400Y360500D01*
X161800Y359700D01*
X161000Y360100D01*
X160200Y359700D01*
X244700Y468200D02*
X245100Y469000D01*
X244700Y469800D01*
X245500Y469400D01*
X246300Y469800D01*
X245900Y469000D01*
X246300Y468200D01*
X245500Y468600D01*
X244700Y468200D01*
X254700D02*
X255100Y469000D01*
X254700Y469800D01*
X255500Y469400D01*
X256300Y469800D01*
X255900Y469000D01*
X256300Y468200D01*
X255500Y468600D01*
X254700Y468200D01*
X264700D02*
X265100Y469000D01*
X264700Y469800D01*
X265500Y469400D01*
X266300Y469800D01*
X265900Y469000D01*
X266300Y468200D01*
X265500Y468600D01*
X264700Y468200D01*
X274700D02*
X275100Y469000D01*
X274700Y469800D01*
X275500Y469400D01*
X276300Y469800D01*
X275900Y469000D01*
X276300Y468200D01*
X275500Y468600D01*
X274700Y468200D01*
X284700D02*
X285100Y469000D01*
X284700Y469800D01*
X285500Y469400D01*
X286300Y469800D01*
X285900Y469000D01*
X286300Y468200D01*
X285500Y468600D01*
X284700Y468200D01*
X294700D02*
X295100Y469000D01*
X294700Y469800D01*
X295500Y469400D01*
X296300Y469800D01*
X295900Y469000D01*
X296300Y468200D01*
X295500Y468600D01*
X294700Y468200D01*
X304700D02*
X305100Y469000D01*
X304700Y469800D01*
X305500Y469400D01*
X306300Y469800D01*
X305900Y469000D01*
X306300Y468200D01*
X305500Y468600D01*
X304700Y468200D01*
X314700D02*
X315100Y469000D01*
X314700Y469800D01*
X315500Y469400D01*
X316300Y469800D01*
X315900Y469000D01*
X316300Y468200D01*
X315500Y468600D01*
X314700Y468200D01*
X205000Y371700D02*
X205400Y372100D01*
X205800D01*
X205400Y372500D01*
X205800Y372900D01*
X205400D01*
X205000Y373300D01*
X204600Y372900D01*
X204200D01*
X204600Y372500D01*
X204200Y372100D01*
X204600D01*
X205000Y371700D01*
X196000D02*
X196400Y372100D01*
X196800D01*
X196400Y372500D01*
X196800Y372900D01*
X196400D01*
X196000Y373300D01*
X195600Y372900D01*
X195200D01*
X195600Y372500D01*
X195200Y372100D01*
X195600D01*
X196000Y371700D01*
X327700Y410200D02*
X328100D01*
X328500Y410600D01*
X328900Y410200D01*
X329300D01*
Y410600D01*
X328900Y411000D01*
X329300Y411400D01*
Y411800D01*
X328900D01*
X328500Y411400D01*
X328100Y411800D01*
X327700D01*
Y411400D01*
X328100Y411000D01*
X327700Y410600D01*
Y410200D01*
X324700Y296700D02*
X325100D01*
X325500Y297100D01*
X325900Y296700D01*
X326300D01*
Y297100D01*
X325900Y297500D01*
X326300Y297900D01*
Y298300D01*
X325900D01*
X325500Y297900D01*
X325100Y298300D01*
X324700D01*
Y297900D01*
X325100Y297500D01*
X324700Y297100D01*
Y296700D01*
X350200Y402200D02*
X350600D01*
X351000Y402600D01*
X351400Y402200D01*
X351800D01*
Y402600D01*
X351400Y403000D01*
X351800Y403400D01*
Y403800D01*
X351400D01*
X351000Y403400D01*
X350600Y403800D01*
X350200D01*
Y403400D01*
X350600Y403000D01*
X350200Y402600D01*
Y402200D01*
X324324Y290076D02*
X324724D01*
X325124Y290476D01*
X325524Y290076D01*
X325924D01*
Y290476D01*
X325524Y290876D01*
X325924Y291276D01*
Y291676D01*
X325524D01*
X325124Y291276D01*
X324724Y291676D01*
X324324D01*
Y291276D01*
X324724Y290876D01*
X324324Y290476D01*
Y290076D01*
X197200Y320700D02*
X197600D01*
X198000Y321100D01*
X198400Y320700D01*
X198800D01*
Y321100D01*
X198400Y321500D01*
X198800Y321900D01*
Y322300D01*
X198400D01*
X198000Y321900D01*
X197600Y322300D01*
X197200D01*
Y321900D01*
X197600Y321500D01*
X197200Y321100D01*
Y320700D01*
X247700Y356200D02*
X248100D01*
X248500Y356600D01*
X248900Y356200D01*
X249300D01*
Y356600D01*
X248900Y357000D01*
X249300Y357400D01*
Y357800D01*
X248900D01*
X248500Y357400D01*
X248100Y357800D01*
X247700D01*
Y357400D01*
X248100Y357000D01*
X247700Y356600D01*
Y356200D01*
X332700Y164200D02*
X333100D01*
X333500Y164600D01*
X333900Y164200D01*
X334300D01*
Y164600D01*
X333900Y165000D01*
X334300Y165400D01*
Y165800D01*
X333900D01*
X333500Y165400D01*
X333100Y165800D01*
X332700D01*
Y165400D01*
X333100Y165000D01*
X332700Y164600D01*
Y164200D01*
X308700Y207200D02*
X309100D01*
X309500Y207600D01*
X309900Y207200D01*
X310300D01*
Y207600D01*
X309900Y208000D01*
X310300Y208400D01*
Y208800D01*
X309900D01*
X309500Y208400D01*
X309100Y208800D01*
X308700D01*
Y208400D01*
X309100Y208000D01*
X308700Y207600D01*
Y207200D01*
X247450Y189950D02*
X247850D01*
X248250Y190350D01*
X248650Y189950D01*
X249050D01*
Y190350D01*
X248650Y190750D01*
X249050Y191150D01*
Y191550D01*
X248650D01*
X248250Y191150D01*
X247850Y191550D01*
X247450D01*
Y191150D01*
X247850Y190750D01*
X247450Y190350D01*
Y189950D01*
X240700Y314700D02*
X241100D01*
X241500Y315100D01*
X241900Y314700D01*
X242300D01*
Y315100D01*
X241900Y315500D01*
X242300Y315900D01*
Y316300D01*
X241900D01*
X241500Y315900D01*
X241100Y316300D01*
X240700D01*
Y315900D01*
X241100Y315500D01*
X240700Y315100D01*
Y314700D01*
X145200Y180200D02*
X145600D01*
X146000Y180600D01*
X146400Y180200D01*
X146800D01*
Y180600D01*
X146400Y181000D01*
X146800Y181400D01*
Y181800D01*
X146400D01*
X146000Y181400D01*
X145600Y181800D01*
X145200D01*
Y181400D01*
X145600Y181000D01*
X145200Y180600D01*
Y180200D01*
X168200Y192200D02*
X168600D01*
X169000Y192600D01*
X169400Y192200D01*
X169800D01*
Y192600D01*
X169400Y193000D01*
X169800Y193400D01*
Y193800D01*
X169400D01*
X169000Y193400D01*
X168600Y193800D01*
X168200D01*
Y193400D01*
X168600Y193000D01*
X168200Y192600D01*
Y192200D01*
X206700Y169700D02*
X207100D01*
X207500Y170100D01*
X207900Y169700D01*
X208300D01*
Y170100D01*
X207900Y170500D01*
X208300Y170900D01*
Y171300D01*
X207900D01*
X207500Y170900D01*
X207100Y171300D01*
X206700D01*
Y170900D01*
X207100Y170500D01*
X206700Y170100D01*
Y169700D01*
X235200Y198700D02*
X235600D01*
X236000Y199100D01*
X236400Y198700D01*
X236800D01*
Y199100D01*
X236400Y199500D01*
X236800Y199900D01*
Y200300D01*
X236400D01*
X236000Y199900D01*
X235600Y200300D01*
X235200D01*
Y199900D01*
X235600Y199500D01*
X235200Y199100D01*
Y198700D01*
X245018Y181518D02*
X245418D01*
X245818Y181918D01*
X246218Y181518D01*
X246618D01*
Y181918D01*
X246218Y182318D01*
X246618Y182718D01*
Y183118D01*
X246218D01*
X245818Y182718D01*
X245418Y183118D01*
X245018D01*
Y182718D01*
X245418Y182318D01*
X245018Y181918D01*
Y181518D01*
X194200Y261700D02*
X194600D01*
X195000Y262100D01*
X195400Y261700D01*
X195800D01*
Y262100D01*
X195400Y262500D01*
X195800Y262900D01*
Y263300D01*
X195400D01*
X195000Y262900D01*
X194600Y263300D01*
X194200D01*
Y262900D01*
X194600Y262500D01*
X194200Y262100D01*
Y261700D01*
X322200Y272200D02*
X322600D01*
X323000Y272600D01*
X323400Y272200D01*
X323800D01*
Y272600D01*
X323400Y273000D01*
X323800Y273400D01*
Y273800D01*
X323400D01*
X323000Y273400D01*
X322600Y273800D01*
X322200D01*
Y273400D01*
X322600Y273000D01*
X322200Y272600D01*
Y272200D01*
X297700Y338200D02*
X298100D01*
X298500Y338600D01*
X298900Y338200D01*
X299300D01*
Y338600D01*
X298900Y339000D01*
X299300Y339400D01*
Y339800D01*
X298900D01*
X298500Y339400D01*
X298100Y339800D01*
X297700D01*
Y339400D01*
X298100Y339000D01*
X297700Y338600D01*
Y338200D01*
X294700Y267200D02*
X295100D01*
X295500Y267600D01*
X295900Y267200D01*
X296300D01*
Y267600D01*
X295900Y268000D01*
X296300Y268400D01*
Y268800D01*
X295900D01*
X295500Y268400D01*
X295100Y268800D01*
X294700D01*
Y268400D01*
X295100Y268000D01*
X294700Y267600D01*
Y267200D01*
X271700Y265700D02*
X272100D01*
X272500Y266100D01*
X272900Y265700D01*
X273300D01*
Y266100D01*
X272900Y266500D01*
X273300Y266900D01*
Y267300D01*
X272900D01*
X272500Y266900D01*
X272100Y267300D01*
X271700D01*
Y266900D01*
X272100Y266500D01*
X271700Y266100D01*
Y265700D01*
X239700Y355700D02*
X240100D01*
X240500Y356100D01*
X240900Y355700D01*
X241300D01*
Y356100D01*
X240900Y356500D01*
X241300Y356900D01*
Y357300D01*
X240900D01*
X240500Y356900D01*
X240100Y357300D01*
X239700D01*
Y356900D01*
X240100Y356500D01*
X239700Y356100D01*
Y355700D01*
X225200Y402700D02*
X225600D01*
X226000Y403100D01*
X226400Y402700D01*
X226800D01*
Y403100D01*
X226400Y403500D01*
X226800Y403900D01*
Y404300D01*
X226400D01*
X226000Y403900D01*
X225600Y404300D01*
X225200D01*
Y403900D01*
X225600Y403500D01*
X225200Y403100D01*
Y402700D01*
X298200Y435200D02*
X298600D01*
X299000Y435600D01*
X299400Y435200D01*
X299800D01*
Y435600D01*
X299400Y436000D01*
X299800Y436400D01*
Y436800D01*
X299400D01*
X299000Y436400D01*
X298600Y436800D01*
X298200D01*
Y436400D01*
X298600Y436000D01*
X298200Y435600D01*
Y435200D01*
X293200Y441200D02*
X293600D01*
X294000Y441600D01*
X294400Y441200D01*
X294800D01*
Y441600D01*
X294400Y442000D01*
X294800Y442400D01*
Y442800D01*
X294400D01*
X294000Y442400D01*
X293600Y442800D01*
X293200D01*
Y442400D01*
X293600Y442000D01*
X293200Y441600D01*
Y441200D01*
X283700Y444200D02*
X284100D01*
X284500Y444600D01*
X284900Y444200D01*
X285300D01*
Y444600D01*
X284900Y445000D01*
X285300Y445400D01*
Y445800D01*
X284900D01*
X284500Y445400D01*
X284100Y445800D01*
X283700D01*
Y445400D01*
X284100Y445000D01*
X283700Y444600D01*
Y444200D01*
X275200Y437700D02*
X275600D01*
X276000Y438100D01*
X276400Y437700D01*
X276800D01*
Y438100D01*
X276400Y438500D01*
X276800Y438900D01*
Y439300D01*
X276400D01*
X276000Y438900D01*
X275600Y439300D01*
X275200D01*
Y438900D01*
X275600Y438500D01*
X275200Y438100D01*
Y437700D01*
X236200Y429700D02*
X236600D01*
X237000Y430100D01*
X237400Y429700D01*
X237800D01*
Y430100D01*
X237400Y430500D01*
X237800Y430900D01*
Y431300D01*
X237400D01*
X237000Y430900D01*
X236600Y431300D01*
X236200D01*
Y430900D01*
X236600Y430500D01*
X236200Y430100D01*
Y429700D01*
X234200Y210200D02*
X234600D01*
X235000Y210600D01*
X235400Y210200D01*
X235800D01*
Y210600D01*
X235400Y211000D01*
X235800Y211400D01*
Y211800D01*
X235400D01*
X235000Y211400D01*
X234600Y211800D01*
X234200D01*
Y211400D01*
X234600Y211000D01*
X234200Y210600D01*
Y210200D01*
X222700Y209700D02*
X223100D01*
X223500Y210100D01*
X223900Y209700D01*
X224300D01*
Y210100D01*
X223900Y210500D01*
X224300Y210900D01*
Y211300D01*
X223900D01*
X223500Y210900D01*
X223100Y211300D01*
X222700D01*
Y210900D01*
X223100Y210500D01*
X222700Y210100D01*
Y209700D01*
X228700Y203200D02*
X229100D01*
X229500Y203600D01*
X229900Y203200D01*
X230300D01*
Y203600D01*
X229900Y204000D01*
X230300Y204400D01*
Y204800D01*
X229900D01*
X229500Y204400D01*
X229100Y204800D01*
X228700D01*
Y204400D01*
X229100Y204000D01*
X228700Y203600D01*
Y203200D01*
X184200Y320700D02*
X184600D01*
X185000Y321100D01*
X185400Y320700D01*
X185800D01*
Y321100D01*
X185400Y321500D01*
X185800Y321900D01*
Y322300D01*
X185400D01*
X185000Y321900D01*
X184600Y322300D01*
X184200D01*
Y321900D01*
X184600Y321500D01*
X184200Y321100D01*
Y320700D01*
X187700Y285700D02*
X188100D01*
X188500Y286100D01*
X188900Y285700D01*
X189300D01*
Y286100D01*
X188900Y286500D01*
X189300Y286900D01*
Y287300D01*
X188900D01*
X188500Y286900D01*
X188100Y287300D01*
X187700D01*
Y286900D01*
X188100Y286500D01*
X187700Y286100D01*
Y285700D01*
X306700Y426700D02*
X307100D01*
X307500Y427100D01*
X307900Y426700D01*
X308300D01*
Y427100D01*
X307900Y427500D01*
X308300Y427900D01*
Y428300D01*
X307900D01*
X307500Y427900D01*
X307100Y428300D01*
X306700D01*
Y427900D01*
X307100Y427500D01*
X306700Y427100D01*
Y426700D01*
X300200Y430700D02*
X300600D01*
X301000Y431100D01*
X301400Y430700D01*
X301800D01*
Y431100D01*
X301400Y431500D01*
X301800Y431900D01*
Y432300D01*
X301400D01*
X301000Y431900D01*
X300600Y432300D01*
X300200D01*
Y431900D01*
X300600Y431500D01*
X300200Y431100D01*
Y430700D01*
X259700Y260700D02*
X260100D01*
X260500Y261100D01*
X260900Y260700D01*
X261300D01*
Y261100D01*
X260900Y261500D01*
X261300Y261900D01*
Y262300D01*
X260900D01*
X260500Y261900D01*
X260100Y262300D01*
X259700D01*
Y261900D01*
X260100Y261500D01*
X259700Y261100D01*
Y260700D01*
X271700Y316200D02*
X272100D01*
X272500Y316600D01*
X272900Y316200D01*
X273300D01*
Y316600D01*
X272900Y317000D01*
X273300Y317400D01*
Y317800D01*
X272900D01*
X272500Y317400D01*
X272100Y317800D01*
X271700D01*
Y317400D01*
X272100Y317000D01*
X271700Y316600D01*
Y316200D01*
X286700Y320200D02*
X287100D01*
X287500Y320600D01*
X287900Y320200D01*
X288300D01*
Y320600D01*
X287900Y321000D01*
X288300Y321400D01*
Y321800D01*
X287900D01*
X287500Y321400D01*
X287100Y321800D01*
X286700D01*
Y321400D01*
X287100Y321000D01*
X286700Y320600D01*
Y320200D01*
X264700Y435700D02*
X265100D01*
X265500Y436100D01*
X265900Y435700D01*
X266300D01*
Y436100D01*
X265900Y436500D01*
X266300Y436900D01*
Y437300D01*
X265900D01*
X265500Y436900D01*
X265100Y437300D01*
X264700D01*
Y436900D01*
X265100Y436500D01*
X264700Y436100D01*
Y435700D01*
X263200Y431200D02*
X263600D01*
X264000Y431600D01*
X264400Y431200D01*
X264800D01*
Y431600D01*
X264400Y432000D01*
X264800Y432400D01*
Y432800D01*
X264400D01*
X264000Y432400D01*
X263600Y432800D01*
X263200D01*
Y432400D01*
X263600Y432000D01*
X263200Y431600D01*
Y431200D01*
X208700Y430700D02*
X209100D01*
X209500Y431100D01*
X209900Y430700D01*
X210300D01*
Y431100D01*
X209900Y431500D01*
X210300Y431900D01*
Y432300D01*
X209900D01*
X209500Y431900D01*
X209100Y432300D01*
X208700D01*
Y431900D01*
X209100Y431500D01*
X208700Y431100D01*
Y430700D01*
X247200Y405200D02*
X247600D01*
X248000Y405600D01*
X248400Y405200D01*
X248800D01*
Y405600D01*
X248400Y406000D01*
X248800Y406400D01*
Y406800D01*
X248400D01*
X248000Y406400D01*
X247600Y406800D01*
X247200D01*
Y406400D01*
X247600Y406000D01*
X247200Y405600D01*
Y405200D01*
X252200Y407200D02*
X252600D01*
X253000Y407600D01*
X253400Y407200D01*
X253800D01*
Y407600D01*
X253400Y408000D01*
X253800Y408400D01*
Y408800D01*
X253400D01*
X253000Y408400D01*
X252600Y408800D01*
X252200D01*
Y408400D01*
X252600Y408000D01*
X252200Y407600D01*
Y407200D01*
X221200Y388200D02*
X221600D01*
X222000Y388600D01*
X222400Y388200D01*
X222800D01*
Y388600D01*
X222400Y389000D01*
X222800Y389400D01*
Y389800D01*
X222400D01*
X222000Y389400D01*
X221600Y389800D01*
X221200D01*
Y389400D01*
X221600Y389000D01*
X221200Y388600D01*
Y388200D01*
X242200Y402700D02*
X242600D01*
X243000Y403100D01*
X243400Y402700D01*
X243800D01*
Y403100D01*
X243400Y403500D01*
X243800Y403900D01*
Y404300D01*
X243400D01*
X243000Y403900D01*
X242600Y404300D01*
X242200D01*
Y403900D01*
X242600Y403500D01*
X242200Y403100D01*
Y402700D01*
X234700Y390700D02*
X235100D01*
X235500Y391100D01*
X235900Y390700D01*
X236300D01*
Y391100D01*
X235900Y391500D01*
X236300Y391900D01*
Y392300D01*
X235900D01*
X235500Y391900D01*
X235100Y392300D01*
X234700D01*
Y391900D01*
X235100Y391500D01*
X234700Y391100D01*
Y390700D01*
X232200Y386200D02*
X232600D01*
X233000Y386600D01*
X233400Y386200D01*
X233800D01*
Y386600D01*
X233400Y387000D01*
X233800Y387400D01*
Y387800D01*
X233400D01*
X233000Y387400D01*
X232600Y387800D01*
X232200D01*
Y387400D01*
X232600Y387000D01*
X232200Y386600D01*
Y386200D01*
X237700Y382200D02*
X238100D01*
X238500Y382600D01*
X238900Y382200D01*
X239300D01*
Y382600D01*
X238900Y383000D01*
X239300Y383400D01*
Y383800D01*
X238900D01*
X238500Y383400D01*
X238100Y383800D01*
X237700D01*
Y383400D01*
X238100Y383000D01*
X237700Y382600D01*
Y382200D01*
X215700Y357200D02*
X216100D01*
X216500Y357600D01*
X216900Y357200D01*
X217300D01*
Y357600D01*
X216900Y358000D01*
X217300Y358400D01*
Y358800D01*
X216900D01*
X216500Y358400D01*
X216100Y358800D01*
X215700D01*
Y358400D01*
X216100Y358000D01*
X215700Y357600D01*
Y357200D01*
X181200Y389700D02*
X181600D01*
X182000Y390100D01*
X182400Y389700D01*
X182800D01*
Y390100D01*
X182400Y390500D01*
X182800Y390900D01*
Y391300D01*
X182400D01*
X182000Y390900D01*
X181600Y391300D01*
X181200D01*
Y390900D01*
X181600Y390500D01*
X181200Y390100D01*
Y389700D01*
X352700Y196450D02*
X353100D01*
X353500Y196850D01*
X353900Y196450D01*
X354300D01*
Y196850D01*
X353900Y197250D01*
X354300Y197650D01*
Y198050D01*
X353900D01*
X353500Y197650D01*
X353100Y198050D01*
X352700D01*
Y197650D01*
X353100Y197250D01*
X352700Y196850D01*
Y196450D01*
X318700Y237200D02*
X319100D01*
X319500Y237600D01*
X319900Y237200D01*
X320300D01*
Y237600D01*
X319900Y238000D01*
X320300Y238400D01*
Y238800D01*
X319900D01*
X319500Y238400D01*
X319100Y238800D01*
X318700D01*
Y238400D01*
X319100Y238000D01*
X318700Y237600D01*
Y237200D01*
X238700Y365200D02*
X239100D01*
X239500Y365600D01*
X239900Y365200D01*
X240300D01*
Y365600D01*
X239900Y366000D01*
X240300Y366400D01*
Y366800D01*
X239900D01*
X239500Y366400D01*
X239100Y366800D01*
X238700D01*
Y366400D01*
X239100Y366000D01*
X238700Y365600D01*
Y365200D01*
X318200Y361200D02*
X318600D01*
X319000Y361600D01*
X319400Y361200D01*
X319800D01*
Y361600D01*
X319400Y362000D01*
X319800Y362400D01*
Y362800D01*
X319400D01*
X319000Y362400D01*
X318600Y362800D01*
X318200D01*
Y362400D01*
X318600Y362000D01*
X318200Y361600D01*
Y361200D01*
X228700Y314700D02*
X229100D01*
X229500Y315100D01*
X229900Y314700D01*
X230300D01*
Y315100D01*
X229900Y315500D01*
X230300Y315900D01*
Y316300D01*
X229900D01*
X229500Y315900D01*
X229100Y316300D01*
X228700D01*
Y315900D01*
X229100Y315500D01*
X228700Y315100D01*
Y314700D01*
X291700Y384200D02*
X292100D01*
X292500Y384600D01*
X292900Y384200D01*
X293300D01*
Y384600D01*
X292900Y385000D01*
X293300Y385400D01*
Y385800D01*
X292900D01*
X292500Y385400D01*
X292100Y385800D01*
X291700D01*
Y385400D01*
X292100Y385000D01*
X291700Y384600D01*
Y384200D01*
X281200Y389700D02*
X281600D01*
X282000Y390100D01*
X282400Y389700D01*
X282800D01*
Y390100D01*
X282400Y390500D01*
X282800Y390900D01*
Y391300D01*
X282400D01*
X282000Y390900D01*
X281600Y391300D01*
X281200D01*
Y390900D01*
X281600Y390500D01*
X281200Y390100D01*
Y389700D01*
X273200Y390700D02*
X273600D01*
X274000Y391100D01*
X274400Y390700D01*
X274800D01*
Y391100D01*
X274400Y391500D01*
X274800Y391900D01*
Y392300D01*
X274400D01*
X274000Y391900D01*
X273600Y392300D01*
X273200D01*
Y391900D01*
X273600Y391500D01*
X273200Y391100D01*
Y390700D01*
X286200Y339700D02*
X286600D01*
X287000Y340100D01*
X287400Y339700D01*
X287800D01*
Y340100D01*
X287400Y340500D01*
X287800Y340900D01*
Y341300D01*
X287400D01*
X287000Y340900D01*
X286600Y341300D01*
X286200D01*
Y340900D01*
X286600Y340500D01*
X286200Y340100D01*
Y339700D01*
X284700Y345700D02*
X285100D01*
X285500Y346100D01*
X285900Y345700D01*
X286300D01*
Y346100D01*
X285900Y346500D01*
X286300Y346900D01*
Y347300D01*
X285900D01*
X285500Y346900D01*
X285100Y347300D01*
X284700D01*
Y346900D01*
X285100Y346500D01*
X284700Y346100D01*
Y345700D01*
X249200Y344200D02*
X249600D01*
X250000Y344600D01*
X250400Y344200D01*
X250800D01*
Y344600D01*
X250400Y345000D01*
X250800Y345400D01*
Y345800D01*
X250400D01*
X250000Y345400D01*
X249600Y345800D01*
X249200D01*
Y345400D01*
X249600Y345000D01*
X249200Y344600D01*
Y344200D01*
Y285700D02*
X249600D01*
X250000Y286100D01*
X250400Y285700D01*
X250800D01*
Y286100D01*
X250400Y286500D01*
X250800Y286900D01*
Y287300D01*
X250400D01*
X250000Y286900D01*
X249600Y287300D01*
X249200D01*
Y286900D01*
X249600Y286500D01*
X249200Y286100D01*
Y285700D01*
X285200Y334200D02*
X285600D01*
X286000Y334600D01*
X286400Y334200D01*
X286800D01*
Y334600D01*
X286400Y335000D01*
X286800Y335400D01*
Y335800D01*
X286400D01*
X286000Y335400D01*
X285600Y335800D01*
X285200D01*
Y335400D01*
X285600Y335000D01*
X285200Y334600D01*
Y334200D01*
X256200Y345700D02*
X256600D01*
X257000Y346100D01*
X257400Y345700D01*
X257800D01*
Y346100D01*
X257400Y346500D01*
X257800Y346900D01*
Y347300D01*
X257400D01*
X257000Y346900D01*
X256600Y347300D01*
X256200D01*
Y346900D01*
X256600Y346500D01*
X256200Y346100D01*
Y345700D01*
X281200Y327200D02*
X281600D01*
X282000Y327600D01*
X282400Y327200D01*
X282800D01*
Y327600D01*
X282400Y328000D01*
X282800Y328400D01*
Y328800D01*
X282400D01*
X282000Y328400D01*
X281600Y328800D01*
X281200D01*
Y328400D01*
X281600Y328000D01*
X281200Y327600D01*
Y327200D01*
D94*
X252622Y165234D02*
G03*
X252622Y165234I-800J0D01*
G01*
X230378D02*
G03*
X230378Y165234I-800J0D01*
G01*
M02*
