G04 Layer_Physical_Order=2*
G04 Layer_Color=16711680*
%FSLAX25Y25*%
%MOIN*%
G70*
G01*
G75*
G36*
X384500Y153500D02*
X130000D01*
Y481000D01*
X384500D01*
Y153500D01*
D02*
G37*
%LPC*%
G36*
X249847Y473937D02*
X241154D01*
Y464063D01*
X249847D01*
Y473937D01*
D02*
G37*
G36*
X315500Y473975D02*
X314365Y473825D01*
X313308Y473387D01*
X312400Y472690D01*
X311703Y471782D01*
X311265Y470725D01*
X311116Y469591D01*
Y468409D01*
X311265Y467275D01*
X311703Y466218D01*
X312400Y465309D01*
X313308Y464613D01*
X314365Y464175D01*
X315500Y464025D01*
X316635Y464175D01*
X317692Y464613D01*
X318600Y465309D01*
X319297Y466218D01*
X319735Y467275D01*
X319884Y468409D01*
Y469591D01*
X319735Y470725D01*
X319297Y471782D01*
X318600Y472690D01*
X317692Y473387D01*
X316635Y473825D01*
X315500Y473975D01*
D02*
G37*
G36*
X305500D02*
X304365Y473825D01*
X303308Y473387D01*
X302400Y472690D01*
X301703Y471782D01*
X301265Y470725D01*
X301116Y469591D01*
Y468409D01*
X301265Y467275D01*
X301703Y466218D01*
X302400Y465309D01*
X303308Y464613D01*
X304365Y464175D01*
X305500Y464025D01*
X306635Y464175D01*
X307692Y464613D01*
X308600Y465309D01*
X309297Y466218D01*
X309735Y467275D01*
X309884Y468409D01*
Y469591D01*
X309735Y470725D01*
X309297Y471782D01*
X308600Y472690D01*
X307692Y473387D01*
X306635Y473825D01*
X305500Y473975D01*
D02*
G37*
G36*
X295500D02*
X294365Y473825D01*
X293308Y473387D01*
X292400Y472690D01*
X291703Y471782D01*
X291265Y470725D01*
X291116Y469591D01*
Y468409D01*
X291265Y467275D01*
X291703Y466218D01*
X292400Y465309D01*
X293308Y464613D01*
X294365Y464175D01*
X295500Y464025D01*
X296635Y464175D01*
X297692Y464613D01*
X298600Y465309D01*
X299297Y466218D01*
X299735Y467275D01*
X299884Y468409D01*
Y469591D01*
X299735Y470725D01*
X299297Y471782D01*
X298600Y472690D01*
X297692Y473387D01*
X296635Y473825D01*
X295500Y473975D01*
D02*
G37*
G36*
X285500D02*
X284365Y473825D01*
X283308Y473387D01*
X282400Y472690D01*
X281703Y471782D01*
X281265Y470725D01*
X281116Y469591D01*
Y468409D01*
X281265Y467275D01*
X281703Y466218D01*
X282400Y465309D01*
X283308Y464613D01*
X284365Y464175D01*
X285500Y464025D01*
X286635Y464175D01*
X287692Y464613D01*
X288600Y465309D01*
X289297Y466218D01*
X289735Y467275D01*
X289884Y468409D01*
Y469591D01*
X289735Y470725D01*
X289297Y471782D01*
X288600Y472690D01*
X287692Y473387D01*
X286635Y473825D01*
X285500Y473975D01*
D02*
G37*
G36*
X275500D02*
X274365Y473825D01*
X273308Y473387D01*
X272400Y472690D01*
X271703Y471782D01*
X271265Y470725D01*
X271116Y469591D01*
Y468409D01*
X271265Y467275D01*
X271703Y466218D01*
X272400Y465309D01*
X273308Y464613D01*
X274365Y464175D01*
X275500Y464025D01*
X276635Y464175D01*
X277692Y464613D01*
X278600Y465309D01*
X279297Y466218D01*
X279735Y467275D01*
X279884Y468409D01*
Y469591D01*
X279735Y470725D01*
X279297Y471782D01*
X278600Y472690D01*
X277692Y473387D01*
X276635Y473825D01*
X275500Y473975D01*
D02*
G37*
G36*
X265500D02*
X264365Y473825D01*
X263308Y473387D01*
X262400Y472690D01*
X261703Y471782D01*
X261265Y470725D01*
X261116Y469591D01*
Y468409D01*
X261265Y467275D01*
X261703Y466218D01*
X262400Y465309D01*
X263308Y464613D01*
X264365Y464175D01*
X265500Y464025D01*
X266635Y464175D01*
X267692Y464613D01*
X268600Y465309D01*
X269297Y466218D01*
X269735Y467275D01*
X269884Y468409D01*
Y469591D01*
X269735Y470725D01*
X269297Y471782D01*
X268600Y472690D01*
X267692Y473387D01*
X266635Y473825D01*
X265500Y473975D01*
D02*
G37*
G36*
X255500D02*
X254365Y473825D01*
X253308Y473387D01*
X252400Y472690D01*
X251703Y471782D01*
X251265Y470725D01*
X251116Y469591D01*
Y468409D01*
X251265Y467275D01*
X251703Y466218D01*
X252400Y465309D01*
X253308Y464613D01*
X254365Y464175D01*
X255500Y464025D01*
X256635Y464175D01*
X257692Y464613D01*
X258600Y465309D01*
X259297Y466218D01*
X259735Y467275D01*
X259884Y468409D01*
Y469591D01*
X259735Y470725D01*
X259297Y471782D01*
X258600Y472690D01*
X257692Y473387D01*
X256635Y473825D01*
X255500Y473975D01*
D02*
G37*
G36*
X216500Y449135D02*
X215430Y448994D01*
X214432Y448581D01*
X213576Y447924D01*
X212919Y447068D01*
X212506Y446070D01*
X212365Y445000D01*
X212506Y443930D01*
X212919Y442932D01*
X213576Y442076D01*
X214288Y441529D01*
X214118Y441029D01*
X155000D01*
X154415Y440913D01*
X153919Y440581D01*
X147419Y434081D01*
X147087Y433585D01*
X146971Y433000D01*
Y366000D01*
X147087Y365415D01*
X147419Y364919D01*
X152919Y359419D01*
X153415Y359087D01*
X154000Y358971D01*
X156338D01*
X156613Y358308D01*
X157309Y357400D01*
X158218Y356703D01*
X159275Y356265D01*
X160409Y356116D01*
X161591D01*
X162725Y356265D01*
X163783Y356703D01*
X164690Y357400D01*
X165387Y358308D01*
X165825Y359365D01*
X165974Y360500D01*
X165825Y361635D01*
X165387Y362692D01*
X164690Y363600D01*
X163783Y364297D01*
X162725Y364735D01*
X161591Y364884D01*
X160409D01*
X159275Y364735D01*
X158218Y364297D01*
X157309Y363600D01*
X156613Y362692D01*
X156338Y362029D01*
X154633D01*
X150029Y366634D01*
Y373623D01*
X150092Y373671D01*
X150529Y373808D01*
X154919Y369419D01*
X155415Y369087D01*
X156000Y368971D01*
X156338D01*
X156613Y368308D01*
X157309Y367400D01*
X158218Y366703D01*
X159275Y366265D01*
X160409Y366116D01*
X161591D01*
X162725Y366265D01*
X163783Y366703D01*
X164690Y367400D01*
X165387Y368308D01*
X165825Y369365D01*
X165974Y370500D01*
X165825Y371635D01*
X165387Y372692D01*
X164690Y373600D01*
X163783Y374297D01*
X162725Y374735D01*
X161591Y374884D01*
X160409D01*
X159275Y374735D01*
X158218Y374297D01*
X157309Y373600D01*
X156641Y372729D01*
X156511Y372637D01*
X156107Y372556D01*
X153029Y375634D01*
Y383623D01*
X153092Y383671D01*
X153529Y383808D01*
X155984Y381353D01*
X156027Y381303D01*
X156095Y381214D01*
X156115Y381182D01*
X156026Y380500D01*
X156175Y379365D01*
X156613Y378308D01*
X157309Y377400D01*
X158218Y376703D01*
X159275Y376265D01*
X160409Y376116D01*
X161591D01*
X162725Y376265D01*
X163783Y376703D01*
X164690Y377400D01*
X165387Y378308D01*
X165825Y379365D01*
X165974Y380500D01*
X165825Y381635D01*
X165387Y382692D01*
X164690Y383600D01*
X163783Y384297D01*
X162725Y384735D01*
X161591Y384884D01*
X160409D01*
X159275Y384735D01*
X158218Y384297D01*
X157736Y383927D01*
X156029Y385633D01*
Y388410D01*
X156529Y388509D01*
X156613Y388308D01*
X157309Y387400D01*
X158218Y386703D01*
X159275Y386265D01*
X160409Y386116D01*
X161591D01*
X162725Y386265D01*
X163783Y386703D01*
X164690Y387400D01*
X165387Y388308D01*
X165825Y389365D01*
X165974Y390500D01*
X165825Y391635D01*
X165387Y392692D01*
X164690Y393600D01*
X163783Y394297D01*
X162725Y394735D01*
X161591Y394884D01*
X160409D01*
X159275Y394735D01*
X158218Y394297D01*
X157309Y393600D01*
X156613Y392692D01*
X156529Y392491D01*
X156029Y392590D01*
Y398410D01*
X156529Y398509D01*
X156613Y398308D01*
X157309Y397400D01*
X158218Y396703D01*
X159275Y396265D01*
X160409Y396116D01*
X161591D01*
X162725Y396265D01*
X163783Y396703D01*
X164690Y397400D01*
X165387Y398308D01*
X165825Y399365D01*
X165934Y400195D01*
X165954Y400229D01*
X166010Y400311D01*
X166184Y400522D01*
X173533Y407871D01*
X237054D01*
X237246Y407409D01*
X221271Y391434D01*
X221054Y391255D01*
X221036Y391243D01*
X220986Y391209D01*
X220918Y391165D01*
X220875Y391142D01*
X220872Y391140D01*
X220869Y391139D01*
X220825Y391101D01*
X220270Y390730D01*
X219739Y389936D01*
X219553Y389000D01*
X219739Y388064D01*
X220270Y387270D01*
X221064Y386739D01*
X222000Y386553D01*
X222936Y386739D01*
X223730Y387270D01*
X224261Y388064D01*
X224447Y389000D01*
X224261Y389936D01*
X224196Y390033D01*
X239633Y405471D01*
X240829D01*
X240860Y405412D01*
X240915Y404913D01*
X240419Y404581D01*
X225919Y390081D01*
X225587Y389585D01*
X225471Y389000D01*
Y369133D01*
X216855Y360518D01*
X216823Y360496D01*
X216786Y360475D01*
X216751Y360459D01*
X216714Y360445D01*
X216674Y360435D01*
X216631Y360427D01*
X216612Y360425D01*
X216500Y360447D01*
X215564Y360261D01*
X214770Y359730D01*
X214239Y358936D01*
X214053Y358000D01*
X214239Y357064D01*
X214770Y356270D01*
X215564Y355739D01*
X216500Y355553D01*
X217436Y355739D01*
X218230Y356270D01*
X218761Y357064D01*
X218947Y358000D01*
X218925Y358112D01*
X218927Y358131D01*
X218935Y358174D01*
X218946Y358214D01*
X218959Y358250D01*
X218975Y358286D01*
X218996Y358323D01*
X219018Y358355D01*
X228081Y367419D01*
X228413Y367915D01*
X228529Y368500D01*
Y388367D01*
X232810Y392647D01*
X233006Y392551D01*
X233223Y392353D01*
X233053Y391500D01*
X233239Y390564D01*
X233744Y389809D01*
X233698Y389656D01*
X233502Y389347D01*
X233000Y389447D01*
X232064Y389261D01*
X231270Y388730D01*
X230739Y387936D01*
X230553Y387000D01*
X230739Y386064D01*
X231270Y385270D01*
X232064Y384739D01*
X233000Y384553D01*
X233936Y384739D01*
X234730Y385270D01*
X234793Y385364D01*
X234808Y385376D01*
X234845Y385402D01*
X234880Y385422D01*
X234916Y385438D01*
X234953Y385452D01*
X234993Y385463D01*
X235031Y385471D01*
X236978D01*
X237129Y384971D01*
X236770Y384730D01*
X236239Y383936D01*
X236053Y383000D01*
X236239Y382064D01*
X236770Y381270D01*
X237564Y380739D01*
X238500Y380553D01*
X239436Y380739D01*
X240230Y381270D01*
X240294Y381364D01*
X240308Y381376D01*
X240345Y381402D01*
X240380Y381422D01*
X240416Y381438D01*
X240453Y381452D01*
X240493Y381463D01*
X240531Y381471D01*
X246367D01*
X251471Y376366D01*
Y354134D01*
X239367Y342029D01*
X235845D01*
X235795Y342529D01*
X236085Y342587D01*
X236581Y342919D01*
X248145Y354483D01*
X248178Y354504D01*
X248214Y354525D01*
X248250Y354541D01*
X248286Y354555D01*
X248326Y354565D01*
X248370Y354573D01*
X248388Y354575D01*
X248500Y354553D01*
X249436Y354739D01*
X250230Y355270D01*
X250761Y356064D01*
X250947Y357000D01*
X250761Y357936D01*
X250230Y358730D01*
X249436Y359261D01*
X248500Y359447D01*
X247564Y359261D01*
X246770Y358730D01*
X246239Y357936D01*
X246053Y357000D01*
X246075Y356888D01*
X246073Y356870D01*
X246065Y356826D01*
X246055Y356786D01*
X246041Y356750D01*
X246025Y356714D01*
X246004Y356678D01*
X245983Y356645D01*
X234866Y345529D01*
X155000D01*
X154415Y345413D01*
X153919Y345081D01*
X149419Y340581D01*
X149087Y340085D01*
X148971Y339500D01*
Y324585D01*
X148471Y324339D01*
X147894Y324781D01*
X146981Y325159D01*
X146500Y325222D01*
Y321500D01*
X145500D01*
Y325222D01*
X145019Y325159D01*
X144106Y324781D01*
X143321Y324179D01*
X143029Y323798D01*
X142529Y323968D01*
Y342367D01*
X146634Y346471D01*
X232000D01*
X232585Y346587D01*
X233081Y346919D01*
X240145Y353982D01*
X240177Y354004D01*
X240214Y354025D01*
X240249Y354041D01*
X240286Y354054D01*
X240326Y354065D01*
X240370Y354073D01*
X240388Y354075D01*
X240500Y354053D01*
X241436Y354239D01*
X242230Y354770D01*
X242761Y355564D01*
X242947Y356500D01*
X242761Y357436D01*
X242230Y358230D01*
X241436Y358761D01*
X240500Y358947D01*
X239564Y358761D01*
X238770Y358230D01*
X238239Y357436D01*
X238053Y356500D01*
X238075Y356388D01*
X238073Y356369D01*
X238065Y356326D01*
X238054Y356286D01*
X238041Y356249D01*
X238025Y356214D01*
X238004Y356177D01*
X237983Y356145D01*
X231366Y349529D01*
X225345D01*
X225295Y350029D01*
X225585Y350087D01*
X226081Y350419D01*
X239145Y363482D01*
X239177Y363504D01*
X239214Y363525D01*
X239249Y363541D01*
X239286Y363555D01*
X239326Y363565D01*
X239370Y363573D01*
X239388Y363575D01*
X239500Y363553D01*
X240436Y363739D01*
X241230Y364270D01*
X241761Y365064D01*
X241947Y366000D01*
X241761Y366936D01*
X241230Y367730D01*
X240436Y368261D01*
X239500Y368447D01*
X238564Y368261D01*
X237770Y367730D01*
X237239Y366936D01*
X237053Y366000D01*
X237075Y365888D01*
X237073Y365869D01*
X237065Y365826D01*
X237054Y365786D01*
X237041Y365750D01*
X237025Y365714D01*
X237004Y365677D01*
X236982Y365645D01*
X224366Y353029D01*
X190134D01*
X183529Y359633D01*
Y388469D01*
X183537Y388507D01*
X183548Y388547D01*
X183562Y388584D01*
X183578Y388620D01*
X183598Y388655D01*
X183624Y388692D01*
X183636Y388706D01*
X183730Y388770D01*
X184261Y389564D01*
X184447Y390500D01*
X184261Y391436D01*
X183730Y392230D01*
X182936Y392761D01*
X182000Y392947D01*
X181064Y392761D01*
X180270Y392230D01*
X179739Y391436D01*
X179553Y390500D01*
X179739Y389564D01*
X180270Y388770D01*
X180364Y388706D01*
X180376Y388692D01*
X180402Y388655D01*
X180422Y388620D01*
X180438Y388584D01*
X180452Y388547D01*
X180463Y388507D01*
X180471Y388469D01*
Y359000D01*
X180587Y358415D01*
X180919Y357919D01*
X188419Y350419D01*
X188915Y350087D01*
X189205Y350029D01*
X189155Y349529D01*
X146000D01*
X145415Y349413D01*
X145018Y349148D01*
X144699Y349536D01*
X145633Y350471D01*
X170500D01*
X171085Y350587D01*
X171581Y350919D01*
X177081Y356419D01*
X177413Y356915D01*
X177529Y357500D01*
Y395367D01*
X184134Y401971D01*
X223969D01*
X224007Y401963D01*
X224047Y401952D01*
X224084Y401938D01*
X224120Y401922D01*
X224155Y401902D01*
X224192Y401876D01*
X224206Y401864D01*
X224270Y401770D01*
X225064Y401239D01*
X226000Y401053D01*
X226936Y401239D01*
X227730Y401770D01*
X228261Y402564D01*
X228447Y403500D01*
X228261Y404436D01*
X227730Y405230D01*
X226936Y405761D01*
X226000Y405947D01*
X225064Y405761D01*
X224270Y405230D01*
X224206Y405136D01*
X224192Y405124D01*
X224155Y405098D01*
X224120Y405078D01*
X224084Y405061D01*
X224047Y405048D01*
X224007Y405037D01*
X223969Y405029D01*
X183500D01*
X182915Y404913D01*
X182419Y404581D01*
X174919Y397081D01*
X174587Y396585D01*
X174471Y396000D01*
Y358134D01*
X169867Y353529D01*
X145000D01*
X144415Y353413D01*
X143919Y353081D01*
X136919Y346081D01*
X136587Y345585D01*
X136471Y345000D01*
Y277500D01*
X136587Y276915D01*
X136919Y276419D01*
X140919Y272419D01*
X141415Y272087D01*
X142000Y271971D01*
X156000D01*
X156585Y272087D01*
X157081Y272419D01*
X159581Y274919D01*
X159913Y275415D01*
X160029Y276000D01*
Y277744D01*
X162256D01*
Y285256D01*
X154744D01*
Y277744D01*
X156971D01*
Y276634D01*
X155367Y275029D01*
X142633D01*
X139529Y278134D01*
Y311623D01*
X139592Y311671D01*
X140029Y311808D01*
X141419Y310419D01*
X141915Y310087D01*
X142500Y309971D01*
X142568D01*
X142719Y309606D01*
X143321Y308821D01*
X144106Y308219D01*
X145019Y307841D01*
X146000Y307712D01*
X146981Y307841D01*
X147894Y308219D01*
X148471Y308662D01*
X148971Y308415D01*
Y306633D01*
X147949Y305612D01*
X147885Y305569D01*
X147776Y305514D01*
X147633Y305458D01*
X147453Y305405D01*
X147237Y305359D01*
X146999Y305323D01*
X146374Y305278D01*
X146094Y305276D01*
X146000Y305288D01*
X145019Y305159D01*
X144106Y304781D01*
X143321Y304179D01*
X142719Y303394D01*
X142341Y302481D01*
X142212Y301500D01*
X142341Y300519D01*
X142719Y299606D01*
X143321Y298821D01*
X144106Y298219D01*
X145019Y297841D01*
X146000Y297712D01*
X146981Y297841D01*
X147894Y298219D01*
X148679Y298821D01*
X149281Y299606D01*
X149659Y300519D01*
X149788Y301500D01*
X149777Y301584D01*
X149795Y302213D01*
X149821Y302487D01*
X149859Y302737D01*
X149905Y302953D01*
X149958Y303133D01*
X150014Y303276D01*
X150069Y303384D01*
X150112Y303449D01*
X151471Y304808D01*
X151908Y304671D01*
X151971Y304623D01*
Y298133D01*
X148683Y294846D01*
X148632Y294813D01*
X148570Y294786D01*
X148497Y294766D01*
X148402Y294753D01*
X148279Y294754D01*
X148126Y294771D01*
X147942Y294811D01*
X147728Y294877D01*
X147457Y294983D01*
X147369Y294998D01*
X146981Y295159D01*
X146000Y295288D01*
X145019Y295159D01*
X144106Y294781D01*
X143321Y294179D01*
X142719Y293394D01*
X142341Y292480D01*
X142212Y291500D01*
X142341Y290519D01*
X142719Y289606D01*
X143321Y288821D01*
X144106Y288219D01*
X145019Y287841D01*
X146000Y287712D01*
X146981Y287841D01*
X147894Y288219D01*
X148679Y288821D01*
X149281Y289606D01*
X149440Y289990D01*
X149495Y290072D01*
X149495Y290073D01*
X149495Y290073D01*
X149844Y290910D01*
X150273Y291856D01*
X150488Y292268D01*
X150560Y292387D01*
X150583Y292420D01*
X154581Y296419D01*
X154913Y296915D01*
X155029Y297500D01*
Y299032D01*
X155529Y299202D01*
X155821Y298821D01*
X156606Y298219D01*
X157519Y297841D01*
X158000Y297778D01*
Y301500D01*
Y305223D01*
X157519Y305159D01*
X156606Y304781D01*
X155821Y304179D01*
X155529Y303798D01*
X155029Y303968D01*
Y309032D01*
X155529Y309202D01*
X155821Y308821D01*
X156606Y308219D01*
X157519Y307841D01*
X158500Y307712D01*
X159481Y307841D01*
X160394Y308219D01*
X161179Y308821D01*
X161230Y308888D01*
X161688Y309321D01*
X161900Y309496D01*
X162103Y309646D01*
X162289Y309766D01*
X162453Y309856D01*
X162594Y309918D01*
X162710Y309955D01*
X162785Y309971D01*
X297500D01*
X298085Y310087D01*
X298581Y310419D01*
X329581Y341419D01*
X329913Y341915D01*
X330029Y342500D01*
Y408969D01*
X330037Y409007D01*
X330048Y409047D01*
X330062Y409084D01*
X330078Y409120D01*
X330098Y409155D01*
X330124Y409192D01*
X330136Y409206D01*
X330230Y409270D01*
X330761Y410064D01*
X330947Y411000D01*
X330761Y411936D01*
X330230Y412730D01*
X329436Y413261D01*
X328500Y413447D01*
X327564Y413261D01*
X326770Y412730D01*
X326239Y411936D01*
X326053Y411000D01*
X326239Y410064D01*
X326770Y409270D01*
X326864Y409206D01*
X326876Y409192D01*
X326902Y409155D01*
X326922Y409120D01*
X326939Y409084D01*
X326952Y409047D01*
X326963Y409007D01*
X326971Y408969D01*
Y343133D01*
X296866Y313029D01*
X243022D01*
X242871Y313529D01*
X243230Y313770D01*
X243761Y314564D01*
X243947Y315500D01*
X243761Y316436D01*
X243230Y317230D01*
X242436Y317761D01*
X241500Y317947D01*
X240564Y317761D01*
X239770Y317230D01*
X239706Y317136D01*
X239692Y317124D01*
X239655Y317098D01*
X239620Y317078D01*
X239584Y317061D01*
X239547Y317048D01*
X239507Y317037D01*
X239469Y317029D01*
X231531D01*
X231493Y317037D01*
X231453Y317048D01*
X231416Y317061D01*
X231380Y317078D01*
X231345Y317098D01*
X231308Y317124D01*
X231294Y317136D01*
X231230Y317230D01*
X230436Y317761D01*
X229500Y317947D01*
X228564Y317761D01*
X227770Y317230D01*
X227707Y317136D01*
X227692Y317124D01*
X227655Y317098D01*
X227620Y317078D01*
X227584Y317061D01*
X227547Y317048D01*
X227507Y317037D01*
X227469Y317029D01*
X165134D01*
X162612Y319551D01*
X162569Y319615D01*
X162514Y319724D01*
X162458Y319867D01*
X162405Y320047D01*
X162359Y320263D01*
X162323Y320501D01*
X162278Y321126D01*
X162276Y321406D01*
X162288Y321500D01*
X162159Y322481D01*
X161781Y323394D01*
X161179Y324179D01*
X160394Y324781D01*
X159481Y325159D01*
X158500Y325288D01*
X157519Y325159D01*
X156606Y324781D01*
X155821Y324179D01*
X155219Y323394D01*
X154841Y322481D01*
X154712Y321500D01*
X154723Y321416D01*
X154705Y320787D01*
X154679Y320513D01*
X154641Y320263D01*
X154595Y320047D01*
X154542Y319867D01*
X154486Y319724D01*
X154431Y319616D01*
X154388Y319551D01*
X152529Y317692D01*
X152092Y317829D01*
X152029Y317877D01*
Y338866D01*
X155633Y342471D01*
X193655D01*
X193704Y341971D01*
X193415Y341913D01*
X192919Y341581D01*
X183919Y332581D01*
X183587Y332085D01*
X183471Y331500D01*
Y323531D01*
X183463Y323493D01*
X183452Y323453D01*
X183439Y323416D01*
X183422Y323380D01*
X183402Y323345D01*
X183376Y323308D01*
X183364Y323293D01*
X183270Y323230D01*
X182739Y322436D01*
X182553Y321500D01*
X182739Y320564D01*
X183270Y319770D01*
X184064Y319239D01*
X185000Y319053D01*
X185936Y319239D01*
X186730Y319770D01*
X187261Y320564D01*
X187447Y321500D01*
X187261Y322436D01*
X186730Y323230D01*
X186636Y323293D01*
X186624Y323308D01*
X186598Y323345D01*
X186578Y323380D01*
X186562Y323416D01*
X186548Y323453D01*
X186537Y323493D01*
X186529Y323531D01*
Y330867D01*
X194633Y338971D01*
X240000D01*
X240585Y339087D01*
X241081Y339419D01*
X247138Y345475D01*
X247598Y345228D01*
X247553Y345000D01*
X247739Y344064D01*
X248270Y343270D01*
X249064Y342739D01*
X250000Y342553D01*
X250936Y342739D01*
X251730Y343270D01*
X252261Y344064D01*
X252447Y345000D01*
X252425Y345112D01*
X252427Y345130D01*
X252435Y345174D01*
X252446Y345214D01*
X252459Y345251D01*
X252475Y345286D01*
X252496Y345322D01*
X252518Y345355D01*
X254138Y346975D01*
X254598Y346728D01*
X254553Y346500D01*
X254739Y345564D01*
X255270Y344770D01*
X256064Y344239D01*
X257000Y344053D01*
X257936Y344239D01*
X258730Y344770D01*
X259261Y345564D01*
X259447Y346500D01*
X259425Y346612D01*
X259427Y346631D01*
X259435Y346674D01*
X259446Y346714D01*
X259459Y346750D01*
X259475Y346786D01*
X259496Y346823D01*
X259518Y346855D01*
X260581Y347919D01*
X260913Y348415D01*
X261029Y349000D01*
Y350500D01*
Y384000D01*
X260913Y384585D01*
X260581Y385081D01*
X253081Y392581D01*
X252585Y392913D01*
X252000Y393029D01*
X237531D01*
X237493Y393037D01*
X237453Y393048D01*
X237416Y393061D01*
X237380Y393078D01*
X237345Y393098D01*
X237308Y393124D01*
X237294Y393136D01*
X237230Y393230D01*
X236436Y393761D01*
X235500Y393947D01*
X234647Y393777D01*
X234449Y393994D01*
X234353Y394190D01*
X241667Y401504D01*
X242064Y401239D01*
X243000Y401053D01*
X243936Y401239D01*
X244730Y401770D01*
X245261Y402564D01*
X245447Y403500D01*
X245261Y404436D01*
X244904Y404971D01*
X245171Y405471D01*
X245658D01*
X245739Y405064D01*
X246270Y404270D01*
X247064Y403739D01*
X248000Y403553D01*
X248936Y403739D01*
X249730Y404270D01*
X250261Y405064D01*
X250447Y406000D01*
X250261Y406936D01*
X250130Y407132D01*
X250422Y407595D01*
X250640Y407562D01*
X250739Y407064D01*
X251270Y406270D01*
X252064Y405739D01*
X253000Y405553D01*
X253936Y405739D01*
X254730Y406270D01*
X255261Y407064D01*
X255447Y408000D01*
X255261Y408936D01*
X254730Y409730D01*
X254371Y409971D01*
X254522Y410471D01*
X261866D01*
X267971Y404366D01*
Y355000D01*
X268087Y354415D01*
X268419Y353919D01*
X282919Y339419D01*
X283415Y339087D01*
X284000Y338971D01*
X284969D01*
X285007Y338963D01*
X285047Y338952D01*
X285084Y338938D01*
X285120Y338922D01*
X285155Y338902D01*
X285192Y338876D01*
X285207Y338864D01*
X285270Y338770D01*
X286064Y338239D01*
X287000Y338053D01*
X287936Y338239D01*
X288730Y338770D01*
X289261Y339564D01*
X289447Y340500D01*
X289261Y341436D01*
X288730Y342230D01*
X287936Y342761D01*
X287000Y342947D01*
X286064Y342761D01*
X285270Y342230D01*
X285207Y342136D01*
X285192Y342124D01*
X285155Y342098D01*
X285120Y342078D01*
X285084Y342061D01*
X285047Y342048D01*
X285007Y342037D01*
X284969Y342029D01*
X284633D01*
X271029Y355633D01*
Y405000D01*
X270913Y405585D01*
X270581Y406081D01*
X263581Y413081D01*
X263085Y413413D01*
X262500Y413529D01*
X164996D01*
X164919Y413535D01*
X164788Y413551D01*
X164717Y413565D01*
X164690Y413600D01*
X163783Y414297D01*
X162725Y414735D01*
X161591Y414884D01*
X160409D01*
X159275Y414735D01*
X158218Y414297D01*
X157309Y413600D01*
X156613Y412692D01*
X156529Y412491D01*
X156029Y412590D01*
Y418410D01*
X156529Y418509D01*
X156613Y418308D01*
X157309Y417400D01*
X158218Y416703D01*
X159275Y416265D01*
X160409Y416116D01*
X161591D01*
X162725Y416265D01*
X163783Y416703D01*
X164690Y417400D01*
X165387Y418308D01*
X165410Y418364D01*
X165913Y418424D01*
X169419Y414919D01*
X169915Y414587D01*
X170500Y414471D01*
X266866D01*
X284471Y396866D01*
Y392022D01*
X283971Y391871D01*
X283730Y392230D01*
X282936Y392761D01*
X282500Y392848D01*
Y390500D01*
Y388152D01*
X282936Y388239D01*
X283730Y388770D01*
X283971Y389129D01*
X284471Y388978D01*
Y348699D01*
X283770Y348230D01*
X283239Y347436D01*
X283053Y346500D01*
X283239Y345564D01*
X283770Y344770D01*
X284564Y344239D01*
X285500Y344053D01*
X286436Y344239D01*
X287230Y344770D01*
X287761Y345564D01*
X287947Y346500D01*
X287761Y347436D01*
X287676Y347564D01*
X287669Y347580D01*
X287604Y347760D01*
X287587Y347819D01*
X287546Y348001D01*
X287538Y348060D01*
X287529Y348154D01*
Y397500D01*
X287413Y398085D01*
X287081Y398581D01*
X268581Y417081D01*
X268085Y417413D01*
X267500Y417529D01*
X237877D01*
X237829Y417592D01*
X237692Y418029D01*
X250133Y430471D01*
X261969D01*
X262007Y430463D01*
X262047Y430452D01*
X262084Y430439D01*
X262120Y430422D01*
X262155Y430402D01*
X262192Y430376D01*
X262207Y430364D01*
X262270Y430270D01*
X263064Y429739D01*
X264000Y429553D01*
X264936Y429739D01*
X265730Y430270D01*
X266261Y431064D01*
X266447Y432000D01*
X266261Y432936D01*
X265814Y433606D01*
X265917Y434023D01*
X265999Y434152D01*
X266436Y434239D01*
X267230Y434770D01*
X267761Y435564D01*
X267947Y436500D01*
X267761Y437436D01*
X267699Y437530D01*
X267934Y437971D01*
X273658D01*
X273739Y437564D01*
X274270Y436770D01*
X275064Y436239D01*
X276000Y436053D01*
X276936Y436239D01*
X277730Y436770D01*
X278261Y437564D01*
X278447Y438500D01*
X278261Y439436D01*
X277730Y440230D01*
X276936Y440761D01*
X276000Y440947D01*
X275641Y440876D01*
X275585Y440913D01*
X275000Y441029D01*
X218882D01*
X218712Y441529D01*
X219424Y442076D01*
X220081Y442932D01*
X220495Y443930D01*
X220635Y445000D01*
X220495Y446070D01*
X220081Y447068D01*
X219424Y447924D01*
X218568Y448581D01*
X217570Y448994D01*
X216500Y449135D01*
D02*
G37*
G36*
X371437Y437347D02*
X361563D01*
Y428653D01*
X371437D01*
Y437347D01*
D02*
G37*
G36*
X367091Y427384D02*
X365909D01*
X364775Y427235D01*
X363718Y426797D01*
X362809Y426100D01*
X362113Y425192D01*
X361675Y424135D01*
X361526Y423000D01*
X361675Y421865D01*
X362113Y420808D01*
X362809Y419900D01*
X363718Y419203D01*
X364775Y418765D01*
X365909Y418616D01*
X367091D01*
X368225Y418765D01*
X369283Y419203D01*
X370191Y419900D01*
X370887Y420808D01*
X371325Y421865D01*
X371475Y423000D01*
X371325Y424135D01*
X370887Y425192D01*
X370191Y426100D01*
X369283Y426797D01*
X368225Y427235D01*
X367091Y427384D01*
D02*
G37*
G36*
Y417384D02*
X365909D01*
X364775Y417235D01*
X363718Y416797D01*
X362809Y416100D01*
X362113Y415192D01*
X361675Y414135D01*
X361526Y413000D01*
X361675Y411865D01*
X362113Y410808D01*
X362809Y409900D01*
X363718Y409203D01*
X364775Y408765D01*
X365909Y408616D01*
X367091D01*
X368225Y408765D01*
X369283Y409203D01*
X370191Y409900D01*
X370887Y410808D01*
X371325Y411865D01*
X371475Y413000D01*
X371325Y414135D01*
X370887Y415192D01*
X370191Y416100D01*
X369283Y416797D01*
X368225Y417235D01*
X367091Y417384D01*
D02*
G37*
G36*
Y407384D02*
X365909D01*
X364775Y407235D01*
X363718Y406797D01*
X362809Y406100D01*
X362113Y405192D01*
X361675Y404135D01*
X361526Y403000D01*
X361675Y401865D01*
X362113Y400808D01*
X362809Y399900D01*
X363718Y399203D01*
X364775Y398765D01*
X365909Y398616D01*
X367091D01*
X368225Y398765D01*
X369283Y399203D01*
X370191Y399900D01*
X370887Y400808D01*
X371325Y401865D01*
X371475Y403000D01*
X371325Y404135D01*
X370887Y405192D01*
X370191Y406100D01*
X369283Y406797D01*
X368225Y407235D01*
X367091Y407384D01*
D02*
G37*
G36*
X274500Y393848D02*
Y392000D01*
X276348D01*
X276261Y392436D01*
X275730Y393230D01*
X274936Y393761D01*
X274500Y393848D01*
D02*
G37*
G36*
X273500D02*
X273064Y393761D01*
X272270Y393230D01*
X271739Y392436D01*
X271652Y392000D01*
X273500D01*
Y393848D01*
D02*
G37*
G36*
X281500Y392848D02*
X281064Y392761D01*
X280270Y392230D01*
X279739Y391436D01*
X279652Y391000D01*
X281500D01*
Y392848D01*
D02*
G37*
G36*
X276348Y391000D02*
X274500D01*
Y389152D01*
X274936Y389239D01*
X275730Y389770D01*
X276261Y390564D01*
X276348Y391000D01*
D02*
G37*
G36*
X273500D02*
X271652D01*
X271739Y390564D01*
X272270Y389770D01*
X273064Y389239D01*
X273500Y389152D01*
Y391000D01*
D02*
G37*
G36*
X367091Y397384D02*
X365909D01*
X364775Y397235D01*
X363718Y396797D01*
X362809Y396100D01*
X362113Y395192D01*
X361675Y394135D01*
X361526Y393000D01*
X361675Y391865D01*
X362113Y390808D01*
X362809Y389900D01*
X363718Y389203D01*
X364775Y388765D01*
X365909Y388616D01*
X367091D01*
X368225Y388765D01*
X369283Y389203D01*
X370191Y389900D01*
X370887Y390808D01*
X371325Y391865D01*
X371475Y393000D01*
X371325Y394135D01*
X370887Y395192D01*
X370191Y396100D01*
X369283Y396797D01*
X368225Y397235D01*
X367091Y397384D01*
D02*
G37*
G36*
X281500Y390000D02*
X279652D01*
X279739Y389564D01*
X280270Y388770D01*
X281064Y388239D01*
X281500Y388152D01*
Y390000D01*
D02*
G37*
G36*
X367091Y387384D02*
X365909D01*
X364775Y387235D01*
X363718Y386797D01*
X362809Y386100D01*
X362113Y385192D01*
X361675Y384135D01*
X361526Y383000D01*
X361675Y381865D01*
X362113Y380808D01*
X362809Y379900D01*
X363718Y379203D01*
X364775Y378765D01*
X365909Y378616D01*
X367091D01*
X368225Y378765D01*
X369283Y379203D01*
X370191Y379900D01*
X370887Y380808D01*
X371325Y381865D01*
X371475Y383000D01*
X371325Y384135D01*
X370887Y385192D01*
X370191Y386100D01*
X369283Y386797D01*
X368225Y387235D01*
X367091Y387384D01*
D02*
G37*
G36*
Y377384D02*
X365909D01*
X364775Y377235D01*
X363718Y376797D01*
X362809Y376100D01*
X362113Y375192D01*
X361675Y374135D01*
X361526Y373000D01*
X361675Y371865D01*
X362113Y370808D01*
X362809Y369900D01*
X363718Y369203D01*
X364775Y368765D01*
X365909Y368616D01*
X367091D01*
X368225Y368765D01*
X369283Y369203D01*
X370191Y369900D01*
X370887Y370808D01*
X371325Y371865D01*
X371475Y373000D01*
X371325Y374135D01*
X370887Y375192D01*
X370191Y376100D01*
X369283Y376797D01*
X368225Y377235D01*
X367091Y377384D01*
D02*
G37*
G36*
X205000Y376635D02*
X203930Y376495D01*
X202932Y376081D01*
X202076Y375424D01*
X201419Y374568D01*
X201006Y373570D01*
X200865Y372500D01*
X201006Y371430D01*
X201419Y370432D01*
X202076Y369576D01*
X202932Y368919D01*
X203930Y368506D01*
X205000Y368365D01*
X206070Y368506D01*
X207068Y368919D01*
X207924Y369576D01*
X208581Y370432D01*
X208995Y371430D01*
X209135Y372500D01*
X208995Y373570D01*
X208581Y374568D01*
X207924Y375424D01*
X207068Y376081D01*
X206070Y376495D01*
X205000Y376635D01*
D02*
G37*
G36*
X196000D02*
X194930Y376495D01*
X193932Y376081D01*
X193076Y375424D01*
X192419Y374568D01*
X192006Y373570D01*
X191865Y372500D01*
X192006Y371430D01*
X192419Y370432D01*
X193076Y369576D01*
X193932Y368919D01*
X194930Y368506D01*
X196000Y368365D01*
X197070Y368506D01*
X198068Y368919D01*
X198924Y369576D01*
X199581Y370432D01*
X199995Y371430D01*
X200135Y372500D01*
X199995Y373570D01*
X199581Y374568D01*
X198924Y375424D01*
X198068Y376081D01*
X197070Y376495D01*
X196000Y376635D01*
D02*
G37*
G36*
X292500Y387447D02*
X291564Y387261D01*
X290770Y386730D01*
X290239Y385936D01*
X290053Y385000D01*
X290239Y384064D01*
X290770Y383270D01*
X291564Y382739D01*
X292500Y382553D01*
X293436Y382739D01*
X294230Y383270D01*
X294293Y383364D01*
X294308Y383376D01*
X294345Y383402D01*
X294380Y383422D01*
X294416Y383438D01*
X294453Y383452D01*
X294493Y383463D01*
X294531Y383471D01*
X313367D01*
X317971Y378867D01*
Y364199D01*
X317270Y363730D01*
X316739Y362936D01*
X316553Y362000D01*
X316739Y361064D01*
X317270Y360270D01*
X318064Y359739D01*
X319000Y359553D01*
X319936Y359739D01*
X320730Y360270D01*
X321261Y361064D01*
X321447Y362000D01*
X321261Y362936D01*
X321176Y363064D01*
X321169Y363080D01*
X321104Y363260D01*
X321087Y363319D01*
X321046Y363500D01*
X321038Y363560D01*
X321029Y363654D01*
Y379500D01*
X320913Y380085D01*
X320581Y380581D01*
X315081Y386081D01*
X314585Y386413D01*
X314000Y386529D01*
X294531D01*
X294493Y386537D01*
X294453Y386548D01*
X294416Y386561D01*
X294380Y386578D01*
X294345Y386598D01*
X294308Y386624D01*
X294293Y386636D01*
X294230Y386730D01*
X293436Y387261D01*
X292500Y387447D01*
D02*
G37*
G36*
X367091Y367384D02*
X365909D01*
X364775Y367235D01*
X363718Y366797D01*
X362809Y366100D01*
X362113Y365192D01*
X361675Y364135D01*
X361526Y363000D01*
X361675Y361865D01*
X362113Y360808D01*
X362809Y359900D01*
X363718Y359203D01*
X364775Y358765D01*
X365909Y358616D01*
X367091D01*
X368225Y358765D01*
X369283Y359203D01*
X370191Y359900D01*
X370887Y360808D01*
X371325Y361865D01*
X371475Y363000D01*
X371325Y364135D01*
X370887Y365192D01*
X370191Y366100D01*
X369283Y366797D01*
X368225Y367235D01*
X367091Y367384D01*
D02*
G37*
G36*
X298500Y341447D02*
X297564Y341261D01*
X296770Y340730D01*
X296239Y339936D01*
X296053Y339000D01*
X296075Y338888D01*
X296073Y338870D01*
X296065Y338826D01*
X296055Y338786D01*
X296041Y338750D01*
X296025Y338714D01*
X296004Y338678D01*
X295983Y338645D01*
X284862Y327525D01*
X284402Y327772D01*
X284447Y328000D01*
X284261Y328936D01*
X283730Y329730D01*
X282936Y330261D01*
X282000Y330447D01*
X281064Y330261D01*
X280270Y329730D01*
X280206Y329636D01*
X280192Y329624D01*
X280155Y329598D01*
X280120Y329578D01*
X280084Y329561D01*
X280047Y329548D01*
X280007Y329537D01*
X279969Y329529D01*
X247580D01*
X247552Y329532D01*
X247463Y329544D01*
X247395Y329558D01*
X247351Y329572D01*
X247340Y329576D01*
X247335Y329583D01*
X247277Y329631D01*
X246996Y329996D01*
X246265Y330557D01*
X245414Y330910D01*
X244500Y331030D01*
X243586Y330910D01*
X242735Y330557D01*
X242004Y329996D01*
X241443Y329265D01*
X241090Y328414D01*
X240970Y327500D01*
X241090Y326586D01*
X241443Y325735D01*
X242004Y325004D01*
X242735Y324443D01*
X243586Y324090D01*
X244500Y323970D01*
X245414Y324090D01*
X246265Y324443D01*
X246996Y325004D01*
X247557Y325735D01*
X247862Y326471D01*
X279969D01*
X280007Y326463D01*
X280047Y326452D01*
X280084Y326438D01*
X280120Y326422D01*
X280155Y326402D01*
X280192Y326376D01*
X280206Y326364D01*
X280270Y326270D01*
X281064Y325739D01*
X282000Y325553D01*
X282228Y325598D01*
X282475Y325138D01*
X280366Y323029D01*
X200031D01*
X199993Y323037D01*
X199953Y323048D01*
X199916Y323061D01*
X199880Y323078D01*
X199845Y323098D01*
X199808Y323124D01*
X199794Y323136D01*
X199730Y323230D01*
X198936Y323761D01*
X198000Y323947D01*
X197064Y323761D01*
X196270Y323230D01*
X195739Y322436D01*
X195553Y321500D01*
X195739Y320564D01*
X196270Y319770D01*
X197064Y319239D01*
X198000Y319053D01*
X198936Y319239D01*
X199730Y319770D01*
X199794Y319864D01*
X199808Y319876D01*
X199845Y319902D01*
X199880Y319922D01*
X199916Y319938D01*
X199953Y319952D01*
X199993Y319963D01*
X200031Y319971D01*
X281000D01*
X281585Y320087D01*
X282081Y320419D01*
X298145Y336483D01*
X298178Y336504D01*
X298214Y336525D01*
X298250Y336541D01*
X298286Y336555D01*
X298326Y336565D01*
X298370Y336573D01*
X298388Y336575D01*
X298500Y336553D01*
X299436Y336739D01*
X300230Y337270D01*
X300761Y338064D01*
X300947Y339000D01*
X300761Y339936D01*
X300230Y340730D01*
X299436Y341261D01*
X298500Y341447D01*
D02*
G37*
G36*
X240500Y338530D02*
X239586Y338410D01*
X238735Y338057D01*
X238004Y337496D01*
X237443Y336765D01*
X237090Y335914D01*
X236970Y335000D01*
X237090Y334086D01*
X237443Y333235D01*
X238004Y332504D01*
X238735Y331943D01*
X239586Y331590D01*
X240500Y331470D01*
X241414Y331590D01*
X242265Y331943D01*
X242996Y332504D01*
X243557Y333235D01*
X243648Y333453D01*
X243659Y333456D01*
X243731Y333468D01*
X243761Y333471D01*
X283969D01*
X284007Y333463D01*
X284047Y333452D01*
X284084Y333438D01*
X284120Y333422D01*
X284155Y333402D01*
X284192Y333376D01*
X284207Y333364D01*
X284270Y333270D01*
X285064Y332739D01*
X286000Y332553D01*
X286936Y332739D01*
X287730Y333270D01*
X288261Y334064D01*
X288447Y335000D01*
X288261Y335936D01*
X287730Y336730D01*
X286936Y337261D01*
X286000Y337447D01*
X285064Y337261D01*
X284270Y336730D01*
X284207Y336636D01*
X284192Y336624D01*
X284155Y336598D01*
X284120Y336578D01*
X284084Y336561D01*
X284047Y336548D01*
X284007Y336537D01*
X283969Y336529D01*
X243761D01*
X243731Y336532D01*
X243659Y336544D01*
X243648Y336547D01*
X243557Y336765D01*
X242996Y337496D01*
X242265Y338057D01*
X241414Y338410D01*
X240500Y338530D01*
D02*
G37*
G36*
X287500Y323447D02*
X286564Y323261D01*
X285770Y322730D01*
X285239Y321936D01*
X285053Y321000D01*
X285075Y320888D01*
X285073Y320869D01*
X285065Y320826D01*
X285054Y320786D01*
X285041Y320749D01*
X285025Y320714D01*
X285004Y320677D01*
X284982Y320645D01*
X282867Y318529D01*
X274531D01*
X274493Y318537D01*
X274453Y318548D01*
X274416Y318562D01*
X274380Y318578D01*
X274345Y318598D01*
X274308Y318624D01*
X274293Y318636D01*
X274230Y318730D01*
X273436Y319261D01*
X272500Y319447D01*
X271564Y319261D01*
X270770Y318730D01*
X270239Y317936D01*
X270053Y317000D01*
X270239Y316064D01*
X270770Y315270D01*
X271564Y314739D01*
X272500Y314553D01*
X273436Y314739D01*
X274230Y315270D01*
X274293Y315364D01*
X274308Y315376D01*
X274345Y315402D01*
X274380Y315422D01*
X274416Y315439D01*
X274453Y315452D01*
X274493Y315463D01*
X274531Y315471D01*
X283500D01*
X284085Y315587D01*
X284581Y315919D01*
X287145Y318482D01*
X287177Y318504D01*
X287214Y318525D01*
X287249Y318541D01*
X287286Y318554D01*
X287326Y318565D01*
X287369Y318573D01*
X287388Y318575D01*
X287500Y318553D01*
X288436Y318739D01*
X289230Y319270D01*
X289761Y320064D01*
X289947Y321000D01*
X289761Y321936D01*
X289230Y322730D01*
X288436Y323261D01*
X287500Y323447D01*
D02*
G37*
G36*
X159000Y305223D02*
Y302000D01*
X162223D01*
X162159Y302481D01*
X161781Y303394D01*
X161179Y304179D01*
X160394Y304781D01*
X159481Y305159D01*
X159000Y305223D01*
D02*
G37*
G36*
X284500Y447447D02*
X283564Y447261D01*
X282770Y446730D01*
X282239Y445936D01*
X282053Y445000D01*
X282239Y444064D01*
X282770Y443270D01*
X283564Y442739D01*
X284500Y442553D01*
X285436Y442739D01*
X286230Y443270D01*
X286294Y443364D01*
X286308Y443376D01*
X286345Y443402D01*
X286380Y443422D01*
X286416Y443438D01*
X286453Y443452D01*
X286493Y443463D01*
X286531Y443471D01*
X291566D01*
X291802Y443030D01*
X291739Y442936D01*
X291553Y442000D01*
X291739Y441064D01*
X292270Y440270D01*
X293064Y439739D01*
X294000Y439553D01*
X294936Y439739D01*
X295730Y440270D01*
X295794Y440364D01*
X295808Y440376D01*
X295845Y440402D01*
X295880Y440422D01*
X295916Y440439D01*
X295953Y440452D01*
X295993Y440463D01*
X296031Y440471D01*
X329867D01*
X341971Y428367D01*
Y301133D01*
X333243Y292405D01*
X327155D01*
X327117Y292413D01*
X327077Y292424D01*
X327040Y292438D01*
X327004Y292454D01*
X326969Y292474D01*
X326932Y292500D01*
X326918Y292512D01*
X326854Y292606D01*
X326060Y293137D01*
X325124Y293323D01*
X324188Y293137D01*
X323394Y292606D01*
X322863Y291812D01*
X322677Y290876D01*
X322863Y289940D01*
X323394Y289146D01*
X324188Y288615D01*
X325124Y288429D01*
X326060Y288615D01*
X326854Y289146D01*
X326918Y289240D01*
X326932Y289252D01*
X326969Y289278D01*
X327004Y289298D01*
X327040Y289315D01*
X327077Y289328D01*
X327117Y289339D01*
X327155Y289347D01*
X333876D01*
X334461Y289463D01*
X334957Y289795D01*
X344581Y299419D01*
X344913Y299915D01*
X345029Y300500D01*
Y429000D01*
X344913Y429585D01*
X344581Y430081D01*
X331692Y442971D01*
X331829Y443408D01*
X331877Y443471D01*
X332366D01*
X345971Y429867D01*
Y297634D01*
X327366Y279029D01*
X280877D01*
X280829Y279092D01*
X280692Y279529D01*
X337471Y336308D01*
X337908Y336171D01*
X337971Y336123D01*
Y303633D01*
X333366Y299029D01*
X327531D01*
X327493Y299037D01*
X327453Y299048D01*
X327416Y299061D01*
X327380Y299078D01*
X327345Y299098D01*
X327308Y299124D01*
X327293Y299136D01*
X327230Y299230D01*
X326436Y299761D01*
X325500Y299947D01*
X324564Y299761D01*
X323770Y299230D01*
X323239Y298436D01*
X323053Y297500D01*
X323239Y296564D01*
X323770Y295770D01*
X324564Y295239D01*
X325500Y295053D01*
X326436Y295239D01*
X327230Y295770D01*
X327293Y295864D01*
X327308Y295876D01*
X327345Y295902D01*
X327380Y295922D01*
X327416Y295938D01*
X327453Y295952D01*
X327493Y295963D01*
X327531Y295971D01*
X334000D01*
X334585Y296087D01*
X335081Y296419D01*
X340581Y301919D01*
X340913Y302415D01*
X341029Y303000D01*
Y425000D01*
X340913Y425585D01*
X340581Y426081D01*
X329581Y437081D01*
X329085Y437413D01*
X328500Y437529D01*
X301031D01*
X300993Y437537D01*
X300953Y437548D01*
X300916Y437562D01*
X300880Y437578D01*
X300845Y437598D01*
X300808Y437624D01*
X300794Y437636D01*
X300730Y437730D01*
X299936Y438261D01*
X299000Y438447D01*
X298064Y438261D01*
X297270Y437730D01*
X296739Y436936D01*
X296553Y436000D01*
X296739Y435064D01*
X297270Y434270D01*
X298064Y433739D01*
X298938Y433565D01*
X298941Y433563D01*
X299082Y433319D01*
X299167Y433076D01*
X298739Y432436D01*
X298553Y431500D01*
X298739Y430564D01*
X299270Y429770D01*
X300064Y429239D01*
X301000Y429053D01*
X301282Y429109D01*
X301615Y428887D01*
X302200Y428771D01*
X304907D01*
X305206Y428271D01*
X305053Y427500D01*
X305239Y426564D01*
X305770Y425770D01*
X306564Y425239D01*
X307500Y425053D01*
X308436Y425239D01*
X309230Y425770D01*
X309294Y425864D01*
X309308Y425876D01*
X309345Y425902D01*
X309380Y425922D01*
X309416Y425939D01*
X309453Y425952D01*
X309493Y425963D01*
X309531Y425971D01*
X324366D01*
X331471Y418866D01*
Y340634D01*
X283867Y293029D01*
X162785D01*
X162710Y293045D01*
X162594Y293082D01*
X162453Y293144D01*
X162289Y293234D01*
X162103Y293354D01*
X161910Y293497D01*
X161436Y293907D01*
X161236Y294104D01*
X161179Y294179D01*
X160394Y294781D01*
X159481Y295159D01*
X158500Y295288D01*
X157519Y295159D01*
X156606Y294781D01*
X155821Y294179D01*
X155219Y293394D01*
X154841Y292480D01*
X154712Y291500D01*
X154841Y290519D01*
X155219Y289606D01*
X155821Y288821D01*
X156606Y288219D01*
X157519Y287841D01*
X158500Y287712D01*
X159481Y287841D01*
X160394Y288219D01*
X161179Y288821D01*
X161230Y288888D01*
X161688Y289321D01*
X161900Y289496D01*
X162103Y289646D01*
X162289Y289766D01*
X162453Y289856D01*
X162594Y289918D01*
X162710Y289955D01*
X162785Y289971D01*
X284500D01*
X285085Y290087D01*
X285581Y290419D01*
X334081Y338919D01*
X334413Y339415D01*
X334471Y339704D01*
X334971Y339655D01*
Y338134D01*
X278867Y282029D01*
X259500D01*
X258915Y281913D01*
X258419Y281581D01*
X252419Y275581D01*
X252087Y275085D01*
X251971Y274500D01*
Y241133D01*
X223855Y213018D01*
X223822Y212996D01*
X223786Y212975D01*
X223750Y212959D01*
X223714Y212946D01*
X223674Y212935D01*
X223630Y212927D01*
X223612Y212925D01*
X223500Y212947D01*
X222564Y212761D01*
X221770Y212230D01*
X221239Y211436D01*
X221053Y210500D01*
X221239Y209564D01*
X221770Y208770D01*
X222564Y208239D01*
X223500Y208053D01*
X224436Y208239D01*
X225230Y208770D01*
X225761Y209564D01*
X225947Y210500D01*
X225925Y210612D01*
X225927Y210630D01*
X225935Y210674D01*
X225945Y210714D01*
X225959Y210751D01*
X225975Y210786D01*
X225996Y210823D01*
X226017Y210855D01*
X227471Y212308D01*
X227971Y212101D01*
Y206031D01*
X227963Y205993D01*
X227952Y205953D01*
X227939Y205916D01*
X227922Y205880D01*
X227902Y205845D01*
X227876Y205808D01*
X227864Y205793D01*
X227770Y205730D01*
X227239Y204936D01*
X227053Y204000D01*
X227239Y203064D01*
X227770Y202270D01*
X228564Y201739D01*
X229500Y201553D01*
X230436Y201739D01*
X231230Y202270D01*
X231761Y203064D01*
X231947Y204000D01*
X231761Y204936D01*
X231230Y205730D01*
X231136Y205793D01*
X231124Y205808D01*
X231098Y205845D01*
X231078Y205880D01*
X231062Y205916D01*
X231048Y205953D01*
X231037Y205993D01*
X231029Y206031D01*
Y211866D01*
X233464Y214301D01*
X233852Y213982D01*
X233587Y213585D01*
X233471Y213000D01*
Y212864D01*
X233270Y212730D01*
X232739Y211936D01*
X232553Y211000D01*
X232739Y210064D01*
X233270Y209270D01*
X234064Y208739D01*
X235000Y208553D01*
X235936Y208739D01*
X236730Y209270D01*
X237261Y210064D01*
X237447Y211000D01*
X237261Y211936D01*
X236795Y212633D01*
X261581Y237419D01*
X261913Y237915D01*
X262029Y238500D01*
Y259469D01*
X262037Y259507D01*
X262048Y259547D01*
X262062Y259584D01*
X262078Y259620D01*
X262098Y259655D01*
X262124Y259692D01*
X262136Y259706D01*
X262230Y259770D01*
X262761Y260564D01*
X262947Y261500D01*
X262761Y262436D01*
X262230Y263230D01*
X261436Y263761D01*
X260500Y263947D01*
X259564Y263761D01*
X259029Y263404D01*
X258529Y263671D01*
Y270367D01*
X264134Y275971D01*
X328000D01*
X328585Y276087D01*
X329081Y276419D01*
X348581Y295919D01*
X348913Y296415D01*
X348971Y296705D01*
X349471Y296655D01*
Y293634D01*
X330366Y274529D01*
X325031D01*
X324993Y274537D01*
X324953Y274548D01*
X324916Y274562D01*
X324880Y274578D01*
X324845Y274598D01*
X324808Y274624D01*
X324794Y274636D01*
X324730Y274730D01*
X323936Y275261D01*
X323000Y275447D01*
X322064Y275261D01*
X321270Y274730D01*
X320739Y273936D01*
X320553Y273000D01*
X320739Y272064D01*
X321270Y271270D01*
X322064Y270739D01*
X323000Y270553D01*
X323936Y270739D01*
X324730Y271270D01*
X324794Y271364D01*
X324808Y271376D01*
X324845Y271402D01*
X324880Y271422D01*
X324916Y271439D01*
X324953Y271452D01*
X324993Y271463D01*
X325031Y271471D01*
X331000D01*
X331585Y271587D01*
X332081Y271919D01*
X352081Y291919D01*
X352413Y292415D01*
X352529Y293000D01*
Y301633D01*
X353029Y301732D01*
X353274Y301143D01*
X353749Y300523D01*
X354369Y300047D01*
X355092Y299748D01*
X355867Y299646D01*
X356641Y299748D01*
X357364Y300047D01*
X357984Y300523D01*
X358459Y301143D01*
X358759Y301865D01*
X358861Y302640D01*
X358759Y303415D01*
X358459Y304137D01*
X357984Y304757D01*
X357364Y305233D01*
X356641Y305532D01*
X355867Y305634D01*
X355092Y305532D01*
X354369Y305233D01*
X353749Y304757D01*
X353274Y304137D01*
X353029Y303548D01*
X352529Y303647D01*
Y400969D01*
X352537Y401007D01*
X352548Y401047D01*
X352561Y401084D01*
X352578Y401120D01*
X352598Y401155D01*
X352624Y401192D01*
X352636Y401206D01*
X352730Y401270D01*
X353261Y402064D01*
X353447Y403000D01*
X353261Y403936D01*
X352730Y404730D01*
X351936Y405261D01*
X351000Y405447D01*
X350064Y405261D01*
X349529Y404904D01*
X349029Y405171D01*
Y430500D01*
X348913Y431085D01*
X348581Y431581D01*
X334081Y446081D01*
X333585Y446413D01*
X333000Y446529D01*
X286531D01*
X286493Y446537D01*
X286453Y446548D01*
X286416Y446561D01*
X286380Y446578D01*
X286345Y446598D01*
X286308Y446624D01*
X286294Y446636D01*
X286230Y446730D01*
X285436Y447261D01*
X284500Y447447D01*
D02*
G37*
G36*
X162223Y301000D02*
X159000D01*
Y297778D01*
X159481Y297841D01*
X160394Y298219D01*
X161179Y298821D01*
X161781Y299606D01*
X162159Y300519D01*
X162223Y301000D01*
D02*
G37*
G36*
X250000Y288947D02*
X249064Y288761D01*
X248270Y288230D01*
X248206Y288136D01*
X248192Y288124D01*
X248155Y288098D01*
X248120Y288078D01*
X248084Y288061D01*
X248047Y288048D01*
X248007Y288037D01*
X247969Y288029D01*
X190531D01*
X190493Y288037D01*
X190453Y288048D01*
X190416Y288061D01*
X190380Y288078D01*
X190345Y288098D01*
X190308Y288124D01*
X190294Y288136D01*
X190230Y288230D01*
X189436Y288761D01*
X188500Y288947D01*
X187564Y288761D01*
X186770Y288230D01*
X186239Y287436D01*
X186053Y286500D01*
X186239Y285564D01*
X186770Y284770D01*
X187564Y284239D01*
X188500Y284053D01*
X189436Y284239D01*
X190230Y284770D01*
X190294Y284864D01*
X190308Y284876D01*
X190345Y284902D01*
X190380Y284922D01*
X190416Y284939D01*
X190453Y284952D01*
X190493Y284963D01*
X190531Y284971D01*
X247969D01*
X248007Y284963D01*
X248047Y284952D01*
X248084Y284939D01*
X248120Y284922D01*
X248155Y284902D01*
X248192Y284876D01*
X248206Y284864D01*
X248270Y284770D01*
X249064Y284239D01*
X250000Y284053D01*
X250936Y284239D01*
X251730Y284770D01*
X252261Y285564D01*
X252447Y286500D01*
X252261Y287436D01*
X251730Y288230D01*
X250936Y288761D01*
X250000Y288947D01*
D02*
G37*
G36*
X149756Y285256D02*
X146500D01*
Y282000D01*
X149756D01*
Y285256D01*
D02*
G37*
G36*
X145500D02*
X142244D01*
Y282000D01*
X145500D01*
Y285256D01*
D02*
G37*
G36*
X149756Y281000D02*
X146500D01*
Y277744D01*
X149756D01*
Y281000D01*
D02*
G37*
G36*
X145500D02*
X142244D01*
Y277744D01*
X145500D01*
Y281000D01*
D02*
G37*
G36*
X355876Y274144D02*
X355102Y274042D01*
X354379Y273743D01*
X353759Y273267D01*
X353284Y272647D01*
X352984Y271925D01*
X352882Y271150D01*
X352984Y270375D01*
X353284Y269653D01*
X353759Y269033D01*
X354379Y268557D01*
X355102Y268258D01*
X355876Y268156D01*
X356651Y268258D01*
X357374Y268557D01*
X357994Y269033D01*
X358470Y269653D01*
X358769Y270375D01*
X358871Y271150D01*
X358769Y271925D01*
X358470Y272647D01*
X357994Y273267D01*
X357374Y273743D01*
X356651Y274042D01*
X355876Y274144D01*
D02*
G37*
G36*
X295500Y270447D02*
X294564Y270261D01*
X293770Y269730D01*
X293239Y268936D01*
X293059Y268029D01*
X274531D01*
X274493Y268037D01*
X274453Y268048D01*
X274416Y268061D01*
X274380Y268078D01*
X274345Y268098D01*
X274308Y268124D01*
X274293Y268136D01*
X274230Y268230D01*
X273436Y268761D01*
X272500Y268947D01*
X271564Y268761D01*
X270770Y268230D01*
X270239Y267436D01*
X270053Y266500D01*
X270239Y265564D01*
X270770Y264770D01*
X271564Y264239D01*
X272500Y264053D01*
X273436Y264239D01*
X274230Y264770D01*
X274293Y264864D01*
X274308Y264876D01*
X274345Y264902D01*
X274380Y264922D01*
X274416Y264938D01*
X274453Y264952D01*
X274493Y264963D01*
X274531Y264971D01*
X294000D01*
X294585Y265087D01*
X295081Y265419D01*
X295209Y265546D01*
X295249Y265577D01*
X295280Y265597D01*
X295500Y265553D01*
X296436Y265739D01*
X297230Y266270D01*
X297761Y267064D01*
X297947Y268000D01*
X297761Y268936D01*
X297230Y269730D01*
X296436Y270261D01*
X295500Y270447D01*
D02*
G37*
G36*
X211685Y262709D02*
Y258295D01*
X216099D01*
X215995Y259084D01*
X215498Y260285D01*
X214706Y261316D01*
X213675Y262107D01*
X212474Y262605D01*
X211685Y262709D01*
D02*
G37*
G36*
X210685D02*
X209896Y262605D01*
X208696Y262107D01*
X207664Y261316D01*
X206873Y260285D01*
X206375Y259084D01*
X206272Y258295D01*
X210685D01*
Y262709D01*
D02*
G37*
G36*
X159500Y259223D02*
Y256000D01*
X162723D01*
X162659Y256481D01*
X162281Y257394D01*
X161679Y258179D01*
X160894Y258781D01*
X159980Y259159D01*
X159500Y259223D01*
D02*
G37*
G36*
X158500D02*
X158019Y259159D01*
X157106Y258781D01*
X156321Y258179D01*
X155719Y257394D01*
X155341Y256481D01*
X155278Y256000D01*
X158500D01*
Y259223D01*
D02*
G37*
G36*
X216099Y257295D02*
X211685D01*
Y252881D01*
X212474Y252985D01*
X213675Y253483D01*
X214706Y254274D01*
X215498Y255305D01*
X215995Y256506D01*
X216099Y257295D01*
D02*
G37*
G36*
X210685D02*
X206272D01*
X206375Y256506D01*
X206873Y255305D01*
X207664Y254274D01*
X208696Y253483D01*
X209896Y252985D01*
X210685Y252881D01*
Y257295D01*
D02*
G37*
G36*
X228901Y262775D02*
X227612Y262605D01*
X226412Y262107D01*
X225380Y261316D01*
X224589Y260285D01*
X224091Y259084D01*
X223922Y257795D01*
X224091Y256506D01*
X224589Y255305D01*
X225380Y254274D01*
X226412Y253483D01*
X227612Y252985D01*
X228901Y252815D01*
X230190Y252985D01*
X231391Y253483D01*
X232422Y254274D01*
X233214Y255305D01*
X233711Y256506D01*
X233881Y257795D01*
X233711Y259084D01*
X233214Y260285D01*
X232422Y261316D01*
X231391Y262107D01*
X230190Y262605D01*
X228901Y262775D01*
D02*
G37*
G36*
X162723Y255000D02*
X159500D01*
Y251778D01*
X159980Y251841D01*
X160894Y252219D01*
X161679Y252821D01*
X162281Y253606D01*
X162659Y254520D01*
X162723Y255000D01*
D02*
G37*
G36*
X158500D02*
X155278D01*
X155341Y254520D01*
X155719Y253606D01*
X156321Y252821D01*
X157106Y252219D01*
X158019Y251841D01*
X158500Y251778D01*
Y255000D01*
D02*
G37*
G36*
X171500Y259288D02*
X170519Y259159D01*
X169606Y258781D01*
X168821Y258179D01*
X168219Y257394D01*
X167841Y256481D01*
X167712Y255500D01*
X167841Y254520D01*
X168219Y253606D01*
X168821Y252821D01*
X169606Y252219D01*
X170519Y251841D01*
X171500Y251712D01*
X172480Y251841D01*
X173394Y252219D01*
X174179Y252821D01*
X174781Y253606D01*
X175159Y254520D01*
X175288Y255500D01*
X175159Y256481D01*
X174781Y257394D01*
X174179Y258179D01*
X173394Y258781D01*
X172480Y259159D01*
X171500Y259288D01*
D02*
G37*
G36*
X146000D02*
X145019Y259159D01*
X144106Y258781D01*
X143321Y258179D01*
X142719Y257394D01*
X142341Y256481D01*
X142212Y255500D01*
X142341Y254520D01*
X142719Y253606D01*
X143321Y252821D01*
X144106Y252219D01*
X145019Y251841D01*
X146000Y251712D01*
X146981Y251841D01*
X147894Y252219D01*
X148679Y252821D01*
X149281Y253606D01*
X149659Y254520D01*
X149788Y255500D01*
X149659Y256481D01*
X149281Y257394D01*
X148679Y258179D01*
X147894Y258781D01*
X146981Y259159D01*
X146000Y259288D01*
D02*
G37*
G36*
X159500Y249222D02*
Y246000D01*
X162723D01*
X162659Y246480D01*
X162281Y247394D01*
X161679Y248179D01*
X160894Y248781D01*
X159980Y249159D01*
X159500Y249222D01*
D02*
G37*
G36*
X158500D02*
X158019Y249159D01*
X157106Y248781D01*
X156321Y248179D01*
X155719Y247394D01*
X155341Y246480D01*
X155278Y246000D01*
X158500D01*
Y249222D01*
D02*
G37*
G36*
X162723Y245000D02*
X159500D01*
Y241777D01*
X159980Y241841D01*
X160894Y242219D01*
X161679Y242821D01*
X162281Y243606D01*
X162659Y244519D01*
X162723Y245000D01*
D02*
G37*
G36*
X158500D02*
X155278D01*
X155341Y244519D01*
X155719Y243606D01*
X156321Y242821D01*
X157106Y242219D01*
X158019Y241841D01*
X158500Y241777D01*
Y245000D01*
D02*
G37*
G36*
X171500Y249288D02*
X170519Y249159D01*
X169606Y248781D01*
X168821Y248179D01*
X168219Y247394D01*
X167841Y246480D01*
X167712Y245500D01*
X167841Y244519D01*
X168219Y243606D01*
X168821Y242821D01*
X169606Y242219D01*
X170519Y241841D01*
X171500Y241712D01*
X172480Y241841D01*
X173394Y242219D01*
X174179Y242821D01*
X174781Y243606D01*
X175159Y244519D01*
X175288Y245500D01*
X175159Y246480D01*
X174781Y247394D01*
X174179Y248179D01*
X173394Y248781D01*
X172480Y249159D01*
X171500Y249288D01*
D02*
G37*
G36*
X146000D02*
X145019Y249159D01*
X144106Y248781D01*
X143321Y248179D01*
X142719Y247394D01*
X142341Y246480D01*
X142212Y245500D01*
X142341Y244519D01*
X142719Y243606D01*
X143321Y242821D01*
X144106Y242219D01*
X145019Y241841D01*
X146000Y241712D01*
X146981Y241841D01*
X147894Y242219D01*
X148679Y242821D01*
X149281Y243606D01*
X149659Y244519D01*
X149788Y245500D01*
X149659Y246480D01*
X149281Y247394D01*
X148679Y248179D01*
X147894Y248781D01*
X146981Y249159D01*
X146000Y249288D01*
D02*
G37*
G36*
X320000Y240348D02*
Y238500D01*
X321848D01*
X321761Y238936D01*
X321230Y239730D01*
X320436Y240261D01*
X320000Y240348D01*
D02*
G37*
G36*
X159500Y239223D02*
Y236000D01*
X162723D01*
X162659Y236480D01*
X162281Y237394D01*
X161679Y238179D01*
X160894Y238781D01*
X159980Y239159D01*
X159500Y239223D01*
D02*
G37*
G36*
X158500D02*
X158019Y239159D01*
X157106Y238781D01*
X156321Y238179D01*
X155719Y237394D01*
X155341Y236480D01*
X155278Y236000D01*
X158500D01*
Y239223D01*
D02*
G37*
G36*
X321848Y237500D02*
X320000D01*
Y235652D01*
X320436Y235739D01*
X321230Y236270D01*
X321761Y237064D01*
X321848Y237500D01*
D02*
G37*
G36*
X319000Y240348D02*
X318564Y240261D01*
X317770Y239730D01*
X317706Y239636D01*
X317692Y239624D01*
X317655Y239598D01*
X317620Y239578D01*
X317584Y239562D01*
X317547Y239548D01*
X317507Y239537D01*
X317469Y239529D01*
X313000D01*
X312415Y239413D01*
X311919Y239081D01*
X308419Y235581D01*
X308087Y235085D01*
X307971Y234500D01*
Y210031D01*
X307963Y209993D01*
X307952Y209953D01*
X307939Y209916D01*
X307922Y209880D01*
X307902Y209845D01*
X307876Y209808D01*
X307864Y209793D01*
X307770Y209730D01*
X307579Y209445D01*
X307524Y209396D01*
X307477Y209333D01*
X307462Y209316D01*
X307451Y209306D01*
X307442Y209300D01*
X307434Y209295D01*
X307422Y209290D01*
X307403Y209284D01*
X307384Y209279D01*
X290750D01*
X290590Y209753D01*
X290679Y209821D01*
X291281Y210606D01*
X291659Y211520D01*
X291788Y212500D01*
X291659Y213480D01*
X291281Y214394D01*
X290679Y215179D01*
X289894Y215781D01*
X288981Y216159D01*
X288000Y216288D01*
X287019Y216159D01*
X286106Y215781D01*
X285321Y215179D01*
X284719Y214394D01*
X284341Y213480D01*
X284212Y212500D01*
X284341Y211520D01*
X284719Y210606D01*
X285321Y209821D01*
X285410Y209753D01*
X285250Y209279D01*
X281756D01*
Y216256D01*
X274244D01*
Y209279D01*
X244250D01*
X243665Y209163D01*
X243169Y208831D01*
X236500Y202163D01*
Y200967D01*
X236521Y200972D01*
X236638Y201015D01*
X236751Y201067D01*
X236860Y201129D01*
X236966Y201200D01*
X237067Y201281D01*
X237165Y201372D01*
X237872Y200665D01*
X237781Y200567D01*
X237700Y200466D01*
X237629Y200360D01*
X237567Y200251D01*
X237515Y200138D01*
X237472Y200021D01*
X237467Y200000D01*
X238663D01*
X244883Y206221D01*
X307620D01*
X307675Y206212D01*
X307736Y206199D01*
X307796Y206181D01*
X307856Y206160D01*
X307916Y206134D01*
X307977Y206103D01*
X308039Y206067D01*
X308126Y206009D01*
X308216Y205972D01*
X308564Y205739D01*
X309000Y205652D01*
Y208000D01*
X309500D01*
Y208500D01*
X311848D01*
X311761Y208936D01*
X311230Y209730D01*
X311136Y209793D01*
X311124Y209808D01*
X311098Y209845D01*
X311078Y209880D01*
X311062Y209916D01*
X311048Y209953D01*
X311037Y209993D01*
X311029Y210031D01*
Y233867D01*
X313633Y236471D01*
X317469D01*
X317507Y236463D01*
X317547Y236452D01*
X317584Y236438D01*
X317620Y236422D01*
X317655Y236402D01*
X317692Y236376D01*
X317706Y236364D01*
X317770Y236270D01*
X318564Y235739D01*
X319000Y235652D01*
Y238000D01*
Y240348D01*
D02*
G37*
G36*
X162723Y235000D02*
X159500D01*
Y231778D01*
X159980Y231841D01*
X160894Y232219D01*
X161679Y232821D01*
X162281Y233606D01*
X162659Y234520D01*
X162723Y235000D01*
D02*
G37*
G36*
X158500D02*
X155278D01*
X155341Y234520D01*
X155719Y233606D01*
X156321Y232821D01*
X157106Y232219D01*
X158019Y231841D01*
X158500Y231778D01*
Y235000D01*
D02*
G37*
G36*
X171500Y239288D02*
X170519Y239159D01*
X169606Y238781D01*
X168821Y238179D01*
X168219Y237394D01*
X167841Y236480D01*
X167712Y235500D01*
X167841Y234520D01*
X168219Y233606D01*
X168821Y232821D01*
X169606Y232219D01*
X170519Y231841D01*
X171500Y231712D01*
X172480Y231841D01*
X173394Y232219D01*
X174179Y232821D01*
X174781Y233606D01*
X175159Y234520D01*
X175288Y235500D01*
X175159Y236480D01*
X174781Y237394D01*
X174179Y238179D01*
X173394Y238781D01*
X172480Y239159D01*
X171500Y239288D01*
D02*
G37*
G36*
X146000D02*
X145019Y239159D01*
X144106Y238781D01*
X143321Y238179D01*
X142719Y237394D01*
X142341Y236480D01*
X142212Y235500D01*
X142341Y234520D01*
X142719Y233606D01*
X143321Y232821D01*
X144106Y232219D01*
X145019Y231841D01*
X146000Y231712D01*
X146981Y231841D01*
X147894Y232219D01*
X148679Y232821D01*
X149281Y233606D01*
X149659Y234520D01*
X149788Y235500D01*
X149659Y236480D01*
X149281Y237394D01*
X148679Y238179D01*
X147894Y238781D01*
X146981Y239159D01*
X146000Y239288D01*
D02*
G37*
G36*
X228901Y237185D02*
X227612Y237015D01*
X226412Y236518D01*
X225380Y235726D01*
X224589Y234695D01*
X224091Y233494D01*
X223922Y232205D01*
X224091Y230916D01*
X224589Y229715D01*
X225380Y228684D01*
X226412Y227892D01*
X227612Y227395D01*
X228901Y227225D01*
X230190Y227395D01*
X231391Y227892D01*
X232422Y228684D01*
X233214Y229715D01*
X233711Y230916D01*
X233881Y232205D01*
X233711Y233494D01*
X233214Y234695D01*
X232422Y235726D01*
X231391Y236518D01*
X230190Y237015D01*
X228901Y237185D01*
D02*
G37*
G36*
X195000Y264947D02*
X194064Y264761D01*
X193270Y264230D01*
X192739Y263436D01*
X192553Y262500D01*
X192739Y261564D01*
X193203Y260869D01*
X193216Y260728D01*
Y246500D01*
X193351Y245817D01*
X193738Y245238D01*
X205037Y233940D01*
X205114Y233830D01*
X205217Y233661D01*
X206302Y231142D01*
X206371Y230948D01*
X206375Y230916D01*
X206427Y230791D01*
X206509Y230563D01*
X206510Y230561D01*
X206510Y230559D01*
X206552Y230489D01*
X206873Y229715D01*
X207664Y228684D01*
X208696Y227892D01*
X209896Y227395D01*
X211185Y227225D01*
X212474Y227395D01*
X213675Y227892D01*
X214706Y228684D01*
X215498Y229715D01*
X215995Y230916D01*
X216165Y232205D01*
X215995Y233494D01*
X215498Y234695D01*
X214706Y235726D01*
X213675Y236518D01*
X212474Y237015D01*
X211185Y237185D01*
X209896Y237015D01*
X209542Y236868D01*
X209487Y236861D01*
X209074Y236722D01*
X208725Y236632D01*
X208412Y236578D01*
X208135Y236557D01*
X207895Y236565D01*
X207688Y236597D01*
X207510Y236649D01*
X207353Y236721D01*
X207208Y236815D01*
X207206Y236818D01*
X196784Y247239D01*
Y260781D01*
X196786Y260802D01*
X196793Y260859D01*
X196795Y260866D01*
X197261Y261564D01*
X197447Y262500D01*
X197261Y263436D01*
X196730Y264230D01*
X195936Y264761D01*
X195000Y264947D01*
D02*
G37*
G36*
X162756Y229256D02*
X159500D01*
Y226000D01*
X162756D01*
Y229256D01*
D02*
G37*
G36*
X158500D02*
X155244D01*
Y226000D01*
X158500D01*
Y229256D01*
D02*
G37*
G36*
X281756Y229589D02*
X274244D01*
Y222077D01*
X281756D01*
Y229589D01*
D02*
G37*
G36*
X288000Y229622D02*
X287019Y229493D01*
X286106Y229114D01*
X285321Y228512D01*
X284719Y227728D01*
X284341Y226814D01*
X284212Y225833D01*
X284341Y224853D01*
X284719Y223939D01*
X285321Y223155D01*
X286106Y222553D01*
X287019Y222174D01*
X288000Y222045D01*
X288981Y222174D01*
X289894Y222553D01*
X290679Y223155D01*
X291281Y223939D01*
X291659Y224853D01*
X291788Y225833D01*
X291659Y226814D01*
X291281Y227728D01*
X290679Y228512D01*
X289894Y229114D01*
X288981Y229493D01*
X288000Y229622D01*
D02*
G37*
G36*
X175256Y229256D02*
X167744D01*
Y221744D01*
X175256D01*
Y229256D01*
D02*
G37*
G36*
X310414Y207500D02*
X310000D01*
Y207086D01*
X310414Y207500D01*
D02*
G37*
G36*
X312163D02*
X310967D01*
X310972Y207479D01*
X311015Y207362D01*
X311067Y207249D01*
X311128Y207140D01*
X311200Y207034D01*
X311281Y206933D01*
X311372Y206835D01*
X310665Y206128D01*
X310567Y206219D01*
X310466Y206300D01*
X310360Y206371D01*
X310251Y206433D01*
X310138Y206485D01*
X310021Y206528D01*
X310000Y206533D01*
Y205337D01*
X319169Y196169D01*
X319665Y195837D01*
X320250Y195721D01*
X351469D01*
X351507Y195713D01*
X351547Y195702D01*
X351584Y195688D01*
X351620Y195672D01*
X351655Y195652D01*
X351692Y195626D01*
X351707Y195614D01*
X351770Y195520D01*
X352564Y194989D01*
X353000Y194902D01*
Y197250D01*
Y199598D01*
X352564Y199511D01*
X351770Y198980D01*
X351707Y198886D01*
X351692Y198874D01*
X351655Y198848D01*
X351620Y198828D01*
X351584Y198811D01*
X351547Y198798D01*
X351507Y198787D01*
X351469Y198779D01*
X320883D01*
X312163Y207500D01*
D02*
G37*
G36*
X236500Y200414D02*
Y200000D01*
X236914D01*
X236500Y200414D01*
D02*
G37*
G36*
X354000Y199598D02*
Y197750D01*
X355848D01*
X355761Y198186D01*
X355230Y198980D01*
X354436Y199511D01*
X354000Y199598D01*
D02*
G37*
G36*
X281756Y202923D02*
X274244D01*
Y195411D01*
X281756D01*
Y202923D01*
D02*
G37*
G36*
X288000Y202955D02*
X287019Y202826D01*
X286106Y202447D01*
X285321Y201845D01*
X284719Y201061D01*
X284341Y200147D01*
X284212Y199167D01*
X284341Y198186D01*
X284719Y197273D01*
X285321Y196488D01*
X286106Y195886D01*
X287019Y195507D01*
X288000Y195378D01*
X288981Y195507D01*
X289894Y195886D01*
X290679Y196488D01*
X291281Y197273D01*
X291659Y198186D01*
X291788Y199167D01*
X291659Y200147D01*
X291281Y201061D01*
X290679Y201845D01*
X289894Y202447D01*
X288981Y202826D01*
X288000Y202955D01*
D02*
G37*
G36*
X355848Y196750D02*
X354000D01*
Y194902D01*
X354436Y194989D01*
X355230Y195520D01*
X355761Y196314D01*
X355848Y196750D01*
D02*
G37*
G36*
X162756Y225000D02*
X159000D01*
X155244D01*
Y221744D01*
X157471D01*
Y208000D01*
X157587Y207415D01*
X157919Y206919D01*
X166419Y198419D01*
X166915Y198087D01*
X167500Y197971D01*
X233969D01*
X234007Y197963D01*
X234047Y197952D01*
X234084Y197939D01*
X234120Y197922D01*
X234155Y197902D01*
X234192Y197876D01*
X234207Y197864D01*
X234270Y197770D01*
X234364Y197706D01*
X234376Y197692D01*
X234402Y197655D01*
X234422Y197620D01*
X234438Y197584D01*
X234452Y197547D01*
X234463Y197507D01*
X234471Y197469D01*
Y192136D01*
X234587Y191551D01*
X234919Y191055D01*
X243155Y182818D01*
X244352D01*
X244346Y182839D01*
X244303Y182956D01*
X244251Y183069D01*
X244190Y183178D01*
X244118Y183284D01*
X244037Y183385D01*
X243946Y183483D01*
X244653Y184190D01*
X244751Y184099D01*
X244852Y184018D01*
X244958Y183947D01*
X245067Y183885D01*
X245180Y183833D01*
X245297Y183790D01*
X245318Y183785D01*
Y184981D01*
X237529Y192770D01*
Y197469D01*
X237537Y197507D01*
X237548Y197547D01*
X237561Y197584D01*
X237578Y197620D01*
X237598Y197655D01*
X237624Y197692D01*
X237636Y197706D01*
X237730Y197770D01*
X238261Y198564D01*
X238348Y199000D01*
X236000D01*
Y199500D01*
X235500D01*
Y201848D01*
X235064Y201761D01*
X234270Y201230D01*
X234207Y201136D01*
X234192Y201124D01*
X234155Y201098D01*
X234120Y201078D01*
X234084Y201062D01*
X234047Y201048D01*
X234007Y201037D01*
X233969Y201029D01*
X168133D01*
X160529Y208633D01*
Y221744D01*
X162756D01*
Y225000D01*
D02*
G37*
G36*
X246318Y184666D02*
Y182818D01*
X248166D01*
X248079Y183255D01*
X247548Y184048D01*
X246755Y184579D01*
X246318Y184666D01*
D02*
G37*
G36*
X245318Y183232D02*
X244904Y182818D01*
X245318D01*
Y183232D01*
D02*
G37*
G36*
X281756Y189589D02*
X274244D01*
Y182077D01*
X281756D01*
Y189589D01*
D02*
G37*
G36*
X288000Y189622D02*
X287019Y189493D01*
X286106Y189114D01*
X285321Y188512D01*
X284719Y187727D01*
X284341Y186814D01*
X284212Y185833D01*
X284341Y184853D01*
X284719Y183939D01*
X285321Y183155D01*
X286106Y182553D01*
X287019Y182174D01*
X288000Y182045D01*
X288981Y182174D01*
X289894Y182553D01*
X290679Y183155D01*
X291281Y183939D01*
X291659Y184853D01*
X291788Y185833D01*
X291659Y186814D01*
X291281Y187727D01*
X290679Y188512D01*
X289894Y189114D01*
X288981Y189493D01*
X288000Y189622D01*
D02*
G37*
G36*
X248166Y181818D02*
X246318D01*
Y179971D01*
X246755Y180057D01*
X247548Y180588D01*
X248079Y181382D01*
X248166Y181818D01*
D02*
G37*
G36*
X245318D02*
X243471D01*
X243557Y181382D01*
X244088Y180588D01*
X244882Y180057D01*
X245318Y179971D01*
Y181818D01*
D02*
G37*
G36*
X149756Y229256D02*
X142244D01*
Y221744D01*
X144195D01*
X144208Y221667D01*
X144216Y221578D01*
Y182719D01*
X144214Y182698D01*
X144207Y182641D01*
X144205Y182634D01*
X143739Y181936D01*
X143553Y181000D01*
X143739Y180064D01*
X144270Y179270D01*
X145064Y178739D01*
X146000Y178553D01*
X146936Y178739D01*
X147730Y179270D01*
X148261Y180064D01*
X148447Y181000D01*
X148261Y181936D01*
X147797Y182631D01*
X147784Y182772D01*
Y221578D01*
X147792Y221667D01*
X147805Y221744D01*
X149756D01*
Y229256D01*
D02*
G37*
G36*
X248377Y175923D02*
X247526Y175753D01*
X246805Y175271D01*
X246323Y174550D01*
X246153Y173699D01*
X246323Y172848D01*
X246805Y172126D01*
X247526Y171644D01*
X248377Y171475D01*
X249228Y171644D01*
X249950Y172126D01*
X250432Y172848D01*
X250601Y173699D01*
X250432Y174550D01*
X249950Y175271D01*
X249228Y175753D01*
X248377Y175923D01*
D02*
G37*
G36*
X233023D02*
X232172Y175753D01*
X231450Y175271D01*
X230968Y174550D01*
X230799Y173699D01*
X230968Y172848D01*
X231450Y172126D01*
X232172Y171644D01*
X233023Y171475D01*
X233874Y171644D01*
X234595Y172126D01*
X235077Y172848D01*
X235247Y173699D01*
X235077Y174550D01*
X234595Y175271D01*
X233874Y175753D01*
X233023Y175923D01*
D02*
G37*
G36*
X169000Y195447D02*
X168064Y195261D01*
X167270Y194730D01*
X166739Y193936D01*
X166553Y193000D01*
X166739Y192064D01*
X167270Y191270D01*
X168064Y190739D01*
X168883Y190576D01*
X168991Y190485D01*
X190238Y169238D01*
X190238Y169238D01*
X190817Y168851D01*
X191500Y168716D01*
X191500Y168716D01*
X205781D01*
X205802Y168714D01*
X205859Y168707D01*
X205866Y168705D01*
X206564Y168239D01*
X207500Y168053D01*
X208436Y168239D01*
X209230Y168770D01*
X209761Y169564D01*
X209947Y170500D01*
X209761Y171436D01*
X209230Y172230D01*
X208436Y172761D01*
X207500Y172947D01*
X206564Y172761D01*
X205869Y172297D01*
X205728Y172284D01*
X192239D01*
X171477Y193046D01*
X171463Y193062D01*
X171428Y193108D01*
X171424Y193114D01*
X171261Y193936D01*
X170730Y194730D01*
X169936Y195261D01*
X169000Y195447D01*
D02*
G37*
G36*
X230078Y169951D02*
Y165734D01*
X233360D01*
Y166234D01*
X233231Y167213D01*
X232854Y168125D01*
X232253Y168909D01*
X231469Y169510D01*
X230557Y169888D01*
X230078Y169951D01*
D02*
G37*
G36*
X229078Y169951D02*
X228599Y169888D01*
X227687Y169510D01*
X226903Y168909D01*
X226302Y168125D01*
X225924Y167213D01*
X225796Y166234D01*
Y165734D01*
X229078D01*
Y169951D01*
D02*
G37*
G36*
X252322D02*
Y165734D01*
X255604D01*
Y166234D01*
X255475Y167213D01*
X255098Y168125D01*
X254497Y168909D01*
X253713Y169510D01*
X252801Y169888D01*
X252322Y169951D01*
D02*
G37*
G36*
X251322Y169951D02*
X250843Y169888D01*
X249931Y169510D01*
X249148Y168909D01*
X248546Y168125D01*
X248169Y167213D01*
X248040Y166234D01*
Y165734D01*
X251322D01*
Y169951D01*
D02*
G37*
G36*
X248250Y193197D02*
X247314Y193011D01*
X246520Y192480D01*
X245989Y191686D01*
X245803Y190750D01*
X245989Y189814D01*
X246520Y189020D01*
X247314Y188489D01*
X248133Y188326D01*
X248241Y188235D01*
X272738Y163738D01*
X273317Y163352D01*
X274000Y163216D01*
X274000Y163216D01*
X331781D01*
X331802Y163214D01*
X331859Y163207D01*
X331866Y163205D01*
X332564Y162739D01*
X333500Y162553D01*
X334436Y162739D01*
X335230Y163270D01*
X335761Y164064D01*
X335947Y165000D01*
X335761Y165936D01*
X335230Y166730D01*
X334436Y167261D01*
X333500Y167447D01*
X332564Y167261D01*
X331869Y166797D01*
X331728Y166784D01*
X274739D01*
X250727Y190796D01*
X250713Y190812D01*
X250678Y190858D01*
X250674Y190864D01*
X250511Y191686D01*
X249980Y192480D01*
X249186Y193011D01*
X248250Y193197D01*
D02*
G37*
G36*
X233360Y164734D02*
X230078D01*
Y160518D01*
X230557Y160581D01*
X231469Y160959D01*
X232253Y161560D01*
X232854Y162343D01*
X233231Y163255D01*
X233360Y164234D01*
Y164734D01*
D02*
G37*
G36*
X251322Y164734D02*
X248040D01*
Y164234D01*
X248169Y163255D01*
X248546Y162343D01*
X249148Y161560D01*
X249931Y160959D01*
X250843Y160581D01*
X251322Y160518D01*
Y164734D01*
D02*
G37*
G36*
X255604D02*
X252322D01*
Y160518D01*
X252801Y160581D01*
X253713Y160959D01*
X254497Y161560D01*
X255098Y162343D01*
X255475Y163255D01*
X255604Y164234D01*
Y164734D01*
D02*
G37*
G36*
X229078Y164734D02*
X225796D01*
Y164234D01*
X225924Y163255D01*
X226302Y162343D01*
X226903Y161560D01*
X227687Y160959D01*
X228599Y160581D01*
X229078Y160518D01*
Y164734D01*
D02*
G37*
%LPD*%
G36*
X265064Y435170D02*
X264981Y435194D01*
X264796Y435236D01*
X264693Y435253D01*
X264346Y435288D01*
X264081Y435299D01*
X263939Y435300D01*
X263274Y436300D01*
X263414Y436306D01*
X263542Y436322D01*
X263659Y436349D01*
X263763Y436388D01*
X263856Y436437D01*
X263937Y436498D01*
X264007Y436569D01*
X264064Y436651D01*
X264110Y436744D01*
X264144Y436849D01*
X265064Y435170D01*
D02*
G37*
G36*
X263000Y431020D02*
X262904Y431111D01*
X262804Y431193D01*
X262699Y431265D01*
X262591Y431327D01*
X262478Y431380D01*
X262361Y431423D01*
X262240Y431457D01*
X262115Y431481D01*
X261986Y431495D01*
X261852Y431500D01*
Y432500D01*
X261986Y432505D01*
X262115Y432519D01*
X262240Y432543D01*
X262361Y432577D01*
X262478Y432620D01*
X262591Y432673D01*
X262699Y432735D01*
X262804Y432807D01*
X262904Y432889D01*
X263000Y432980D01*
Y431020D01*
D02*
G37*
G36*
X210596Y432389D02*
X210696Y432307D01*
X210801Y432235D01*
X210909Y432173D01*
X211022Y432120D01*
X211139Y432077D01*
X211260Y432043D01*
X211385Y432019D01*
X211514Y432005D01*
X211648Y432000D01*
Y431000D01*
X211514Y430995D01*
X211385Y430981D01*
X211260Y430957D01*
X211139Y430923D01*
X211022Y430880D01*
X210909Y430827D01*
X210801Y430765D01*
X210696Y430693D01*
X210596Y430611D01*
X210500Y430520D01*
Y432480D01*
X210596Y432389D01*
D02*
G37*
G36*
X262141Y433771D02*
X262134Y433758D01*
X262073Y433674D01*
X261930Y433529D01*
X249500D01*
X248915Y433413D01*
X248419Y433081D01*
X235866Y420529D01*
X217670D01*
X217570Y421005D01*
X218568Y421419D01*
X219424Y422076D01*
X220081Y422932D01*
X220495Y423930D01*
X220635Y425000D01*
X220495Y426070D01*
X220081Y427068D01*
X219424Y427924D01*
X218568Y428581D01*
X217570Y428995D01*
X216500Y429135D01*
X215430Y428995D01*
X214432Y428581D01*
X213576Y427924D01*
X212919Y427068D01*
X212506Y426070D01*
X212365Y425000D01*
X212506Y423930D01*
X212919Y422932D01*
X213576Y422076D01*
X214432Y421419D01*
X215430Y421005D01*
X215331Y420529D01*
X174320D01*
X168268Y426581D01*
X167772Y426913D01*
X167187Y427029D01*
X165937D01*
Y434271D01*
X208564D01*
X208613Y433771D01*
X208564Y433761D01*
X207770Y433230D01*
X207239Y432436D01*
X207152Y432000D01*
X209500D01*
Y431500D01*
X210000D01*
Y429152D01*
X210436Y429239D01*
X211230Y429770D01*
X211294Y429864D01*
X211308Y429876D01*
X211345Y429902D01*
X211380Y429922D01*
X211416Y429939D01*
X211453Y429952D01*
X211493Y429963D01*
X211531Y429971D01*
X234658D01*
X234739Y429564D01*
X235270Y428770D01*
X236064Y428239D01*
X236500Y428152D01*
Y430500D01*
Y432930D01*
X236000Y433029D01*
X211531D01*
X211493Y433037D01*
X211453Y433048D01*
X211416Y433062D01*
X211380Y433078D01*
X211345Y433098D01*
X211308Y433124D01*
X211294Y433136D01*
X211230Y433230D01*
X210436Y433761D01*
X210387Y433771D01*
X210436Y434271D01*
X261877D01*
X262141Y433771D01*
D02*
G37*
G36*
X164876Y420904D02*
X164897Y420819D01*
X164942Y420744D01*
X165011Y420680D01*
X165105Y420625D01*
X165223Y420580D01*
X165366Y420545D01*
X165533Y420520D01*
X165725Y420505D01*
X165941Y420500D01*
X165772Y419500D01*
X165556Y419495D01*
X165361Y419480D01*
X165187Y419455D01*
X165034Y419421D01*
X164902Y419376D01*
X164791Y419322D01*
X164702Y419258D01*
X164633Y419184D01*
X164585Y419100D01*
X164559Y419006D01*
X164880Y420999D01*
X164876Y420904D01*
D02*
G37*
G36*
X163856Y412897D02*
X163937Y412814D01*
X164038Y412740D01*
X164157Y412677D01*
X164294Y412623D01*
X164451Y412578D01*
X164626Y412544D01*
X164819Y412520D01*
X165032Y412505D01*
X165263Y412500D01*
X165772Y411500D01*
X165553Y411495D01*
X165363Y411480D01*
X165202Y411455D01*
X165070Y411420D01*
X164966Y411375D01*
X164891Y411320D01*
X164845Y411254D01*
X164828Y411179D01*
X164840Y411094D01*
X164880Y410999D01*
X163793Y412991D01*
X163856Y412897D01*
D02*
G37*
G36*
X329389Y409904D02*
X329307Y409804D01*
X329235Y409699D01*
X329173Y409591D01*
X329120Y409478D01*
X329077Y409361D01*
X329043Y409240D01*
X329019Y409115D01*
X329005Y408986D01*
X329000Y408852D01*
X328000D01*
X327995Y408986D01*
X327981Y409115D01*
X327957Y409240D01*
X327923Y409361D01*
X327880Y409478D01*
X327827Y409591D01*
X327765Y409699D01*
X327693Y409804D01*
X327611Y409904D01*
X327520Y410000D01*
X329480D01*
X329389Y409904D01*
D02*
G37*
G36*
X252044Y409666D02*
X252282Y409465D01*
X252350Y409419D01*
X252413Y409384D01*
X252471Y409358D01*
X252523Y409343D01*
X252570Y409339D01*
X252612Y409345D01*
X251655Y408388D01*
X251661Y408430D01*
X251657Y408477D01*
X251642Y408529D01*
X251616Y408587D01*
X251581Y408650D01*
X251535Y408718D01*
X251478Y408792D01*
X251334Y408956D01*
X251246Y409047D01*
X251954Y409754D01*
X252044Y409666D01*
D02*
G37*
G36*
X225000Y402520D02*
X224904Y402611D01*
X224804Y402693D01*
X224699Y402765D01*
X224591Y402827D01*
X224478Y402880D01*
X224361Y402923D01*
X224240Y402957D01*
X224115Y402981D01*
X223986Y402995D01*
X223852Y403000D01*
Y404000D01*
X223986Y404005D01*
X224115Y404019D01*
X224240Y404043D01*
X224361Y404077D01*
X224478Y404120D01*
X224591Y404173D01*
X224699Y404235D01*
X224804Y404307D01*
X224904Y404389D01*
X225000Y404480D01*
Y402520D01*
D02*
G37*
G36*
X165627Y401420D02*
X165463Y401249D01*
X165195Y400925D01*
X165090Y400772D01*
X165005Y400624D01*
X164940Y400483D01*
X164895Y400348D01*
X164869Y400218D01*
X164863Y400094D01*
X164877Y399976D01*
X164391Y402310D01*
X164422Y402206D01*
X164469Y402131D01*
X164529Y402085D01*
X164604Y402067D01*
X164693Y402078D01*
X164797Y402118D01*
X164915Y402186D01*
X165047Y402282D01*
X165193Y402408D01*
X165355Y402562D01*
X165627Y401420D01*
D02*
G37*
G36*
X236596Y392389D02*
X236696Y392307D01*
X236801Y392235D01*
X236909Y392173D01*
X237022Y392120D01*
X237139Y392077D01*
X237260Y392043D01*
X237385Y392019D01*
X237514Y392005D01*
X237648Y392000D01*
Y391000D01*
X237514Y390995D01*
X237385Y390981D01*
X237260Y390957D01*
X237139Y390923D01*
X237022Y390880D01*
X236909Y390827D01*
X236801Y390765D01*
X236696Y390693D01*
X236596Y390611D01*
X236500Y390520D01*
Y392480D01*
X236596Y392389D01*
D02*
G37*
G36*
X223427Y390720D02*
X223331Y390617D01*
X223253Y390514D01*
X223190Y390413D01*
X223143Y390312D01*
X223112Y390212D01*
X223098Y390112D01*
X223100Y390013D01*
X223117Y389914D01*
X223151Y389816D01*
X223201Y389719D01*
X221363Y390247D01*
X221437Y390287D01*
X221594Y390387D01*
X221677Y390448D01*
X221945Y390668D01*
X222140Y390849D01*
X222242Y390949D01*
X223427Y390720D01*
D02*
G37*
G36*
X182889Y389404D02*
X182807Y389304D01*
X182735Y389199D01*
X182673Y389091D01*
X182620Y388978D01*
X182577Y388861D01*
X182543Y388740D01*
X182519Y388615D01*
X182505Y388486D01*
X182500Y388352D01*
X181500D01*
X181495Y388486D01*
X181481Y388615D01*
X181457Y388740D01*
X181423Y388861D01*
X181380Y388978D01*
X181327Y389091D01*
X181265Y389199D01*
X181193Y389304D01*
X181111Y389404D01*
X181020Y389500D01*
X182980D01*
X182889Y389404D01*
D02*
G37*
G36*
X234096Y387889D02*
X234196Y387807D01*
X234301Y387735D01*
X234409Y387673D01*
X234522Y387620D01*
X234639Y387577D01*
X234760Y387543D01*
X234885Y387519D01*
X235014Y387505D01*
X235148Y387500D01*
Y386500D01*
X235014Y386495D01*
X234885Y386481D01*
X234760Y386457D01*
X234639Y386423D01*
X234522Y386380D01*
X234409Y386327D01*
X234301Y386265D01*
X234196Y386193D01*
X234096Y386111D01*
X234000Y386020D01*
Y387980D01*
X234096Y387889D01*
D02*
G37*
G36*
X239596Y383889D02*
X239696Y383807D01*
X239801Y383735D01*
X239909Y383673D01*
X240022Y383620D01*
X240139Y383577D01*
X240260Y383543D01*
X240385Y383519D01*
X240514Y383505D01*
X240648Y383500D01*
Y382500D01*
X240514Y382495D01*
X240385Y382481D01*
X240260Y382457D01*
X240139Y382423D01*
X240022Y382380D01*
X239909Y382327D01*
X239801Y382265D01*
X239696Y382193D01*
X239596Y382111D01*
X239500Y382020D01*
Y383980D01*
X239596Y383889D01*
D02*
G37*
G36*
X157171Y383043D02*
X157314Y382921D01*
X157446Y382825D01*
X157566Y382754D01*
X157675Y382708D01*
X157773Y382688D01*
X157859Y382694D01*
X157934Y382724D01*
X157998Y382780D01*
X158051Y382862D01*
X157118Y380978D01*
X157154Y381075D01*
X157169Y381179D01*
X157162Y381289D01*
X157136Y381407D01*
X157088Y381531D01*
X157019Y381662D01*
X156930Y381800D01*
X156819Y381946D01*
X156688Y382098D01*
X156536Y382257D01*
X157017Y383191D01*
X157171Y383043D01*
D02*
G37*
G36*
X157240Y369503D02*
X157229Y369598D01*
X157194Y369682D01*
X157138Y369757D01*
X157059Y369821D01*
X156957Y369876D01*
X156832Y369921D01*
X156685Y369955D01*
X156516Y369980D01*
X156323Y369995D01*
X156108Y370000D01*
Y371000D01*
X156323Y371005D01*
X156516Y371020D01*
X156685Y371045D01*
X156832Y371079D01*
X156957Y371124D01*
X157059Y371179D01*
X157138Y371243D01*
X157194Y371318D01*
X157229Y371402D01*
X157240Y371497D01*
Y369503D01*
D02*
G37*
G36*
X239486Y364600D02*
X239353Y364597D01*
X239225Y364583D01*
X239100Y364560D01*
X238979Y364528D01*
X238862Y364485D01*
X238749Y364433D01*
X238640Y364371D01*
X238534Y364300D01*
X238433Y364219D01*
X238335Y364128D01*
X237628Y364835D01*
X237719Y364933D01*
X237800Y365034D01*
X237872Y365140D01*
X237933Y365249D01*
X237985Y365362D01*
X238028Y365479D01*
X238060Y365600D01*
X238083Y365725D01*
X238097Y365854D01*
X238100Y365986D01*
X239486Y364600D01*
D02*
G37*
G36*
X157240Y359504D02*
X157229Y359598D01*
X157194Y359682D01*
X157138Y359757D01*
X157059Y359821D01*
X156957Y359876D01*
X156832Y359921D01*
X156685Y359955D01*
X156516Y359980D01*
X156323Y359995D01*
X156108Y360000D01*
Y361000D01*
X156323Y361005D01*
X156516Y361020D01*
X156685Y361045D01*
X156832Y361079D01*
X156957Y361124D01*
X157059Y361179D01*
X157138Y361243D01*
X157194Y361318D01*
X157229Y361402D01*
X157240Y361496D01*
Y359504D01*
D02*
G37*
G36*
X218372Y359165D02*
X218281Y359067D01*
X218200Y358966D01*
X218128Y358860D01*
X218067Y358751D01*
X218015Y358638D01*
X217972Y358521D01*
X217940Y358400D01*
X217917Y358275D01*
X217903Y358147D01*
X217900Y358014D01*
X216514Y359400D01*
X216647Y359403D01*
X216775Y359417D01*
X216900Y359440D01*
X217021Y359472D01*
X217138Y359515D01*
X217251Y359567D01*
X217360Y359629D01*
X217466Y359700D01*
X217567Y359781D01*
X217665Y359872D01*
X218372Y359165D01*
D02*
G37*
G36*
X248486Y355600D02*
X248354Y355597D01*
X248225Y355583D01*
X248100Y355560D01*
X247979Y355528D01*
X247862Y355485D01*
X247749Y355433D01*
X247640Y355371D01*
X247534Y355300D01*
X247433Y355219D01*
X247335Y355128D01*
X246628Y355835D01*
X246719Y355933D01*
X246800Y356034D01*
X246871Y356140D01*
X246933Y356249D01*
X246985Y356362D01*
X247028Y356479D01*
X247060Y356600D01*
X247083Y356725D01*
X247097Y356854D01*
X247100Y356986D01*
X248486Y355600D01*
D02*
G37*
G36*
X240486Y355100D02*
X240353Y355097D01*
X240225Y355083D01*
X240100Y355060D01*
X239979Y355028D01*
X239862Y354985D01*
X239749Y354933D01*
X239640Y354872D01*
X239534Y354800D01*
X239433Y354719D01*
X239335Y354628D01*
X238628Y355335D01*
X238719Y355433D01*
X238800Y355534D01*
X238872Y355640D01*
X238933Y355749D01*
X238985Y355862D01*
X239028Y355979D01*
X239060Y356100D01*
X239083Y356225D01*
X239097Y356353D01*
X239100Y356486D01*
X240486Y355100D01*
D02*
G37*
G36*
X286500Y348320D02*
X286503Y348192D01*
X286525Y347939D01*
X286544Y347814D01*
X286598Y347567D01*
X286633Y347445D01*
X286721Y347203D01*
X286772Y347084D01*
X284942Y347784D01*
X285048Y347837D01*
X285143Y347900D01*
X285226Y347972D01*
X285299Y348053D01*
X285360Y348144D01*
X285411Y348245D01*
X285450Y348354D01*
X285478Y348474D01*
X285494Y348602D01*
X285500Y348740D01*
X286500Y348320D01*
D02*
G37*
G36*
X258872Y347665D02*
X258781Y347567D01*
X258700Y347466D01*
X258629Y347360D01*
X258567Y347251D01*
X258515Y347138D01*
X258472Y347021D01*
X258440Y346900D01*
X258417Y346775D01*
X258403Y346646D01*
X258400Y346514D01*
X257014Y347900D01*
X257147Y347903D01*
X257275Y347917D01*
X257400Y347940D01*
X257521Y347972D01*
X257638Y348015D01*
X257751Y348067D01*
X257860Y348129D01*
X257966Y348200D01*
X258067Y348281D01*
X258165Y348372D01*
X258872Y347665D01*
D02*
G37*
G36*
X251872Y346165D02*
X251781Y346067D01*
X251700Y345966D01*
X251628Y345860D01*
X251567Y345751D01*
X251515Y345638D01*
X251472Y345521D01*
X251440Y345400D01*
X251417Y345275D01*
X251403Y345146D01*
X251400Y345014D01*
X250014Y346400D01*
X250147Y346403D01*
X250275Y346417D01*
X250400Y346440D01*
X250521Y346472D01*
X250638Y346515D01*
X250751Y346567D01*
X250860Y346628D01*
X250966Y346700D01*
X251067Y346781D01*
X251165Y346872D01*
X251872Y346165D01*
D02*
G37*
G36*
X286000Y339520D02*
X285904Y339611D01*
X285804Y339693D01*
X285699Y339765D01*
X285591Y339827D01*
X285478Y339880D01*
X285361Y339923D01*
X285240Y339957D01*
X285115Y339981D01*
X284986Y339995D01*
X284852Y340000D01*
Y341000D01*
X284986Y341005D01*
X285115Y341019D01*
X285240Y341043D01*
X285361Y341077D01*
X285478Y341120D01*
X285591Y341173D01*
X285699Y341235D01*
X285804Y341307D01*
X285904Y341389D01*
X286000Y341480D01*
Y339520D01*
D02*
G37*
G36*
X185505Y323514D02*
X185519Y323385D01*
X185543Y323260D01*
X185577Y323139D01*
X185620Y323022D01*
X185673Y322909D01*
X185735Y322801D01*
X185807Y322696D01*
X185889Y322596D01*
X185980Y322500D01*
X184020D01*
X184111Y322596D01*
X184193Y322696D01*
X184265Y322801D01*
X184327Y322909D01*
X184380Y323022D01*
X184423Y323139D01*
X184457Y323260D01*
X184481Y323385D01*
X184495Y323514D01*
X184500Y323648D01*
X185500D01*
X185505Y323514D01*
D02*
G37*
G36*
X161259Y321085D02*
X161309Y320389D01*
X161355Y320079D01*
X161417Y319796D01*
X161492Y319538D01*
X161582Y319307D01*
X161687Y319101D01*
X161806Y318922D01*
X161939Y318768D01*
X161232Y318061D01*
X161078Y318194D01*
X160899Y318313D01*
X160693Y318418D01*
X160462Y318508D01*
X160204Y318583D01*
X159921Y318644D01*
X159611Y318691D01*
X159276Y318723D01*
X158528Y318744D01*
X161256Y321472D01*
X161259Y321085D01*
D02*
G37*
G36*
X158472Y318744D02*
X158085Y318741D01*
X157389Y318691D01*
X157079Y318644D01*
X156796Y318583D01*
X156538Y318508D01*
X156307Y318418D01*
X156101Y318313D01*
X155922Y318194D01*
X155768Y318061D01*
X155061Y318768D01*
X155194Y318922D01*
X155313Y319101D01*
X155418Y319307D01*
X155508Y319538D01*
X155583Y319796D01*
X155645Y320079D01*
X155691Y320389D01*
X155723Y320724D01*
X155744Y321472D01*
X158472Y318744D01*
D02*
G37*
G36*
X240500Y314520D02*
X240404Y314611D01*
X240304Y314693D01*
X240199Y314765D01*
X240091Y314827D01*
X239978Y314880D01*
X239861Y314923D01*
X239740Y314957D01*
X239615Y314981D01*
X239486Y314995D01*
X239352Y315000D01*
Y316000D01*
X239486Y316005D01*
X239615Y316019D01*
X239740Y316043D01*
X239861Y316077D01*
X239978Y316120D01*
X240091Y316173D01*
X240199Y316235D01*
X240304Y316307D01*
X240404Y316389D01*
X240500Y316480D01*
Y314520D01*
D02*
G37*
G36*
X230596Y316389D02*
X230696Y316307D01*
X230801Y316235D01*
X230909Y316173D01*
X231022Y316120D01*
X231139Y316077D01*
X231260Y316043D01*
X231385Y316019D01*
X231514Y316005D01*
X231648Y316000D01*
Y315000D01*
X231514Y314995D01*
X231385Y314981D01*
X231260Y314957D01*
X231139Y314923D01*
X231022Y314880D01*
X230909Y314827D01*
X230801Y314765D01*
X230696Y314693D01*
X230596Y314611D01*
X230500Y314520D01*
X229500Y315500D01*
X230500Y316480D01*
X230596Y316389D01*
D02*
G37*
G36*
X229500Y315500D02*
X228500Y314520D01*
X228404Y314611D01*
X228304Y314693D01*
X228199Y314765D01*
X228091Y314827D01*
X227978Y314880D01*
X227861Y314923D01*
X227740Y314957D01*
X227615Y314981D01*
X227486Y314995D01*
X227352Y315000D01*
Y316000D01*
X227486Y316005D01*
X227615Y316019D01*
X227740Y316043D01*
X227861Y316077D01*
X227978Y316120D01*
X228091Y316173D01*
X228199Y316235D01*
X228304Y316307D01*
X228404Y316389D01*
X228500Y316480D01*
X229500Y315500D01*
D02*
G37*
G36*
X143384Y310632D02*
X143354Y310702D01*
X143310Y310764D01*
X143254Y310820D01*
X143184Y310868D01*
X143102Y310908D01*
X143007Y310941D01*
X142900Y310967D01*
X142779Y310985D01*
X142646Y310996D01*
X142500Y311000D01*
Y312000D01*
X142646Y312004D01*
X142779Y312015D01*
X142900Y312033D01*
X143007Y312059D01*
X143102Y312092D01*
X143184Y312133D01*
X143254Y312180D01*
X143310Y312236D01*
X143354Y312298D01*
X143384Y312368D01*
Y310632D01*
D02*
G37*
G36*
X160744Y313158D02*
X161272Y312700D01*
X161524Y312514D01*
X161767Y312357D01*
X162003Y312229D01*
X162230Y312129D01*
X162450Y312057D01*
X162661Y312014D01*
X162864Y312000D01*
Y311000D01*
X162661Y310986D01*
X162450Y310943D01*
X162230Y310871D01*
X162003Y310771D01*
X161767Y310643D01*
X161524Y310486D01*
X161272Y310300D01*
X161012Y310085D01*
X160468Y309571D01*
Y313429D01*
X160744Y313158D01*
D02*
G37*
G36*
X149439Y304232D02*
X149306Y304078D01*
X149187Y303899D01*
X149082Y303693D01*
X148992Y303462D01*
X148917Y303204D01*
X148855Y302921D01*
X148809Y302611D01*
X148777Y302276D01*
X148756Y301528D01*
X146028Y304256D01*
X146415Y304259D01*
X147111Y304309D01*
X147421Y304356D01*
X147704Y304417D01*
X147962Y304492D01*
X148193Y304582D01*
X148399Y304687D01*
X148578Y304806D01*
X148732Y304939D01*
X149439Y304232D01*
D02*
G37*
G36*
X149879Y293172D02*
X149797Y293076D01*
X149703Y292941D01*
X149599Y292767D01*
X149356Y292304D01*
X148908Y291317D01*
X148554Y290465D01*
X147086Y294033D01*
X147392Y293913D01*
X147683Y293824D01*
X147959Y293764D01*
X148221Y293734D01*
X148467Y293734D01*
X148698Y293763D01*
X148914Y293823D01*
X149116Y293912D01*
X149302Y294032D01*
X149474Y294181D01*
X149879Y293172D01*
D02*
G37*
G36*
X159405Y278746D02*
X159320Y278716D01*
X159245Y278666D01*
X159180Y278596D01*
X159125Y278506D01*
X159080Y278396D01*
X159045Y278266D01*
X159020Y278116D01*
X159005Y277946D01*
X159000Y277756D01*
X158000D01*
X157995Y277946D01*
X157980Y278116D01*
X157955Y278266D01*
X157920Y278396D01*
X157875Y278506D01*
X157820Y278596D01*
X157755Y278666D01*
X157680Y278716D01*
X157595Y278746D01*
X157500Y278756D01*
X159500D01*
X159405Y278746D01*
D02*
G37*
%LPC*%
G36*
X237500Y432848D02*
Y431000D01*
X239348D01*
X239261Y431436D01*
X238730Y432230D01*
X237936Y432761D01*
X237500Y432848D01*
D02*
G37*
G36*
X209000Y431000D02*
X207152D01*
X207239Y430564D01*
X207770Y429770D01*
X208564Y429239D01*
X209000Y429152D01*
Y431000D01*
D02*
G37*
G36*
X239348Y430000D02*
X237500D01*
Y428152D01*
X237936Y428239D01*
X238730Y428770D01*
X239261Y429564D01*
X239348Y430000D01*
D02*
G37*
%LPD*%
G36*
X293596Y385889D02*
X293696Y385807D01*
X293801Y385735D01*
X293909Y385673D01*
X294022Y385620D01*
X294139Y385577D01*
X294260Y385543D01*
X294385Y385519D01*
X294514Y385505D01*
X294648Y385500D01*
Y384500D01*
X294514Y384495D01*
X294385Y384481D01*
X294260Y384457D01*
X294139Y384423D01*
X294022Y384380D01*
X293909Y384327D01*
X293801Y384265D01*
X293696Y384193D01*
X293596Y384111D01*
X293500Y384020D01*
Y385980D01*
X293596Y385889D01*
D02*
G37*
G36*
X320000Y363820D02*
X320003Y363692D01*
X320024Y363439D01*
X320044Y363314D01*
X320098Y363067D01*
X320133Y362945D01*
X320221Y362703D01*
X320272Y362584D01*
X318442Y363284D01*
X318548Y363337D01*
X318643Y363400D01*
X318726Y363472D01*
X318799Y363553D01*
X318860Y363644D01*
X318911Y363745D01*
X318950Y363854D01*
X318978Y363973D01*
X318994Y364102D01*
X319000Y364240D01*
X320000Y363820D01*
D02*
G37*
G36*
X298486Y337600D02*
X298354Y337597D01*
X298225Y337583D01*
X298100Y337560D01*
X297979Y337528D01*
X297862Y337485D01*
X297749Y337433D01*
X297640Y337371D01*
X297534Y337300D01*
X297433Y337219D01*
X297335Y337128D01*
X296628Y337835D01*
X296719Y337933D01*
X296800Y338034D01*
X296871Y338140D01*
X296933Y338249D01*
X296985Y338362D01*
X297028Y338479D01*
X297060Y338600D01*
X297083Y338725D01*
X297097Y338854D01*
X297100Y338986D01*
X298486Y337600D01*
D02*
G37*
G36*
X281000Y327020D02*
X280904Y327111D01*
X280804Y327193D01*
X280699Y327265D01*
X280591Y327327D01*
X280478Y327380D01*
X280361Y327423D01*
X280240Y327457D01*
X280115Y327481D01*
X279986Y327495D01*
X279852Y327500D01*
Y328500D01*
X279986Y328505D01*
X280115Y328519D01*
X280240Y328543D01*
X280361Y328577D01*
X280478Y328620D01*
X280591Y328673D01*
X280699Y328735D01*
X280804Y328807D01*
X280904Y328889D01*
X281000Y328980D01*
Y327020D01*
D02*
G37*
G36*
X246613Y328855D02*
X246693Y328780D01*
X246786Y328715D01*
X246892Y328658D01*
X247011Y328609D01*
X247142Y328570D01*
X247285Y328539D01*
X247441Y328518D01*
X247610Y328504D01*
X247791Y328500D01*
X248000Y327500D01*
X247820Y327495D01*
X247656Y327479D01*
X247509Y327453D01*
X247378Y327417D01*
X247264Y327370D01*
X247167Y327312D01*
X247087Y327244D01*
X247023Y327166D01*
X246976Y327078D01*
X246945Y326978D01*
X246545Y328938D01*
X246613Y328855D01*
D02*
G37*
G36*
X199096Y322389D02*
X199196Y322307D01*
X199301Y322235D01*
X199409Y322173D01*
X199522Y322120D01*
X199639Y322077D01*
X199760Y322043D01*
X199885Y322019D01*
X200014Y322005D01*
X200148Y322000D01*
Y321000D01*
X200014Y320995D01*
X199885Y320981D01*
X199760Y320957D01*
X199639Y320923D01*
X199522Y320880D01*
X199409Y320827D01*
X199301Y320765D01*
X199196Y320693D01*
X199096Y320611D01*
X199000Y320520D01*
Y322480D01*
X199096Y322389D01*
D02*
G37*
G36*
X285000Y334020D02*
X284904Y334111D01*
X284804Y334193D01*
X284699Y334265D01*
X284591Y334327D01*
X284478Y334380D01*
X284361Y334423D01*
X284240Y334457D01*
X284115Y334481D01*
X283986Y334495D01*
X283852Y334500D01*
Y335500D01*
X283986Y335505D01*
X284115Y335519D01*
X284240Y335543D01*
X284361Y335577D01*
X284478Y335620D01*
X284591Y335673D01*
X284699Y335735D01*
X284804Y335807D01*
X284904Y335889D01*
X285000Y335980D01*
Y334020D01*
D02*
G37*
G36*
X242842Y335905D02*
X242908Y335820D01*
X242987Y335745D01*
X243081Y335680D01*
X243190Y335625D01*
X243313Y335580D01*
X243450Y335545D01*
X243602Y335520D01*
X243769Y335505D01*
X243950Y335500D01*
Y334500D01*
X243769Y334495D01*
X243602Y334480D01*
X243450Y334455D01*
X243313Y334420D01*
X243190Y334375D01*
X243081Y334320D01*
X242987Y334255D01*
X242908Y334180D01*
X242842Y334095D01*
X242791Y334000D01*
Y336000D01*
X242842Y335905D01*
D02*
G37*
G36*
X287486Y319600D02*
X287353Y319597D01*
X287225Y319583D01*
X287100Y319560D01*
X286979Y319528D01*
X286862Y319485D01*
X286749Y319433D01*
X286640Y319372D01*
X286534Y319300D01*
X286433Y319219D01*
X286335Y319128D01*
X285628Y319835D01*
X285719Y319933D01*
X285800Y320034D01*
X285872Y320140D01*
X285933Y320249D01*
X285985Y320362D01*
X286028Y320479D01*
X286060Y320600D01*
X286083Y320725D01*
X286097Y320853D01*
X286100Y320986D01*
X287486Y319600D01*
D02*
G37*
G36*
X273596Y317889D02*
X273696Y317807D01*
X273801Y317735D01*
X273909Y317673D01*
X274022Y317620D01*
X274139Y317577D01*
X274260Y317543D01*
X274385Y317519D01*
X274514Y317505D01*
X274648Y317500D01*
Y316500D01*
X274514Y316495D01*
X274385Y316481D01*
X274260Y316457D01*
X274139Y316423D01*
X274022Y316380D01*
X273909Y316327D01*
X273801Y316265D01*
X273696Y316193D01*
X273596Y316111D01*
X273500Y316020D01*
Y317980D01*
X273596Y317889D01*
D02*
G37*
G36*
X285596Y445889D02*
X285696Y445807D01*
X285801Y445735D01*
X285909Y445673D01*
X286022Y445620D01*
X286139Y445577D01*
X286260Y445543D01*
X286385Y445519D01*
X286514Y445505D01*
X286648Y445500D01*
Y444500D01*
X286514Y444495D01*
X286385Y444481D01*
X286260Y444457D01*
X286139Y444423D01*
X286022Y444380D01*
X285909Y444327D01*
X285801Y444265D01*
X285696Y444193D01*
X285596Y444111D01*
X285500Y444020D01*
Y445980D01*
X285596Y445889D01*
D02*
G37*
G36*
X295096Y442889D02*
X295196Y442807D01*
X295301Y442735D01*
X295409Y442673D01*
X295522Y442620D01*
X295639Y442577D01*
X295760Y442543D01*
X295885Y442519D01*
X296014Y442505D01*
X296148Y442500D01*
Y441500D01*
X296014Y441495D01*
X295885Y441481D01*
X295760Y441457D01*
X295639Y441423D01*
X295522Y441380D01*
X295409Y441327D01*
X295301Y441265D01*
X295196Y441193D01*
X295096Y441111D01*
X295000Y441020D01*
Y442980D01*
X295096Y442889D01*
D02*
G37*
G36*
X300096Y436889D02*
X300196Y436807D01*
X300301Y436735D01*
X300409Y436673D01*
X300522Y436620D01*
X300639Y436577D01*
X300760Y436543D01*
X300885Y436519D01*
X301014Y436505D01*
X301148Y436500D01*
Y435500D01*
X301014Y435495D01*
X300885Y435481D01*
X300760Y435457D01*
X300639Y435423D01*
X300522Y435380D01*
X300409Y435327D01*
X300301Y435265D01*
X300196Y435193D01*
X300096Y435111D01*
X300000Y435020D01*
Y436980D01*
X300096Y436889D01*
D02*
G37*
G36*
X308596Y428389D02*
X308696Y428307D01*
X308801Y428235D01*
X308909Y428173D01*
X309022Y428120D01*
X309139Y428077D01*
X309260Y428043D01*
X309385Y428019D01*
X309514Y428005D01*
X309648Y428000D01*
Y427000D01*
X309514Y426995D01*
X309385Y426981D01*
X309260Y426957D01*
X309139Y426923D01*
X309022Y426880D01*
X308909Y426827D01*
X308801Y426765D01*
X308696Y426693D01*
X308596Y426611D01*
X308500Y426520D01*
Y428480D01*
X308596Y428389D01*
D02*
G37*
G36*
X351889Y401904D02*
X351807Y401804D01*
X351735Y401699D01*
X351673Y401591D01*
X351620Y401478D01*
X351577Y401361D01*
X351543Y401240D01*
X351519Y401115D01*
X351505Y400986D01*
X351500Y400852D01*
X350500D01*
X350495Y400986D01*
X350481Y401115D01*
X350457Y401240D01*
X350423Y401361D01*
X350380Y401478D01*
X350327Y401591D01*
X350265Y401699D01*
X350193Y401804D01*
X350111Y401904D01*
X350020Y402000D01*
X351980D01*
X351889Y401904D01*
D02*
G37*
G36*
X326596Y298389D02*
X326696Y298307D01*
X326801Y298235D01*
X326909Y298173D01*
X327022Y298120D01*
X327139Y298077D01*
X327260Y298043D01*
X327385Y298019D01*
X327514Y298005D01*
X327648Y298000D01*
Y297000D01*
X327514Y296995D01*
X327385Y296981D01*
X327260Y296957D01*
X327139Y296923D01*
X327022Y296880D01*
X326909Y296827D01*
X326801Y296765D01*
X326696Y296693D01*
X326596Y296611D01*
X326500Y296520D01*
Y298480D01*
X326596Y298389D01*
D02*
G37*
G36*
X326220Y291765D02*
X326320Y291683D01*
X326425Y291611D01*
X326533Y291549D01*
X326646Y291496D01*
X326763Y291453D01*
X326884Y291419D01*
X327009Y291395D01*
X327138Y291381D01*
X327272Y291376D01*
Y290376D01*
X327138Y290371D01*
X327009Y290357D01*
X326884Y290333D01*
X326763Y290299D01*
X326646Y290256D01*
X326533Y290203D01*
X326425Y290141D01*
X326320Y290069D01*
X326220Y289987D01*
X326124Y289896D01*
Y291856D01*
X326220Y291765D01*
D02*
G37*
G36*
X160744Y293158D02*
X161272Y292700D01*
X161524Y292514D01*
X161767Y292357D01*
X162003Y292229D01*
X162230Y292129D01*
X162450Y292057D01*
X162661Y292014D01*
X162864Y292000D01*
Y291000D01*
X162661Y290986D01*
X162450Y290943D01*
X162230Y290871D01*
X162003Y290771D01*
X161767Y290643D01*
X161524Y290486D01*
X161272Y290300D01*
X161012Y290085D01*
X160468Y289571D01*
Y293429D01*
X160744Y293158D01*
D02*
G37*
G36*
X324096Y273889D02*
X324196Y273807D01*
X324301Y273735D01*
X324409Y273673D01*
X324522Y273620D01*
X324639Y273577D01*
X324760Y273543D01*
X324885Y273519D01*
X325014Y273505D01*
X325148Y273500D01*
Y272500D01*
X325014Y272495D01*
X324885Y272481D01*
X324760Y272457D01*
X324639Y272423D01*
X324522Y272380D01*
X324409Y272327D01*
X324301Y272265D01*
X324196Y272193D01*
X324096Y272111D01*
X324000Y272020D01*
Y273980D01*
X324096Y273889D01*
D02*
G37*
G36*
X261389Y260404D02*
X261307Y260304D01*
X261235Y260199D01*
X261173Y260091D01*
X261120Y259978D01*
X261077Y259861D01*
X261043Y259740D01*
X261019Y259615D01*
X261005Y259486D01*
X261000Y259352D01*
X260000D01*
X259995Y259486D01*
X259981Y259615D01*
X259957Y259740D01*
X259923Y259861D01*
X259880Y259978D01*
X259827Y260091D01*
X259765Y260199D01*
X259693Y260304D01*
X259611Y260404D01*
X259520Y260500D01*
X261480D01*
X261389Y260404D01*
D02*
G37*
G36*
X235502Y212871D02*
X235518Y212647D01*
X235532Y212551D01*
X235550Y212467D01*
X235572Y212394D01*
X235598Y212332D01*
X235628Y212281D01*
X235662Y212241D01*
X235700Y212212D01*
X234300D01*
X234338Y212241D01*
X234372Y212281D01*
X234402Y212332D01*
X234428Y212394D01*
X234450Y212467D01*
X234468Y212551D01*
X234482Y212647D01*
X234498Y212871D01*
X234500Y213000D01*
X235500D01*
X235502Y212871D01*
D02*
G37*
G36*
X225372Y211665D02*
X225281Y211567D01*
X225200Y211466D01*
X225129Y211360D01*
X225067Y211251D01*
X225015Y211138D01*
X224972Y211021D01*
X224940Y210900D01*
X224917Y210775D01*
X224903Y210647D01*
X224900Y210514D01*
X223514Y211900D01*
X223646Y211903D01*
X223775Y211917D01*
X223900Y211940D01*
X224021Y211972D01*
X224138Y212015D01*
X224251Y212067D01*
X224360Y212128D01*
X224466Y212200D01*
X224567Y212281D01*
X224665Y212372D01*
X225372Y211665D01*
D02*
G37*
G36*
X230005Y206014D02*
X230019Y205885D01*
X230043Y205760D01*
X230077Y205639D01*
X230120Y205522D01*
X230173Y205409D01*
X230235Y205301D01*
X230307Y205196D01*
X230389Y205096D01*
X230480Y205000D01*
X228520D01*
X228611Y205096D01*
X228693Y205196D01*
X228765Y205301D01*
X228827Y205409D01*
X228880Y205522D01*
X228923Y205639D01*
X228957Y205760D01*
X228981Y205885D01*
X228995Y206014D01*
X229000Y206148D01*
X230000D01*
X230005Y206014D01*
D02*
G37*
G36*
X249000Y285520D02*
X248904Y285611D01*
X248804Y285693D01*
X248699Y285765D01*
X248591Y285827D01*
X248478Y285880D01*
X248361Y285923D01*
X248240Y285957D01*
X248115Y285981D01*
X247986Y285995D01*
X247852Y286000D01*
Y287000D01*
X247986Y287005D01*
X248115Y287019D01*
X248240Y287043D01*
X248361Y287077D01*
X248478Y287120D01*
X248591Y287173D01*
X248699Y287235D01*
X248804Y287307D01*
X248904Y287389D01*
X249000Y287480D01*
Y285520D01*
D02*
G37*
G36*
X189596Y287389D02*
X189696Y287307D01*
X189801Y287235D01*
X189909Y287173D01*
X190022Y287120D01*
X190139Y287077D01*
X190260Y287043D01*
X190385Y287019D01*
X190514Y287005D01*
X190648Y287000D01*
Y286000D01*
X190514Y285995D01*
X190385Y285981D01*
X190260Y285957D01*
X190139Y285923D01*
X190022Y285880D01*
X189909Y285827D01*
X189801Y285765D01*
X189696Y285693D01*
X189596Y285611D01*
X189500Y285520D01*
Y287480D01*
X189596Y287389D01*
D02*
G37*
G36*
X295304Y266614D02*
X295218Y266620D01*
X295130Y266614D01*
X295041Y266597D01*
X294949Y266568D01*
X294855Y266527D01*
X294759Y266474D01*
X294660Y266410D01*
X294560Y266334D01*
X294458Y266246D01*
X294354Y266146D01*
X293647Y266853D01*
X293746Y266958D01*
X293834Y267060D01*
X293910Y267161D01*
X293974Y267259D01*
X294027Y267355D01*
X294068Y267449D01*
X294097Y267541D01*
X294114Y267631D01*
X294120Y267718D01*
X294114Y267804D01*
X295304Y266614D01*
D02*
G37*
G36*
X273596Y267389D02*
X273696Y267307D01*
X273801Y267235D01*
X273909Y267173D01*
X274022Y267120D01*
X274139Y267077D01*
X274260Y267043D01*
X274385Y267019D01*
X274514Y267005D01*
X274648Y267000D01*
Y266000D01*
X274514Y265995D01*
X274385Y265981D01*
X274260Y265957D01*
X274139Y265923D01*
X274022Y265880D01*
X273909Y265827D01*
X273801Y265765D01*
X273696Y265693D01*
X273596Y265611D01*
X273500Y265520D01*
Y267480D01*
X273596Y267389D01*
D02*
G37*
G36*
X318500Y237020D02*
X318404Y237111D01*
X318304Y237193D01*
X318199Y237265D01*
X318091Y237327D01*
X317978Y237380D01*
X317861Y237423D01*
X317740Y237457D01*
X317615Y237481D01*
X317486Y237495D01*
X317352Y237500D01*
Y238500D01*
X317486Y238505D01*
X317615Y238519D01*
X317740Y238543D01*
X317861Y238577D01*
X317978Y238620D01*
X318091Y238673D01*
X318199Y238735D01*
X318304Y238807D01*
X318404Y238889D01*
X318500Y238980D01*
Y237020D01*
D02*
G37*
G36*
X310005Y210014D02*
X310019Y209885D01*
X310043Y209760D01*
X310077Y209639D01*
X310120Y209522D01*
X310173Y209409D01*
X310235Y209301D01*
X310307Y209196D01*
X310389Y209096D01*
X310480Y209000D01*
X308520D01*
X308611Y209096D01*
X308693Y209196D01*
X308765Y209301D01*
X308827Y209409D01*
X308880Y209522D01*
X308923Y209639D01*
X308957Y209760D01*
X308981Y209885D01*
X308995Y210014D01*
X309000Y210148D01*
X310000D01*
X310005Y210014D01*
D02*
G37*
G36*
X308691Y206857D02*
X308579Y206932D01*
X308465Y206999D01*
X308349Y207057D01*
X308231Y207109D01*
X308110Y207152D01*
X307988Y207187D01*
X307864Y207215D01*
X307737Y207234D01*
X307609Y207246D01*
X307478Y207250D01*
X307282Y208250D01*
X307418Y208255D01*
X307547Y208271D01*
X307670Y208298D01*
X307786Y208336D01*
X307895Y208384D01*
X307997Y208443D01*
X308093Y208512D01*
X308183Y208593D01*
X308265Y208684D01*
X308341Y208786D01*
X308691Y206857D01*
D02*
G37*
G36*
X195936Y261449D02*
X195897Y261387D01*
X195863Y261314D01*
X195833Y261228D01*
X195808Y261132D01*
X195787Y261024D01*
X195771Y260905D01*
X195752Y260631D01*
X195750Y260478D01*
X194250D01*
X194248Y260631D01*
X194213Y261024D01*
X194193Y261132D01*
X194167Y261228D01*
X194137Y261314D01*
X194103Y261387D01*
X194064Y261449D01*
X194020Y261500D01*
X195980D01*
X195936Y261449D01*
D02*
G37*
G36*
X209812Y232761D02*
X209866Y232749D01*
X209944Y232739D01*
X210174Y232722D01*
X211185Y232705D01*
Y231705D01*
X209784Y231636D01*
Y232774D01*
X209812Y232761D01*
D02*
G37*
G36*
X206593Y235999D02*
X206861Y235825D01*
X207151Y235692D01*
X207464Y235600D01*
X207800Y235548D01*
X208157Y235536D01*
X208537Y235565D01*
X208940Y235634D01*
X209364Y235744D01*
X209812Y235895D01*
X207469Y230906D01*
X207251Y231516D01*
X206125Y234128D01*
X205968Y234389D01*
X205819Y234600D01*
X205679Y234761D01*
X206347Y236213D01*
X206593Y235999D01*
D02*
G37*
G36*
X352500Y196270D02*
X352404Y196361D01*
X352304Y196443D01*
X352199Y196515D01*
X352091Y196577D01*
X351978Y196630D01*
X351861Y196673D01*
X351740Y196707D01*
X351615Y196731D01*
X351486Y196745D01*
X351352Y196750D01*
Y197750D01*
X351486Y197755D01*
X351615Y197769D01*
X351740Y197793D01*
X351861Y197827D01*
X351978Y197870D01*
X352091Y197923D01*
X352199Y197985D01*
X352304Y198057D01*
X352404Y198139D01*
X352500Y198230D01*
Y196270D01*
D02*
G37*
G36*
X159905Y223002D02*
X159820Y222972D01*
X159745Y222922D01*
X159680Y222852D01*
X159625Y222762D01*
X159623Y222756D01*
X160000D01*
X159905Y222746D01*
X159820Y222716D01*
X159745Y222666D01*
X159680Y222596D01*
X159625Y222506D01*
X159580Y222396D01*
X159545Y222266D01*
X159520Y222116D01*
X159505Y221946D01*
X159500Y221756D01*
X158500D01*
X158495Y221946D01*
X158480Y222116D01*
X158455Y222266D01*
X158420Y222396D01*
X158375Y222506D01*
X158320Y222596D01*
X158255Y222666D01*
X158180Y222716D01*
X158095Y222746D01*
X158000Y222756D01*
X158377D01*
X158375Y222762D01*
X158320Y222852D01*
X158255Y222922D01*
X158180Y222972D01*
X158095Y223002D01*
X158000Y223012D01*
X160000D01*
X159905Y223002D01*
D02*
G37*
G36*
X235000Y198520D02*
X234904Y198611D01*
X234804Y198693D01*
X234699Y198765D01*
X234591Y198827D01*
X234478Y198880D01*
X234361Y198923D01*
X234240Y198957D01*
X234115Y198981D01*
X233986Y198995D01*
X233852Y199000D01*
Y200000D01*
X233986Y200005D01*
X234115Y200019D01*
X234240Y200043D01*
X234361Y200077D01*
X234478Y200120D01*
X234591Y200173D01*
X234699Y200235D01*
X234804Y200307D01*
X234904Y200389D01*
X235000Y200480D01*
Y198520D01*
D02*
G37*
G36*
X236889Y198404D02*
X236807Y198304D01*
X236735Y198199D01*
X236673Y198091D01*
X236620Y197978D01*
X236577Y197861D01*
X236543Y197740D01*
X236519Y197615D01*
X236505Y197486D01*
X236500Y197352D01*
X235500D01*
X235495Y197486D01*
X235481Y197615D01*
X235457Y197740D01*
X235423Y197861D01*
X235380Y197978D01*
X235327Y198091D01*
X235265Y198199D01*
X235193Y198304D01*
X235111Y198404D01*
X235020Y198500D01*
X236980D01*
X236889Y198404D01*
D02*
G37*
G36*
X147357Y222741D02*
X147230Y222696D01*
X147117Y222621D01*
X147020Y222516D01*
X146938Y222381D01*
X146870Y222216D01*
X146818Y222021D01*
X146780Y221796D01*
X146757Y221541D01*
X146750Y221256D01*
X145250D01*
X145243Y221541D01*
X145220Y221796D01*
X145183Y222021D01*
X145130Y222216D01*
X145062Y222381D01*
X144980Y222516D01*
X144883Y222621D01*
X144770Y222696D01*
X144642Y222741D01*
X144500Y222756D01*
X147500D01*
X147357Y222741D01*
D02*
G37*
G36*
X146752Y182869D02*
X146787Y182476D01*
X146808Y182368D01*
X146833Y182272D01*
X146863Y182186D01*
X146897Y182113D01*
X146936Y182051D01*
X146980Y182000D01*
X145020D01*
X145064Y182051D01*
X145103Y182113D01*
X145137Y182186D01*
X145167Y182272D01*
X145193Y182368D01*
X145213Y182476D01*
X145229Y182595D01*
X145248Y182869D01*
X145250Y183022D01*
X146750D01*
X146752Y182869D01*
D02*
G37*
G36*
X170405Y192919D02*
X170421Y192848D01*
X170449Y192771D01*
X170488Y192690D01*
X170538Y192604D01*
X170600Y192513D01*
X170673Y192417D01*
X170853Y192211D01*
X170960Y192101D01*
X169899Y191040D01*
X169789Y191147D01*
X169487Y191400D01*
X169396Y191462D01*
X169310Y191512D01*
X169229Y191551D01*
X169152Y191579D01*
X169081Y191595D01*
X169014Y191600D01*
X170400Y192986D01*
X170405Y192919D01*
D02*
G37*
G36*
X206500Y169520D02*
X206449Y169564D01*
X206387Y169603D01*
X206313Y169637D01*
X206228Y169667D01*
X206132Y169693D01*
X206024Y169713D01*
X205905Y169729D01*
X205631Y169748D01*
X205478Y169750D01*
Y171250D01*
X205631Y171252D01*
X206024Y171287D01*
X206132Y171308D01*
X206228Y171333D01*
X206313Y171363D01*
X206387Y171397D01*
X206449Y171436D01*
X206500Y171480D01*
Y169520D01*
D02*
G37*
G36*
X249655Y190669D02*
X249671Y190597D01*
X249699Y190521D01*
X249738Y190440D01*
X249788Y190354D01*
X249850Y190263D01*
X249923Y190167D01*
X250103Y189961D01*
X250210Y189850D01*
X249149Y188790D01*
X249039Y188897D01*
X248737Y189150D01*
X248646Y189212D01*
X248560Y189262D01*
X248479Y189301D01*
X248403Y189329D01*
X248331Y189345D01*
X248264Y189350D01*
X249650Y190736D01*
X249655Y190669D01*
D02*
G37*
G36*
X332500Y164020D02*
X332449Y164064D01*
X332387Y164103D01*
X332313Y164137D01*
X332228Y164167D01*
X332132Y164192D01*
X332024Y164213D01*
X331905Y164229D01*
X331631Y164248D01*
X331478Y164250D01*
Y165750D01*
X331631Y165752D01*
X332024Y165787D01*
X332132Y165807D01*
X332228Y165833D01*
X332313Y165863D01*
X332387Y165897D01*
X332449Y165936D01*
X332500Y165980D01*
Y164020D01*
D02*
G37*
D30*
X274000Y165000D02*
X333500D01*
X248250Y190750D02*
X274000Y165000D01*
X146000Y181000D02*
Y225500D01*
X191500Y170500D02*
X207500D01*
X169000Y193000D02*
X191500Y170500D01*
X195000Y246500D02*
Y262500D01*
Y246500D02*
X209295Y232205D01*
D31*
X339500Y303000D02*
Y425000D01*
X328500Y436000D02*
X339500Y425000D01*
X299000Y436000D02*
X328500D01*
X330500Y442000D02*
X343500Y429000D01*
Y300500D02*
Y429000D01*
X333876Y290876D02*
X343500Y300500D01*
X334000Y297500D02*
X339500Y303000D01*
X331000Y273000D02*
X351000Y293000D01*
Y403000D01*
X325500Y297500D02*
X334000D01*
X325124Y290876D02*
X333876D01*
X294000Y442000D02*
X330500D01*
X158500Y291500D02*
X284500D01*
X158500Y311500D02*
X297500D01*
X198000Y321500D02*
X281000D01*
X298500Y339000D01*
X262500Y412000D02*
X269500Y405000D01*
X162500Y412000D02*
X262500D01*
X161400Y410900D02*
X162500Y412000D01*
X235500Y344000D02*
X248500Y357000D01*
X155000Y344000D02*
X235500D01*
X232000Y348000D02*
X240500Y356500D01*
X146000Y348000D02*
X232000D01*
X158500Y321500D02*
X164500Y315500D01*
X241500D01*
X167500Y199500D02*
X236000D01*
X159000Y208000D02*
X167500Y199500D01*
X159000Y208000D02*
Y225500D01*
X236000Y192136D02*
Y199500D01*
Y192136D02*
X245818Y182318D01*
X323000Y273000D02*
X331000D01*
X294000Y266500D02*
X295500Y268000D01*
X272500Y266500D02*
X294000D01*
X142500Y311500D02*
X146000D01*
X155000Y439500D02*
X275000D01*
X276000Y438500D01*
X158500Y276000D02*
Y281500D01*
X142000Y273500D02*
X156000D01*
X158500Y276000D01*
X141000Y313000D02*
X142500Y311500D01*
X141000Y313000D02*
Y343000D01*
X146000Y348000D01*
X138000Y277500D02*
X142000Y273500D01*
X138000Y277500D02*
Y345000D01*
X146000Y301500D02*
X150500Y306000D01*
Y339500D01*
X155000Y344000D01*
X153500Y316500D02*
X158500Y321500D01*
X146000Y291500D02*
X147500D01*
X153500Y297500D01*
Y316500D01*
X328500Y342500D02*
Y411000D01*
X297500Y311500D02*
X328500Y342500D01*
X185000Y321500D02*
Y331500D01*
X301000Y431500D02*
X302200Y430300D01*
X330887D01*
X336500Y424687D01*
X307500Y427500D02*
X325000D01*
X284500Y291500D02*
X333000Y340000D01*
Y419500D01*
X325000Y427500D02*
X333000Y419500D01*
X284500Y445000D02*
X333000D01*
X347500Y430500D01*
Y297000D02*
Y430500D01*
X328000Y277500D02*
X347500Y297000D01*
X336500Y337500D02*
Y424687D01*
X259500Y280500D02*
X279500D01*
X336500Y337500D01*
X263500Y277500D02*
X328000D01*
X253000Y353500D02*
Y377000D01*
X257000Y271000D02*
X263500Y277500D01*
X223500Y210500D02*
X253500Y240500D01*
Y274500D01*
X259500Y280500D01*
X235000Y211000D02*
Y213000D01*
X260500Y238500D02*
Y261500D01*
X235000Y213000D02*
X260500Y238500D01*
X229500Y204000D02*
Y212500D01*
X257000Y240000D01*
Y271000D01*
X272500Y317000D02*
X283500D01*
X287500Y321000D01*
X249500Y432000D02*
X264000D01*
X236500Y419000D02*
X249500Y432000D01*
X173687Y419000D02*
X236500D01*
X154000Y360500D02*
X161000D01*
X159000Y380500D02*
X161000D01*
X264800Y435800D02*
X265500Y436500D01*
X154500Y385000D02*
X159000Y380500D01*
X154500Y385000D02*
Y422500D01*
X151500Y375000D02*
X156000Y370500D01*
X161000D01*
X148500Y366000D02*
X154000Y360500D01*
X148500Y366000D02*
Y433000D01*
X155000Y439500D01*
X236000Y431500D02*
X237000Y430500D01*
X209500Y431500D02*
X236000D01*
X222000Y389000D02*
Y390000D01*
X161000Y400500D02*
X164000D01*
X172900Y409400D01*
X251600D01*
X253000Y408000D01*
X222000Y390000D02*
X239000Y407000D01*
X247000D01*
X248000Y406000D01*
X235500Y391500D02*
X252000D01*
X247000Y383000D02*
X253000Y377000D01*
X238500Y383000D02*
X247000D01*
X233000Y387000D02*
X250000D01*
X138000Y345000D02*
X145000Y352000D01*
X183500Y403500D02*
X226000D01*
X145000Y352000D02*
X170500D01*
X241500Y403500D02*
X243000D01*
X216500Y358000D02*
X227000Y368500D01*
Y389000D01*
X241500Y403500D01*
X182000Y359000D02*
X189500Y351500D01*
X182000Y359000D02*
Y390500D01*
X170500Y352000D02*
X176000Y357500D01*
Y396000D01*
X183500Y403500D01*
X209295Y232205D02*
X211185D01*
X309500Y208000D02*
X320250Y197250D01*
X353500D01*
X236000Y199500D02*
X244250Y207750D01*
X309250D01*
X309500Y208000D02*
Y234500D01*
X313000Y238000D01*
X319500D01*
X189500Y351500D02*
X225000D01*
X239500Y366000D01*
X319000Y362000D02*
X319500Y362500D01*
Y379500D01*
X151500Y375000D02*
Y431500D01*
X155800Y435800D01*
X264800D01*
X154500Y422500D02*
X157500Y425500D01*
X167187D01*
X173687Y419000D01*
X161500Y420000D02*
X166500D01*
X170500Y416000D01*
X267500D01*
X314000Y385000D02*
X319500Y379500D01*
X292500Y385000D02*
X314000D01*
X267500Y416000D02*
X286000Y397500D01*
Y347000D02*
Y397500D01*
X285500Y346500D02*
X286000Y347000D01*
X269500Y355000D02*
Y405000D01*
X189500Y286500D02*
X250000D01*
X284000Y340500D02*
X287000D01*
X269500Y355000D02*
X284000Y340500D01*
X240500Y335000D02*
X286000D01*
X250000Y345000D02*
X256000Y351000D01*
X259500Y349000D02*
Y350500D01*
X257000Y346500D02*
X259500Y349000D01*
X256000Y351000D02*
Y381000D01*
X250000Y387000D02*
X256000Y381000D01*
X259500Y349000D02*
Y384000D01*
X252000Y391500D02*
X259500Y384000D01*
X244500Y327500D02*
X245000Y328000D01*
X282000D01*
X185000Y331500D02*
X194000Y340500D01*
X240000D01*
X253000Y353500D01*
D33*
X384500Y153500D02*
Y191500D01*
X331000Y153500D02*
X384500D01*
X130000Y481000D02*
X384500D01*
Y406000D02*
Y481000D01*
X130000Y153500D02*
X331000D01*
X130000D02*
Y481000D01*
X384500Y191500D02*
Y406000D01*
D34*
X233023Y173699D02*
D03*
X248377D02*
D03*
D35*
X251822Y165234D02*
D03*
X229578D02*
D03*
D36*
X355876Y271150D02*
D03*
X355867Y302640D02*
D03*
D37*
X216500Y445000D02*
D03*
Y425000D02*
D03*
X205000Y372500D02*
D03*
X196000D02*
D03*
D38*
X159000Y255500D02*
D03*
Y245500D02*
D03*
Y235500D02*
D03*
X146000Y255500D02*
D03*
Y245500D02*
D03*
Y235500D02*
D03*
X171500Y255500D02*
D03*
Y245500D02*
D03*
Y235500D02*
D03*
X288000Y225833D02*
D03*
Y212500D02*
D03*
Y199167D02*
D03*
Y185833D02*
D03*
X146000Y321500D02*
D03*
Y311500D02*
D03*
Y301500D02*
D03*
Y291500D02*
D03*
X158500Y321500D02*
D03*
Y311500D02*
D03*
Y301500D02*
D03*
Y291500D02*
D03*
D39*
X159000Y225500D02*
D03*
X146000D02*
D03*
X171500D02*
D03*
X146000Y281500D02*
D03*
X158500D02*
D03*
D40*
X278000Y225833D02*
D03*
Y212500D02*
D03*
Y199167D02*
D03*
Y185833D02*
D03*
D41*
X228901Y257795D02*
D03*
Y232205D02*
D03*
X211185D02*
D03*
Y257795D02*
D03*
D42*
X366500Y433000D02*
D03*
X161000Y430500D02*
D03*
D43*
X366500Y423000D02*
D03*
Y413000D02*
D03*
Y403000D02*
D03*
Y393000D02*
D03*
Y383000D02*
D03*
Y373000D02*
D03*
Y363000D02*
D03*
X161000Y420500D02*
D03*
Y410500D02*
D03*
Y400500D02*
D03*
Y390500D02*
D03*
Y380500D02*
D03*
Y370500D02*
D03*
Y360500D02*
D03*
D44*
X245500Y469000D02*
D03*
D45*
X255500D02*
D03*
X265500D02*
D03*
X275500D02*
D03*
X285500D02*
D03*
X295500D02*
D03*
X305500D02*
D03*
X315500D02*
D03*
D46*
X328500Y411000D02*
D03*
X325500Y297500D02*
D03*
X351000Y403000D02*
D03*
X325124Y290876D02*
D03*
X198000Y321500D02*
D03*
X248500Y357000D02*
D03*
X333500Y165000D02*
D03*
X309500Y208000D02*
D03*
X248250Y190750D02*
D03*
X241500Y315500D02*
D03*
X146000Y181000D02*
D03*
X169000Y193000D02*
D03*
X207500Y170500D02*
D03*
X236000Y199500D02*
D03*
X245818Y182318D02*
D03*
X195000Y262500D02*
D03*
X323000Y273000D02*
D03*
X298500Y339000D02*
D03*
X295500Y268000D02*
D03*
X272500Y266500D02*
D03*
X240500Y356500D02*
D03*
X226000Y403500D02*
D03*
X299000Y436000D02*
D03*
X294000Y442000D02*
D03*
X284500Y445000D02*
D03*
X276000Y438500D02*
D03*
X237000Y430500D02*
D03*
X235000Y211000D02*
D03*
X223500Y210500D02*
D03*
X229500Y204000D02*
D03*
X185000Y321500D02*
D03*
X188500Y286500D02*
D03*
X307500Y427500D02*
D03*
X301000Y431500D02*
D03*
X260500Y261500D02*
D03*
X272500Y317000D02*
D03*
X287500Y321000D02*
D03*
X265500Y436500D02*
D03*
X264000Y432000D02*
D03*
X209500Y431500D02*
D03*
X248000Y406000D02*
D03*
X253000Y408000D02*
D03*
X222000Y389000D02*
D03*
X243000Y403500D02*
D03*
X235500Y391500D02*
D03*
X233000Y387000D02*
D03*
X238500Y383000D02*
D03*
X216500Y358000D02*
D03*
X182000Y390500D02*
D03*
X353500Y197250D02*
D03*
X319500Y238000D02*
D03*
X239500Y366000D02*
D03*
X319000Y362000D02*
D03*
X229500Y315500D02*
D03*
X292500Y385000D02*
D03*
X282000Y390500D02*
D03*
X274000Y391500D02*
D03*
X287000Y340500D02*
D03*
X285500Y346500D02*
D03*
X250000Y345000D02*
D03*
Y286500D02*
D03*
X286000Y335000D02*
D03*
X257000Y346500D02*
D03*
X282000Y328000D02*
D03*
D47*
X244500Y327500D02*
D03*
X240500Y335000D02*
D03*
M02*
