G04 Layer_Color=65535*
%FSLAX25Y25*%
%MOIN*%
G70*
G01*
G75*
D31*
X226500Y445000D02*
G03*
X206500Y445000I-10000J0D01*
G01*
Y425000D02*
G03*
X226500Y425000I10000J0D01*
G01*
X247500Y212333D02*
G03*
X247500Y212333I-500J0D01*
G01*
X227123Y245180D02*
G03*
X227123Y245180I-6890J0D01*
G01*
X223183D02*
G03*
X223183Y245180I-2950J0D01*
G01*
X226500Y425000D02*
Y445000D01*
X206500Y425000D02*
Y445000D01*
X154000Y230500D02*
X164000D01*
X154000Y220500D02*
X164000D01*
X154000D02*
Y260500D01*
X164000D01*
Y220500D02*
Y260500D01*
X141000Y230500D02*
X151000D01*
X141000Y220500D02*
X151000D01*
X141000D02*
Y260500D01*
X151000D01*
Y220500D02*
Y260500D01*
X166500Y230500D02*
X176500D01*
X166500Y220500D02*
X176500D01*
X166500D02*
Y260500D01*
X176500D01*
Y220500D02*
Y260500D01*
X283000Y220833D02*
Y230833D01*
X273000Y220833D02*
Y230833D01*
X293000D01*
Y220833D02*
Y230833D01*
X273000Y220833D02*
X293000D01*
X231859Y233595D02*
Y256424D01*
X208635Y233595D02*
X231859D01*
X208635D02*
Y256424D01*
X231859D01*
X283000Y207500D02*
Y217500D01*
X273000Y207500D02*
Y217500D01*
X293000D01*
Y207500D02*
Y217500D01*
X273000Y207500D02*
X293000D01*
X283000Y194167D02*
Y204167D01*
X273000Y194167D02*
Y204167D01*
X293000D01*
Y194167D02*
Y204167D01*
X273000Y194167D02*
X293000D01*
X283000Y180833D02*
Y190833D01*
X273000Y180833D02*
Y190833D01*
X293000D01*
Y180833D02*
Y190833D01*
X273000Y180833D02*
X293000D01*
X141000Y286500D02*
X151000D01*
X141000Y276500D02*
X151000D01*
X141000D02*
Y326500D01*
X151000D01*
Y276500D02*
Y326500D01*
X153500Y286500D02*
X163500D01*
X153500Y276500D02*
X163500D01*
X153500D02*
Y326500D01*
X163500D01*
Y276500D02*
Y326500D01*
X361500Y358000D02*
Y438000D01*
Y358000D02*
X371500D01*
Y438000D01*
X361500D02*
X371500D01*
X361500Y428000D02*
X371500D01*
X156000Y355500D02*
Y435500D01*
Y355500D02*
X166000D01*
Y435500D01*
X156000D02*
X166000D01*
X156000Y425500D02*
X166000D01*
X240500Y464000D02*
X320500D01*
Y474000D01*
X240500D02*
X320500D01*
X240500Y464000D02*
Y474000D01*
X250500Y464000D02*
Y474000D01*
X328500Y334998D02*
Y330000D01*
X329500Y329000D01*
X331499D01*
X332499Y330000D01*
Y334998D01*
X338497Y329000D02*
X334498D01*
X338497Y332999D01*
Y333998D01*
X337497Y334998D01*
X335498D01*
X334498Y333998D01*
X259000Y426498D02*
Y421500D01*
X260000Y420500D01*
X261999D01*
X262999Y421500D01*
Y426498D01*
X264998Y420500D02*
X266997D01*
X265998D01*
Y426498D01*
X264998Y425498D01*
D33*
X360500Y212500D02*
G03*
X365500Y212500I2500J0D01*
G01*
X248000Y448500D02*
X253000D01*
X248000Y438000D02*
Y448500D01*
X253000Y438000D02*
Y448500D01*
X248000Y438000D02*
X253000D01*
X235000Y370000D02*
Y374200D01*
Y376200D02*
Y380400D01*
X230000Y376200D02*
Y380400D01*
Y370000D02*
Y374200D01*
Y370000D02*
X235000D01*
X230000Y380500D02*
X235000D01*
X253000Y420000D02*
Y424200D01*
Y426200D02*
Y430400D01*
X248000Y426200D02*
Y430400D01*
Y420000D02*
Y424200D01*
Y420000D02*
X253000D01*
X248000Y430500D02*
X253000D01*
X316500Y419500D02*
X320700D01*
X322700D02*
X326900D01*
X322700Y424500D02*
X326900D01*
X316500D02*
X320700D01*
X316500Y419500D02*
Y424500D01*
X327000Y419500D02*
Y424500D01*
X319800Y357000D02*
X324000D01*
X313600D02*
X317800D01*
X313600Y352000D02*
X317800D01*
X319800D02*
X324000D01*
Y357000D01*
X313500Y352000D02*
Y357000D01*
X289500Y271900D02*
Y276900D01*
X279000D02*
X289500D01*
X279000Y271900D02*
X289500D01*
X279000D02*
Y276900D01*
X289500Y264000D02*
Y269000D01*
X279000D02*
X289500D01*
X279000Y264000D02*
X289500D01*
X279000D02*
Y269000D01*
Y254000D02*
X283200D01*
X285200D02*
X289400D01*
X285200Y259000D02*
X289400D01*
X279000D02*
X283200D01*
X279000Y254000D02*
Y259000D01*
X289500Y254000D02*
Y259000D01*
Y303500D02*
Y308500D01*
X279000D02*
X289500D01*
X279000Y303500D02*
X289500D01*
X279000D02*
Y308500D01*
X289500Y295600D02*
Y300600D01*
X279000D02*
X289500D01*
X279000Y295600D02*
X289500D01*
X279000D02*
Y300600D01*
X289500Y287700D02*
Y292700D01*
X279000D02*
X289500D01*
X279000Y287700D02*
X289500D01*
X279000D02*
Y292700D01*
X289500Y280000D02*
Y285000D01*
X279000D02*
X289500D01*
X279000Y280000D02*
X289500D01*
X279000D02*
Y285000D01*
X224500Y375500D02*
Y379700D01*
Y381700D02*
Y385900D01*
X219500Y381700D02*
Y385900D01*
Y375500D02*
Y379700D01*
Y375500D02*
X224500D01*
X219500Y386000D02*
X224500D01*
X219500Y361800D02*
Y366000D01*
Y355600D02*
Y359800D01*
X224500Y355600D02*
Y359800D01*
Y361800D02*
Y366000D01*
X219500D02*
X224500D01*
X219500Y355500D02*
X224500D01*
X172500Y319000D02*
Y324000D01*
Y319000D02*
X183000D01*
X172500Y324000D02*
X183000D01*
Y319000D02*
Y324000D01*
X203000Y442500D02*
Y446700D01*
Y448700D02*
Y452900D01*
X198000Y448700D02*
Y452900D01*
Y442500D02*
Y446700D01*
Y442500D02*
X203000D01*
X198000Y453000D02*
X203000D01*
X189500Y329500D02*
X194500D01*
X189500Y319000D02*
Y329500D01*
X194500Y319000D02*
Y329500D01*
X189500Y319000D02*
X194500D01*
X203000Y329500D02*
X208000D01*
X203000Y319000D02*
Y329500D01*
X208000Y319000D02*
Y329500D01*
X203000Y319000D02*
X208000D01*
X225000D02*
Y323200D01*
Y325200D02*
Y329400D01*
X220000Y325200D02*
Y329400D01*
Y319000D02*
Y323200D01*
Y319000D02*
X225000D01*
X220000Y329500D02*
X225000D01*
X217000Y319000D02*
Y323200D01*
Y325200D02*
Y329400D01*
X212000Y325200D02*
Y329400D01*
Y319000D02*
Y323200D01*
Y319000D02*
X217000D01*
X212000Y329500D02*
X217000D01*
X198000Y428800D02*
Y433000D01*
Y422600D02*
Y426800D01*
X203000Y422600D02*
Y426800D01*
Y428800D02*
Y433000D01*
X198000D02*
X203000D01*
X198000Y422500D02*
X203000D01*
X180500Y284000D02*
X185500D01*
Y294500D01*
X180500Y284000D02*
Y294500D01*
X185500D01*
X211300Y284000D02*
X215500D01*
X205100D02*
X209300D01*
X205100Y279000D02*
X209300D01*
X211300D02*
X215500D01*
Y284000D01*
X205000Y279000D02*
Y284000D01*
X218500Y279000D02*
Y284000D01*
Y279000D02*
X229000D01*
X218500Y284000D02*
X229000D01*
Y279000D02*
Y284000D01*
X305300Y357000D02*
X309500D01*
X299100D02*
X303300D01*
X299100Y352000D02*
X303300D01*
X305300D02*
X309500D01*
Y357000D01*
X299000Y352000D02*
Y357000D01*
X262500Y340000D02*
X267500D01*
X262500Y329500D02*
Y340000D01*
X267500Y329500D02*
Y340000D01*
X262500Y329500D02*
X267500D01*
X245500Y234333D02*
X249700D01*
X251700D02*
X255900D01*
X251700Y239333D02*
X255900D01*
X245500D02*
X249700D01*
X245500Y234333D02*
Y239333D01*
X256000Y234333D02*
Y239333D01*
X245500Y221333D02*
X249700D01*
X251700D02*
X255900D01*
X251700Y226333D02*
X255900D01*
X245500D02*
X249700D01*
X245500Y221333D02*
Y226333D01*
X256000Y221333D02*
Y226333D01*
X336000Y178500D02*
Y183500D01*
X325500D02*
X336000D01*
X325500Y178500D02*
X336000D01*
X325500D02*
Y183500D01*
X312300Y173500D02*
X316500D01*
X306100D02*
X310300D01*
X306100Y168500D02*
X310300D01*
X312300D02*
X316500D01*
Y173500D01*
X306000Y168500D02*
Y173500D01*
X311500Y179833D02*
X316500D01*
Y190333D01*
X311500Y179833D02*
Y190333D01*
X316500D01*
X317800Y203833D02*
X322000D01*
X311600D02*
X315800D01*
X311600Y198833D02*
X315800D01*
X317800D02*
X322000D01*
Y203833D01*
X311500Y198833D02*
Y203833D01*
X197500Y230000D02*
Y235000D01*
X187000D02*
X197500D01*
X187000Y230000D02*
X197500D01*
X187000D02*
Y235000D01*
X163000Y171000D02*
X168000D01*
Y181500D01*
X163000Y171000D02*
Y181500D01*
X168000D01*
X325500Y185500D02*
Y190500D01*
Y185500D02*
X336000D01*
X325500Y190500D02*
X336000D01*
Y185500D02*
Y190500D01*
X221000Y175500D02*
Y179700D01*
Y181700D02*
Y185900D01*
X216000Y181700D02*
Y185900D01*
Y175500D02*
Y179700D01*
Y175500D02*
X221000D01*
X216000Y186000D02*
X221000D01*
X210000Y175500D02*
Y179700D01*
Y181700D02*
Y185900D01*
X205000Y181700D02*
Y185900D01*
Y175500D02*
Y179700D01*
Y175500D02*
X210000D01*
X205000Y186000D02*
X210000D01*
X161000Y183500D02*
Y187700D01*
Y189700D02*
Y193900D01*
X156000Y189700D02*
Y193900D01*
Y183500D02*
Y187700D01*
Y183500D02*
X161000D01*
X156000Y194000D02*
X161000D01*
X147000Y183500D02*
Y187700D01*
Y189700D02*
Y193900D01*
X142000Y189700D02*
Y193900D01*
Y183500D02*
Y187700D01*
Y183500D02*
X147000D01*
X142000Y194000D02*
X147000D01*
X340000Y178500D02*
X345000D01*
Y189000D01*
X340000Y178500D02*
Y189000D01*
X345000D01*
X369500Y200000D02*
Y212500D01*
X356500Y200000D02*
X369500D01*
X356500D02*
Y212500D01*
X360500D01*
X365500D02*
X369500D01*
X193300Y253000D02*
X197500D01*
X187100D02*
X191300D01*
X187100Y248000D02*
X191300D01*
X193300D02*
X197500D01*
Y253000D01*
X187000Y248000D02*
Y253000D01*
X338500Y219833D02*
Y224833D01*
X328000D02*
X338500D01*
X328000Y219833D02*
X338500D01*
X328000D02*
Y224833D01*
X356000Y184000D02*
Y188200D01*
Y190200D02*
Y194400D01*
X351000Y190200D02*
Y194400D01*
Y184000D02*
Y188200D01*
Y184000D02*
X356000D01*
X351000Y194500D02*
X356000D01*
X340000Y205000D02*
X345000D01*
Y215500D01*
X340000Y205000D02*
Y215500D01*
X345000D01*
X327500Y205800D02*
Y210000D01*
Y199600D02*
Y203800D01*
X332500Y199600D02*
Y203800D01*
Y205800D02*
Y210000D01*
X327500D02*
X332500D01*
X327500Y199500D02*
X332500D01*
X322000Y215333D02*
Y220333D01*
X311500D02*
X322000D01*
X311500Y215333D02*
X322000D01*
X311500D02*
Y220333D01*
Y229333D02*
X315700D01*
X317700D02*
X321900D01*
X317700Y234333D02*
X321900D01*
X311500D02*
X315700D01*
X311500Y229333D02*
Y234333D01*
X322000Y229333D02*
Y234333D01*
X263998Y173500D02*
X259000Y170168D01*
X263998D02*
X259000Y173500D01*
X263165Y165169D02*
X263998Y166002D01*
Y167669D01*
X263165Y168502D01*
X262332D01*
X261499Y167669D01*
Y166002D01*
X260666Y165169D01*
X259833D01*
X259000Y166002D01*
Y167669D01*
X259833Y168502D01*
X259000Y163503D02*
Y161837D01*
Y162670D01*
X263998D01*
X263165Y163503D01*
X207000Y410998D02*
X210332Y406000D01*
Y410998D02*
X207000Y406000D01*
X215331D02*
X211998D01*
X215331Y409332D01*
Y410165D01*
X214498Y410998D01*
X212831D01*
X211998Y410165D01*
X234000Y220998D02*
Y216833D01*
X234833Y216000D01*
X236499D01*
X237332Y216833D01*
Y220998D01*
X242331D02*
X238998D01*
Y218499D01*
X240665Y219332D01*
X241498D01*
X242331Y218499D01*
Y216833D01*
X241498Y216000D01*
X239831D01*
X238998Y216833D01*
X262000Y343000D02*
Y346999D01*
X263999D01*
X264666Y346332D01*
Y344999D01*
X263999Y344333D01*
X262000D01*
X263333D02*
X264666Y343000D01*
X265999Y346332D02*
X266665Y346999D01*
X267998D01*
X268665Y346332D01*
Y345666D01*
X267998Y344999D01*
X267332D01*
X267998D01*
X268665Y344333D01*
Y343666D01*
X267998Y343000D01*
X266665D01*
X265999Y343666D01*
X218166Y171832D02*
X217499Y172499D01*
X216166D01*
X215500Y171832D01*
Y169167D01*
X216166Y168500D01*
X217499D01*
X218166Y169167D01*
X219499Y171832D02*
X220165Y172499D01*
X221498D01*
X222165Y171832D01*
Y171166D01*
X221498Y170499D01*
X222165Y169833D01*
Y169167D01*
X221498Y168500D01*
X220165D01*
X219499Y169167D01*
Y169833D01*
X220165Y170499D01*
X219499Y171166D01*
Y171832D01*
X220165Y170499D02*
X221498D01*
X206666Y172332D02*
X205999Y172999D01*
X204666D01*
X204000Y172332D01*
Y169667D01*
X204666Y169000D01*
X205999D01*
X206666Y169667D01*
X210665Y172999D02*
X209332Y172332D01*
X207999Y170999D01*
Y169667D01*
X208665Y169000D01*
X209998D01*
X210665Y169667D01*
Y170333D01*
X209998Y170999D01*
X207999D01*
X157282Y334948D02*
X155616D01*
X156449D01*
Y330783D01*
X155616Y329950D01*
X154783D01*
X153950Y330783D01*
X158948Y329950D02*
X160615D01*
X159781D01*
Y334948D01*
X158948Y334115D01*
X144782Y334948D02*
X143116D01*
X143949D01*
Y330783D01*
X143116Y329950D01*
X142283D01*
X141450Y330783D01*
X149781Y329950D02*
X146448D01*
X149781Y333282D01*
Y334115D01*
X148948Y334948D01*
X147281D01*
X146448Y334115D01*
X212500Y270998D02*
Y266000D01*
Y267666D01*
X215832Y270998D01*
X213333Y268499D01*
X215832Y266000D01*
X220831Y270998D02*
X217498D01*
Y266000D01*
X220831D01*
X217498Y268499D02*
X219164D01*
X222497Y270998D02*
Y270165D01*
X224163Y268499D01*
X225829Y270165D01*
Y270998D01*
X224163Y268499D02*
Y266000D01*
X227495D02*
X229161D01*
X228328D01*
Y270998D01*
X227495Y270165D01*
X172332Y268498D02*
X169000D01*
Y265999D01*
X170666Y266832D01*
X171499D01*
X172332Y265999D01*
Y264333D01*
X171499Y263500D01*
X169833D01*
X169000Y264333D01*
X173998Y268498D02*
Y265166D01*
X175664Y263500D01*
X177331Y265166D01*
Y268498D01*
X140500Y267665D02*
X141333Y268498D01*
X142999D01*
X143832Y267665D01*
Y266832D01*
X142999Y265999D01*
X142166D01*
X142999D01*
X143832Y265166D01*
Y264333D01*
X142999Y263500D01*
X141333D01*
X140500Y264333D01*
X145498Y268498D02*
Y265166D01*
X147164Y263500D01*
X148831Y265166D01*
Y268498D01*
X155832Y268165D02*
X154999Y268998D01*
X153333D01*
X152500Y268165D01*
Y264833D01*
X153333Y264000D01*
X154999D01*
X155832Y264833D01*
Y266499D01*
X154166D01*
X157498Y264000D02*
Y268998D01*
X160831Y264000D01*
Y268998D01*
X162497D02*
Y264000D01*
X164996D01*
X165829Y264833D01*
Y268165D01*
X164996Y268998D01*
X162497D01*
X201500Y202498D02*
Y198333D01*
X202333Y197500D01*
X203999D01*
X204832Y198333D01*
Y202498D01*
X206498Y201665D02*
X207331Y202498D01*
X208998D01*
X209831Y201665D01*
Y200832D01*
X208998Y199999D01*
X208165D01*
X208998D01*
X209831Y199166D01*
Y198333D01*
X208998Y197500D01*
X207331D01*
X206498Y198333D01*
X158832Y445498D02*
X157166D01*
X157999D01*
Y441333D01*
X157166Y440500D01*
X156333D01*
X155500Y441333D01*
X160498Y444665D02*
X161331Y445498D01*
X162998D01*
X163831Y444665D01*
Y443832D01*
X162998Y442999D01*
X162164D01*
X162998D01*
X163831Y442166D01*
Y441333D01*
X162998Y440500D01*
X161331D01*
X160498Y441333D01*
X328948Y470218D02*
Y471884D01*
Y471051D01*
X324783D01*
X323950Y471884D01*
Y472717D01*
X324783Y473550D01*
X323950Y466052D02*
X328948D01*
X326449Y468552D01*
Y465219D01*
X363832Y446998D02*
X362166D01*
X362999D01*
Y442833D01*
X362166Y442000D01*
X361333D01*
X360500Y442833D01*
X368831Y446998D02*
X365498D01*
Y444499D01*
X367164Y445332D01*
X367998D01*
X368831Y444499D01*
Y442833D01*
X367998Y442000D01*
X366331D01*
X365498Y442833D01*
X144000Y465998D02*
Y460000D01*
X146999D01*
X147999Y461000D01*
Y461999D01*
X146999Y462999D01*
X144000D01*
X146999D01*
X147999Y463999D01*
Y464998D01*
X146999Y465998D01*
X144000D01*
X153997Y464998D02*
X152997Y465998D01*
X150998D01*
X149998Y464998D01*
Y461000D01*
X150998Y460000D01*
X152997D01*
X153997Y461000D01*
Y462999D01*
X151997D01*
X155996D02*
X159995D01*
X165993Y464998D02*
X164993Y465998D01*
X162994D01*
X161994Y464998D01*
Y463999D01*
X162994Y462999D01*
X164993D01*
X165993Y461999D01*
Y461000D01*
X164993Y460000D01*
X162994D01*
X161994Y461000D01*
X171991Y465998D02*
X169992D01*
X170991D01*
Y461000D01*
X169992Y460000D01*
X168992D01*
X167992Y461000D01*
X177989Y465998D02*
X175990D01*
X176989D01*
Y461000D01*
X175990Y460000D01*
X174990D01*
X173990Y461000D01*
X179988Y465998D02*
Y460000D01*
X183987D01*
X185986Y462999D02*
X189985D01*
X191984Y464998D02*
X192984Y465998D01*
X194983D01*
X195983Y464998D01*
Y461000D01*
X194983Y460000D01*
X192984D01*
X191984Y461000D01*
Y464998D01*
X197983Y460000D02*
X199982D01*
X198982D01*
Y465998D01*
X197983Y464998D01*
X208979Y463999D02*
X210978Y460000D01*
X212978Y463999D01*
X214977Y460000D02*
X216976D01*
X215977D01*
Y465998D01*
X214977Y464998D01*
X219975Y460000D02*
Y461000D01*
X220975D01*
Y460000D01*
X219975D01*
X224974Y464998D02*
X225974Y465998D01*
X227973D01*
X228973Y464998D01*
Y461000D01*
X227973Y460000D01*
X225974D01*
X224974Y461000D01*
Y464998D01*
X384500Y153500D02*
Y191500D01*
X331000Y153500D02*
X384500D01*
X130000Y481000D02*
X384500D01*
Y406000D02*
Y481000D01*
X130000Y153500D02*
X331000D01*
X130000D02*
Y481000D01*
X384500Y191500D02*
Y406000D01*
D48*
X275590Y406490D02*
G03*
X275590Y406470I-1181J-10D01*
G01*
D49*
X264860Y410820D02*
G03*
X264860Y410810I-591J-5D01*
G01*
X173500Y173500D02*
Y189500D01*
X199500Y173500D02*
Y189500D01*
X173500Y173500D02*
X177500D01*
X195500D02*
X199500D01*
D50*
X211000Y372500D02*
G03*
X205000Y378500I-6000J0D01*
G01*
Y366500D02*
G03*
X211000Y372500I0J6000D01*
G01*
X190000D02*
G03*
X196000Y366500I6000J0D01*
G01*
Y378500D02*
G03*
X190000Y372500I0J-6000D01*
G01*
X272000Y336001D02*
X274000Y337501D01*
X276000Y336001D01*
X272000D02*
X276000D01*
X270500Y328851D02*
Y343851D01*
X274000Y328851D02*
X277500D01*
Y343851D01*
X270500D02*
X277500D01*
X270500Y328851D02*
X274000D01*
X270500Y343851D02*
Y343855D01*
X147999Y173500D02*
X149499Y171500D01*
X147999Y173500D02*
X149499Y175500D01*
Y171500D02*
Y175500D01*
X141649Y170000D02*
X156649D01*
Y173500D02*
Y177000D01*
X141649D02*
X156649D01*
X141649Y170000D02*
Y177000D01*
X156649Y170000D02*
Y173500D01*
X141645Y170000D02*
X141649D01*
X196000Y366500D02*
X205000D01*
X196000Y378500D02*
X205000D01*
X203500Y314999D02*
Y311666D01*
X204167Y311000D01*
X205499D01*
X206166Y311666D01*
Y314999D01*
X209498Y311000D02*
Y314999D01*
X207499Y312999D01*
X210164D01*
X312000Y222333D02*
Y226332D01*
X313999D01*
X314666Y225666D01*
Y224333D01*
X313999Y223666D01*
X312000D01*
X313333D02*
X314666Y222333D01*
X318665D02*
X315999D01*
X318665Y224999D01*
Y225666D01*
X317998Y226332D01*
X316665D01*
X315999Y225666D01*
X322663Y222333D02*
X319997D01*
X322663Y224999D01*
Y225666D01*
X321997Y226332D01*
X320664D01*
X319997Y225666D01*
X329000Y226833D02*
Y230832D01*
X330999D01*
X331666Y230166D01*
Y228833D01*
X330999Y228166D01*
X329000D01*
X330333D02*
X331666Y226833D01*
X335665D02*
X332999D01*
X335665Y229499D01*
Y230166D01*
X334998Y230832D01*
X333665D01*
X332999Y230166D01*
X336997Y226833D02*
X338330D01*
X337664D01*
Y230832D01*
X336997Y230166D01*
X341000Y218000D02*
Y221999D01*
X342999D01*
X343666Y221332D01*
Y219999D01*
X342999Y219333D01*
X341000D01*
X342333D02*
X343666Y218000D01*
X347664D02*
X344999D01*
X347664Y220666D01*
Y221332D01*
X346998Y221999D01*
X345665D01*
X344999Y221332D01*
X348997D02*
X349664Y221999D01*
X350997D01*
X351663Y221332D01*
Y218666D01*
X350997Y218000D01*
X349664D01*
X348997Y218666D01*
Y221332D01*
X339500Y191000D02*
Y194999D01*
X341499D01*
X342166Y194332D01*
Y192999D01*
X341499Y192333D01*
X339500D01*
X340833D02*
X342166Y191000D01*
X343499D02*
X344832D01*
X344165D01*
Y194999D01*
X343499Y194332D01*
X346831Y191666D02*
X347497Y191000D01*
X348830D01*
X349497Y191666D01*
Y194332D01*
X348830Y194999D01*
X347497D01*
X346831Y194332D01*
Y193666D01*
X347497Y192999D01*
X349497D01*
X309500Y192833D02*
Y196832D01*
X311499D01*
X312166Y196166D01*
Y194833D01*
X311499Y194166D01*
X309500D01*
X310833D02*
X312166Y192833D01*
X313499D02*
X314832D01*
X314165D01*
Y196832D01*
X313499Y196166D01*
X316831D02*
X317497Y196832D01*
X318830D01*
X319497Y196166D01*
Y195499D01*
X318830Y194833D01*
X319497Y194166D01*
Y193500D01*
X318830Y192833D01*
X317497D01*
X316831Y193500D01*
Y194166D01*
X317497Y194833D01*
X316831Y195499D01*
Y196166D01*
X317497Y194833D02*
X318830D01*
X326500Y192000D02*
Y195999D01*
X328499D01*
X329166Y195332D01*
Y193999D01*
X328499Y193333D01*
X326500D01*
X327833D02*
X329166Y192000D01*
X330499D02*
X331832D01*
X331165D01*
Y195999D01*
X330499Y195332D01*
X333831Y195999D02*
X336497D01*
Y195332D01*
X333831Y192666D01*
Y192000D01*
X326000Y172500D02*
Y176499D01*
X327999D01*
X328666Y175832D01*
Y174499D01*
X327999Y173833D01*
X326000D01*
X327333D02*
X328666Y172500D01*
X329999D02*
X331332D01*
X330665D01*
Y176499D01*
X329999Y175832D01*
X335997Y176499D02*
X334664Y175832D01*
X333331Y174499D01*
Y173167D01*
X333997Y172500D01*
X335330D01*
X335997Y173167D01*
Y173833D01*
X335330Y174499D01*
X333331D01*
X172500Y326000D02*
Y329999D01*
X174499D01*
X175166Y329332D01*
Y327999D01*
X174499Y327333D01*
X172500D01*
X173833D02*
X175166Y326000D01*
X176499D02*
X177832D01*
X177165D01*
Y329999D01*
X176499Y329332D01*
X182497Y329999D02*
X179831D01*
Y327999D01*
X181164Y328666D01*
X181830D01*
X182497Y327999D01*
Y326666D01*
X181830Y326000D01*
X180497D01*
X179831Y326666D01*
X187500Y331500D02*
Y335499D01*
X189499D01*
X190166Y334832D01*
Y333499D01*
X189499Y332833D01*
X187500D01*
X188833D02*
X190166Y331500D01*
X191499D02*
X192832D01*
X192165D01*
Y335499D01*
X191499Y334832D01*
X196830Y331500D02*
Y335499D01*
X194831Y333499D01*
X197497D01*
X177000Y296500D02*
Y300499D01*
X178999D01*
X179666Y299832D01*
Y298499D01*
X178999Y297833D01*
X177000D01*
X178333D02*
X179666Y296500D01*
X180999D02*
X182332D01*
X181665D01*
Y300499D01*
X180999Y299832D01*
X184331D02*
X184997Y300499D01*
X186330D01*
X186997Y299832D01*
Y299166D01*
X186330Y298499D01*
X185664D01*
X186330D01*
X186997Y297833D01*
Y297166D01*
X186330Y296500D01*
X184997D01*
X184331Y297166D01*
X231500Y280000D02*
Y283999D01*
X233499D01*
X234166Y283332D01*
Y281999D01*
X233499Y281333D01*
X231500D01*
X232833D02*
X234166Y280000D01*
X235499D02*
X236832D01*
X236165D01*
Y283999D01*
X235499Y283332D01*
X241497Y280000D02*
X238831D01*
X241497Y282666D01*
Y283332D01*
X240830Y283999D01*
X239497D01*
X238831Y283332D01*
X201000Y332500D02*
Y336499D01*
X202999D01*
X203666Y335832D01*
Y334499D01*
X202999Y333833D01*
X201000D01*
X202333D02*
X203666Y332500D01*
X204999D02*
X206332D01*
X205665D01*
Y336499D01*
X204999Y335832D01*
X208331Y332500D02*
X209664D01*
X208997D01*
Y336499D01*
X208331Y335832D01*
X266500Y281000D02*
Y284999D01*
X268499D01*
X269166Y284332D01*
Y282999D01*
X268499Y282333D01*
X266500D01*
X267833D02*
X269166Y281000D01*
X270499D02*
X271832D01*
X271165D01*
Y284999D01*
X270499Y284332D01*
X273831D02*
X274497Y284999D01*
X275830D01*
X276497Y284332D01*
Y281666D01*
X275830Y281000D01*
X274497D01*
X273831Y281666D01*
Y284332D01*
X269500Y288200D02*
Y292199D01*
X271499D01*
X272166Y291532D01*
Y290199D01*
X271499Y289533D01*
X269500D01*
X270833D02*
X272166Y288200D01*
X273499Y288866D02*
X274165Y288200D01*
X275498D01*
X276165Y288866D01*
Y291532D01*
X275498Y292199D01*
X274165D01*
X273499Y291532D01*
Y290866D01*
X274165Y290199D01*
X276165D01*
X269500Y296100D02*
Y300099D01*
X271499D01*
X272166Y299432D01*
Y298099D01*
X271499Y297433D01*
X269500D01*
X270833D02*
X272166Y296100D01*
X273499Y299432D02*
X274165Y300099D01*
X275498D01*
X276165Y299432D01*
Y298766D01*
X275498Y298099D01*
X276165Y297433D01*
Y296766D01*
X275498Y296100D01*
X274165D01*
X273499Y296766D01*
Y297433D01*
X274165Y298099D01*
X273499Y298766D01*
Y299432D01*
X274165Y298099D02*
X275498D01*
X269500Y304000D02*
Y307999D01*
X271499D01*
X272166Y307332D01*
Y305999D01*
X271499Y305333D01*
X269500D01*
X270833D02*
X272166Y304000D01*
X273499Y307999D02*
X276165D01*
Y307332D01*
X273499Y304666D01*
Y304000D01*
X269500Y264500D02*
Y268499D01*
X271499D01*
X272166Y267832D01*
Y266499D01*
X271499Y265833D01*
X269500D01*
X270833D02*
X272166Y264500D01*
X276165Y268499D02*
X274832Y267832D01*
X273499Y266499D01*
Y265166D01*
X274165Y264500D01*
X275498D01*
X276165Y265166D01*
Y265833D01*
X275498Y266499D01*
X273499D01*
X269500Y272400D02*
Y276399D01*
X271499D01*
X272166Y275732D01*
Y274399D01*
X271499Y273733D01*
X269500D01*
X270833D02*
X272166Y272400D01*
X276165Y276399D02*
X273499D01*
Y274399D01*
X274832Y275066D01*
X275498D01*
X276165Y274399D01*
Y273066D01*
X275498Y272400D01*
X274165D01*
X273499Y273066D01*
X162500Y165000D02*
Y168999D01*
X164499D01*
X165166Y168332D01*
Y166999D01*
X164499Y166333D01*
X162500D01*
X163833D02*
X165166Y165000D01*
X168498D02*
Y168999D01*
X166499Y166999D01*
X169165D01*
X244500Y440500D02*
X240501D01*
Y442499D01*
X241168Y443166D01*
X242501D01*
X243167Y442499D01*
Y440500D01*
Y441833D02*
X244500Y443166D01*
Y447164D02*
Y444499D01*
X241834Y447164D01*
X241168D01*
X240501Y446498D01*
Y445165D01*
X241168Y444499D01*
X189500Y237000D02*
Y240999D01*
X191499D01*
X192166Y240332D01*
Y238999D01*
X191499Y238333D01*
X189500D01*
X190833D02*
X192166Y237000D01*
X193499D02*
X194832D01*
X194165D01*
Y240999D01*
X193499Y240332D01*
X264000Y326499D02*
Y323000D01*
X266333D01*
X269831Y326499D02*
X267499D01*
Y323000D01*
X269831D01*
X267499Y324749D02*
X268665D01*
X270998Y326499D02*
Y323000D01*
X272747D01*
X273330Y323583D01*
Y325916D01*
X272747Y326499D01*
X270998D01*
X274497Y323000D02*
X275663D01*
X275080D01*
Y326499D01*
X274497Y325916D01*
X314666Y240166D02*
X313999Y240832D01*
X312666D01*
X312000Y240166D01*
Y237500D01*
X312666Y236833D01*
X313999D01*
X314666Y237500D01*
X318665Y236833D02*
X315999D01*
X318665Y239499D01*
Y240166D01*
X317998Y240832D01*
X316665D01*
X315999Y240166D01*
X322663Y240832D02*
X319997D01*
Y238833D01*
X321330Y239499D01*
X321997D01*
X322663Y238833D01*
Y237500D01*
X321997Y236833D01*
X320664D01*
X319997Y237500D01*
X327166Y215832D02*
X326499Y216499D01*
X325166D01*
X324500Y215832D01*
Y213166D01*
X325166Y212500D01*
X326499D01*
X327166Y213166D01*
X331165Y212500D02*
X328499D01*
X331165Y215166D01*
Y215832D01*
X330498Y216499D01*
X329165D01*
X328499Y215832D01*
X334497Y212500D02*
Y216499D01*
X332497Y214499D01*
X335163D01*
X361832Y192334D02*
X362499Y193001D01*
Y194334D01*
X361832Y195000D01*
X359166D01*
X358500Y194334D01*
Y193001D01*
X359166Y192334D01*
X358500Y188336D02*
Y191001D01*
X361166Y188336D01*
X361832D01*
X362499Y189002D01*
Y190335D01*
X361832Y191001D01*
Y187003D02*
X362499Y186336D01*
Y185003D01*
X361832Y184337D01*
X361166D01*
X360499Y185003D01*
Y185670D01*
Y185003D01*
X359833Y184337D01*
X359166D01*
X358500Y185003D01*
Y186336D01*
X359166Y187003D01*
X314666Y210166D02*
X313999Y210832D01*
X312666D01*
X312000Y210166D01*
Y207500D01*
X312666Y206833D01*
X313999D01*
X314666Y207500D01*
X318665Y206833D02*
X315999D01*
X318665Y209499D01*
Y210166D01*
X317998Y210832D01*
X316665D01*
X315999Y210166D01*
X322663Y206833D02*
X319997D01*
X322663Y209499D01*
Y210166D01*
X321997Y210832D01*
X320664D01*
X319997Y210166D01*
X297166Y172832D02*
X296499Y173499D01*
X295166D01*
X294500Y172832D01*
Y170167D01*
X295166Y169500D01*
X296499D01*
X297166Y170167D01*
X301165Y169500D02*
X298499D01*
X301165Y172166D01*
Y172832D01*
X300498Y173499D01*
X299165D01*
X298499Y172832D01*
X302497Y169500D02*
X303830D01*
X303164D01*
Y173499D01*
X302497Y172832D01*
X248166Y245166D02*
X247499Y245832D01*
X246166D01*
X245500Y245166D01*
Y242500D01*
X246166Y241833D01*
X247499D01*
X248166Y242500D01*
X252165Y241833D02*
X249499D01*
X252165Y244499D01*
Y245166D01*
X251498Y245832D01*
X250165D01*
X249499Y245166D01*
X253497D02*
X254164Y245832D01*
X255497D01*
X256163Y245166D01*
Y242500D01*
X255497Y241833D01*
X254164D01*
X253497Y242500D01*
Y245166D01*
X248666Y231666D02*
X247999Y232332D01*
X246666D01*
X246000Y231666D01*
Y229000D01*
X246666Y228333D01*
X247999D01*
X248666Y229000D01*
X249999Y228333D02*
X251332D01*
X250665D01*
Y232332D01*
X249999Y231666D01*
X253331Y229000D02*
X253997Y228333D01*
X255330D01*
X255997Y229000D01*
Y231666D01*
X255330Y232332D01*
X253997D01*
X253331Y231666D01*
Y230999D01*
X253997Y230333D01*
X255997D01*
X301666Y362332D02*
X300999Y362999D01*
X299666D01*
X299000Y362332D01*
Y359666D01*
X299666Y359000D01*
X300999D01*
X301666Y359666D01*
X302999Y359000D02*
X304332D01*
X303665D01*
Y362999D01*
X302999Y362332D01*
X306331D02*
X306997Y362999D01*
X308330D01*
X308997Y362332D01*
Y361666D01*
X308330Y360999D01*
X308997Y360333D01*
Y359666D01*
X308330Y359000D01*
X306997D01*
X306331Y359666D01*
Y360333D01*
X306997Y360999D01*
X306331Y361666D01*
Y362332D01*
X306997Y360999D02*
X308330D01*
X225166Y335332D02*
X224499Y335999D01*
X223166D01*
X222500Y335332D01*
Y332666D01*
X223166Y332000D01*
X224499D01*
X225166Y332666D01*
X226499Y332000D02*
X227832D01*
X227165D01*
Y335999D01*
X226499Y335332D01*
X229831Y335999D02*
X232497D01*
Y335332D01*
X229831Y332666D01*
Y332000D01*
X213666Y335832D02*
X212999Y336499D01*
X211666D01*
X211000Y335832D01*
Y333166D01*
X211666Y332500D01*
X212999D01*
X213666Y333166D01*
X214999Y332500D02*
X216332D01*
X215665D01*
Y336499D01*
X214999Y335832D01*
X220997Y336499D02*
X219664Y335832D01*
X218331Y334499D01*
Y333166D01*
X218997Y332500D01*
X220330D01*
X220997Y333166D01*
Y333833D01*
X220330Y334499D01*
X218331D01*
X195166Y282832D02*
X194499Y283499D01*
X193166D01*
X192500Y282832D01*
Y280166D01*
X193166Y279500D01*
X194499D01*
X195166Y280166D01*
X196499Y279500D02*
X197832D01*
X197165D01*
Y283499D01*
X196499Y282832D01*
X202497Y283499D02*
X199831D01*
Y281499D01*
X201164Y282166D01*
X201830D01*
X202497Y281499D01*
Y280166D01*
X201830Y279500D01*
X200497D01*
X199831Y280166D01*
X231166Y387332D02*
X230499Y387999D01*
X229166D01*
X228500Y387332D01*
Y384666D01*
X229166Y384000D01*
X230499D01*
X231166Y384666D01*
X232499Y384000D02*
X233832D01*
X233165D01*
Y387999D01*
X232499Y387332D01*
X237830Y384000D02*
Y387999D01*
X235831Y385999D01*
X238497D01*
X241168Y423166D02*
X240501Y422499D01*
Y421166D01*
X241168Y420500D01*
X243834D01*
X244500Y421166D01*
Y422499D01*
X243834Y423166D01*
X244500Y424499D02*
Y425832D01*
Y425165D01*
X240501D01*
X241168Y424499D01*
Y427831D02*
X240501Y428497D01*
Y429830D01*
X241168Y430497D01*
X241834D01*
X242501Y429830D01*
Y429164D01*
Y429830D01*
X243167Y430497D01*
X243834D01*
X244500Y429830D01*
Y428497D01*
X243834Y427831D01*
X320166Y430332D02*
X319499Y430999D01*
X318166D01*
X317500Y430332D01*
Y427666D01*
X318166Y427000D01*
X319499D01*
X320166Y427666D01*
X321499Y427000D02*
X322832D01*
X322165D01*
Y430999D01*
X321499Y430332D01*
X327497Y427000D02*
X324831D01*
X327497Y429666D01*
Y430332D01*
X326830Y430999D01*
X325497D01*
X324831Y430332D01*
X319166Y361832D02*
X318499Y362499D01*
X317166D01*
X316500Y361832D01*
Y359166D01*
X317166Y358500D01*
X318499D01*
X319166Y359166D01*
X320499Y358500D02*
X321832D01*
X321165D01*
Y362499D01*
X320499Y361832D01*
X323831Y358500D02*
X325164D01*
X324497D01*
Y362499D01*
X323831Y361832D01*
X267166Y257832D02*
X266499Y258499D01*
X265166D01*
X264500Y257832D01*
Y255166D01*
X265166Y254500D01*
X266499D01*
X267166Y255166D01*
X268499Y254500D02*
X269832D01*
X269165D01*
Y258499D01*
X268499Y257832D01*
X271831D02*
X272497Y258499D01*
X273830D01*
X274497Y257832D01*
Y255166D01*
X273830Y254500D01*
X272497D01*
X271831Y255166D01*
Y257832D01*
X144166Y199832D02*
X143499Y200499D01*
X142166D01*
X141500Y199832D01*
Y197167D01*
X142166Y196500D01*
X143499D01*
X144166Y197167D01*
X145499D02*
X146165Y196500D01*
X147498D01*
X148164Y197167D01*
Y199832D01*
X147498Y200499D01*
X146165D01*
X145499Y199832D01*
Y199166D01*
X146165Y198499D01*
X148164D01*
X158666Y200332D02*
X157999Y200999D01*
X156667D01*
X156000Y200332D01*
Y197667D01*
X156667Y197000D01*
X157999D01*
X158666Y197667D01*
X159999Y200999D02*
X162664D01*
Y200332D01*
X159999Y197667D01*
Y197000D01*
X190666Y259832D02*
X189999Y260499D01*
X188666D01*
X188000Y259832D01*
Y257166D01*
X188666Y256500D01*
X189999D01*
X190666Y257166D01*
X194665Y260499D02*
X191999D01*
Y258499D01*
X193332Y259166D01*
X193998D01*
X194665Y258499D01*
Y257166D01*
X193998Y256500D01*
X192665D01*
X191999Y257166D01*
X192668Y427666D02*
X192001Y426999D01*
Y425666D01*
X192668Y425000D01*
X195334D01*
X196000Y425666D01*
Y426999D01*
X195334Y427666D01*
X196000Y430998D02*
X192001D01*
X194001Y428999D01*
Y431665D01*
X192168Y446666D02*
X191501Y445999D01*
Y444666D01*
X192168Y444000D01*
X194834D01*
X195500Y444666D01*
Y445999D01*
X194834Y446666D01*
X192168Y447999D02*
X191501Y448665D01*
Y449998D01*
X192168Y450665D01*
X192834D01*
X193501Y449998D01*
Y449332D01*
Y449998D01*
X194167Y450665D01*
X194834D01*
X195500Y449998D01*
Y448665D01*
X194834Y447999D01*
X221666Y371332D02*
X220999Y371999D01*
X219666D01*
X219000Y371332D01*
Y368666D01*
X219666Y368000D01*
X220999D01*
X221666Y368666D01*
X225664Y368000D02*
X222999D01*
X225664Y370666D01*
Y371332D01*
X224998Y371999D01*
X223665D01*
X222999Y371332D01*
X222166Y392332D02*
X221499Y392999D01*
X220166D01*
X219500Y392332D01*
Y389666D01*
X220166Y389000D01*
X221499D01*
X222166Y389666D01*
X223499Y389000D02*
X224832D01*
X224165D01*
Y392999D01*
X223499Y392332D01*
X358500Y216000D02*
Y219332D01*
X360166Y220998D01*
X361832Y219332D01*
Y216000D01*
Y218499D01*
X358500D01*
X363498Y216000D02*
Y220998D01*
X365998D01*
X366831Y220165D01*
Y218499D01*
X365998Y217666D01*
X363498D01*
X365164D02*
X366831Y216000D01*
X368497D02*
X370163D01*
X369330D01*
Y220998D01*
X368497Y220165D01*
X298166Y186666D02*
X297499Y187332D01*
X296166D01*
X295500Y186666D01*
Y184000D01*
X296166Y183333D01*
X297499D01*
X298166Y184000D01*
X299499Y187332D02*
Y183333D01*
Y185333D01*
X302165D01*
Y187332D01*
Y183333D01*
X303497Y186666D02*
X304164Y187332D01*
X305497D01*
X306163Y186666D01*
Y184000D01*
X305497Y183333D01*
X304164D01*
X303497Y184000D01*
Y186666D01*
X298166Y199666D02*
X297499Y200332D01*
X296166D01*
X295500Y199666D01*
Y197000D01*
X296166Y196333D01*
X297499D01*
X298166Y197000D01*
X299499Y200332D02*
Y196333D01*
Y198333D01*
X302165D01*
Y200332D01*
Y196333D01*
X303497D02*
X304830D01*
X304164D01*
Y200332D01*
X303497Y199666D01*
X298166Y213166D02*
X297499Y213832D01*
X296166D01*
X295500Y213166D01*
Y210500D01*
X296166Y209833D01*
X297499D01*
X298166Y210500D01*
X299499Y213832D02*
Y209833D01*
Y211833D01*
X302165D01*
Y213832D01*
Y209833D01*
X306163D02*
X303497D01*
X306163Y212499D01*
Y213166D01*
X305497Y213832D01*
X304164D01*
X303497Y213166D01*
X298166Y226666D02*
X297499Y227332D01*
X296166D01*
X295500Y226666D01*
Y224000D01*
X296166Y223333D01*
X297499D01*
X298166Y224000D01*
X299499Y227332D02*
Y223333D01*
Y225333D01*
X302165D01*
Y227332D01*
Y223333D01*
X303497Y226666D02*
X304164Y227332D01*
X305497D01*
X306163Y226666D01*
Y225999D01*
X305497Y225333D01*
X304830D01*
X305497D01*
X306163Y224666D01*
Y224000D01*
X305497Y223333D01*
X304164D01*
X303497Y224000D01*
D51*
X224952Y152931D02*
X226133Y154112D01*
X256054Y152931D02*
X256448D01*
X256448Y152931D01*
Y152931D01*
X255267Y154112D02*
X256448Y152931D01*
X224952Y152931D02*
X256054D01*
Y152931D01*
X234401Y156081D02*
Y164742D01*
X231251Y156081D02*
Y164742D01*
X226133Y175766D02*
X233613D01*
X226133Y154112D02*
Y175766D01*
Y154112D02*
X255267D01*
X226133D02*
Y175766D01*
X255267Y154112D02*
Y175766D01*
X231251Y164742D02*
X234401D01*
X231251Y156081D02*
X234401D01*
X246999D02*
X250149D01*
X246999Y164742D02*
X250149D01*
Y156081D02*
Y164742D01*
X246999Y156081D02*
Y164742D01*
X247787Y175766D02*
X255267D01*
D52*
X200204Y306297D02*
X201775D01*
X212794Y304728D02*
Y306297D01*
X211225D02*
X212794D01*
Y293698D02*
Y295278D01*
X211225Y293698D02*
X212794D01*
X200204D02*
Y295278D01*
Y293698D02*
X201775D01*
D53*
X313747Y313670D02*
X313751Y301469D01*
X319656Y323516D02*
X348003D01*
X320444Y257768D02*
X348003D01*
X359813Y323516D02*
X375561D01*
Y257768D02*
Y323516D01*
X359813Y257768D02*
X375561D01*
Y323516D02*
X384223D01*
Y257768D02*
Y323516D01*
X375561Y257768D02*
X384223D01*
D54*
X243000Y197333D02*
Y214333D01*
X255598D01*
Y197333D02*
Y214333D01*
X243000Y197333D02*
X255598D01*
D55*
X270768Y410232D02*
X304232D01*
X270768Y376768D02*
Y410232D01*
Y376768D02*
X304232D01*
Y410232D01*
D56*
X133333Y282416D02*
X132749Y282999D01*
X131583D01*
X131000Y282416D01*
Y280083D01*
X131583Y279500D01*
X132749D01*
X133333Y280083D01*
Y281249D01*
X132166D01*
X134499Y279500D02*
Y282999D01*
X136831Y279500D01*
Y282999D01*
X137998D02*
Y279500D01*
X139747D01*
X140330Y280083D01*
Y282416D01*
X139747Y282999D01*
X137998D01*
X133333Y323916D02*
X132749Y324499D01*
X131583D01*
X131000Y323916D01*
Y321583D01*
X131583Y321000D01*
X132749D01*
X133333Y321583D01*
Y322749D01*
X132166D01*
X134499Y321000D02*
Y324499D01*
X136831Y321000D01*
Y324499D01*
X137998D02*
Y321000D01*
X139747D01*
X140330Y321583D01*
Y323916D01*
X139747Y324499D01*
X137998D01*
X166833Y305916D02*
X166249Y306499D01*
X165083D01*
X164500Y305916D01*
Y303583D01*
X165083Y303000D01*
X166249D01*
X166833Y303583D01*
Y304749D01*
X165666D01*
X167999Y303000D02*
Y306499D01*
X170331Y303000D01*
Y306499D01*
X171498D02*
Y303000D01*
X173247D01*
X173830Y303583D01*
Y305916D01*
X173247Y306499D01*
X171498D01*
X165000Y296981D02*
X167333D01*
X166166D01*
Y293482D01*
X170831Y296397D02*
X170248Y296981D01*
X169082D01*
X168499Y296397D01*
Y294065D01*
X169082Y293482D01*
X170248D01*
X170831Y294065D01*
X171998Y296981D02*
Y293482D01*
Y294648D01*
X174330Y296981D01*
X172581Y295231D01*
X174330Y293482D01*
X175497Y292899D02*
X177829D01*
X167333Y290416D02*
X166749Y290999D01*
X165583D01*
X165000Y290416D01*
Y289833D01*
X165583Y289249D01*
X166749D01*
X167333Y288666D01*
Y288083D01*
X166749Y287500D01*
X165583D01*
X165000Y288083D01*
X168499Y290999D02*
Y287500D01*
X169665Y288666D01*
X170831Y287500D01*
Y290999D01*
X174330Y290416D02*
X173747Y290999D01*
X172581D01*
X171998Y290416D01*
Y288083D01*
X172581Y287500D01*
X173747D01*
X174330Y288083D01*
X175497Y290999D02*
Y287500D01*
X177829D01*
X178996Y290999D02*
Y287500D01*
Y288666D01*
X181328Y290999D01*
X179579Y289249D01*
X181328Y287500D01*
X197000Y386999D02*
X199666Y383000D01*
Y386999D02*
X197000Y383000D01*
X200999D02*
X202332D01*
X201665D01*
Y386999D01*
X200999Y386332D01*
X132000Y317999D02*
Y315083D01*
X132583Y314500D01*
X133749D01*
X134333Y315083D01*
Y317999D01*
X137831Y314500D02*
X135499D01*
X137831Y316833D01*
Y317416D01*
X137248Y317999D01*
X136082D01*
X135499Y317416D01*
X138998Y313917D02*
X141330D01*
X142497Y317999D02*
X144829D01*
X143663D01*
Y314500D01*
X145995Y316833D02*
X148328Y314500D01*
X147162Y315666D01*
X148328Y316833D01*
X145995Y314500D01*
X132000Y308499D02*
Y305583D01*
X132583Y305000D01*
X133749D01*
X134333Y305583D01*
Y308499D01*
X137831Y305000D02*
X135499D01*
X137831Y307333D01*
Y307916D01*
X137248Y308499D01*
X136082D01*
X135499Y307916D01*
X138998Y304417D02*
X141330D01*
X142497Y305000D02*
Y308499D01*
X144246D01*
X144829Y307916D01*
Y306749D01*
X144246Y306166D01*
X142497D01*
X143663D02*
X144829Y305000D01*
X145995Y307333D02*
X148328Y305000D01*
X147162Y306166D01*
X148328Y307333D01*
X145995Y305000D01*
X131000Y292916D02*
X131583Y293499D01*
X132749D01*
X133333Y292916D01*
Y292333D01*
X132749Y291749D01*
X132166D01*
X132749D01*
X133333Y291166D01*
Y290583D01*
X132749Y290000D01*
X131583D01*
X131000Y290583D01*
X134499Y290000D02*
Y290583D01*
X135082D01*
Y290000D01*
X134499D01*
X137415Y292916D02*
X137998Y293499D01*
X139164D01*
X139747Y292916D01*
Y292333D01*
X139164Y291749D01*
X138581D01*
X139164D01*
X139747Y291166D01*
Y290583D01*
X139164Y290000D01*
X137998D01*
X137415Y290583D01*
X165000Y279000D02*
Y282499D01*
X167333Y279000D01*
Y282499D01*
X168499Y279000D02*
Y282499D01*
X170248D01*
X170831Y281916D01*
Y280749D01*
X170248Y280166D01*
X168499D01*
X169665D02*
X170831Y279000D01*
X174330Y281916D02*
X173747Y282499D01*
X172581D01*
X171998Y281916D01*
Y281333D01*
X172581Y280749D01*
X173747D01*
X174330Y280166D01*
Y279583D01*
X173747Y279000D01*
X172581D01*
X171998Y279583D01*
X175497Y282499D02*
X177829D01*
X176663D01*
Y279000D01*
X164500Y313999D02*
X166833D01*
X165666D01*
Y310500D01*
X167999D02*
Y313999D01*
X169165Y312833D01*
X170331Y313999D01*
Y310500D01*
X173830Y313416D02*
X173247Y313999D01*
X172081D01*
X171498Y313416D01*
Y312833D01*
X172081Y312249D01*
X173247D01*
X173830Y311666D01*
Y311083D01*
X173247Y310500D01*
X172081D01*
X171498Y311083D01*
X174997Y309917D02*
X177329D01*
X180828Y313416D02*
X180245Y313999D01*
X179079D01*
X178496Y313416D01*
Y312833D01*
X179079Y312249D01*
X180245D01*
X180828Y311666D01*
Y311083D01*
X180245Y310500D01*
X179079D01*
X178496Y311083D01*
X181994Y313999D02*
Y310500D01*
X183161Y311666D01*
X184327Y310500D01*
Y313999D01*
X185493D02*
Y310500D01*
X187243D01*
X187826Y311083D01*
Y313416D01*
X187243Y313999D01*
X185493D01*
X188992D02*
X190158D01*
X189575D01*
Y310500D01*
X188992D01*
X190158D01*
X193657Y313999D02*
X192491D01*
X191908Y313416D01*
Y311083D01*
X192491Y310500D01*
X193657D01*
X194240Y311083D01*
Y313416D01*
X193657Y313999D01*
X167916Y326500D02*
X168499Y325917D01*
Y324751D01*
X167916Y324167D01*
X167333D01*
X166749Y324751D01*
Y325334D01*
Y324751D01*
X166166Y324167D01*
X165583D01*
X165000Y324751D01*
Y325917D01*
X165583Y326500D01*
X165000Y323001D02*
X165583D01*
Y322418D01*
X165000D01*
Y323001D01*
X167916Y320085D02*
X168499Y319502D01*
Y318336D01*
X167916Y317753D01*
X167333D01*
X166749Y318336D01*
Y318919D01*
Y318336D01*
X166166Y317753D01*
X165583D01*
X165000Y318336D01*
Y319502D01*
X165583Y320085D01*
X141500Y428500D02*
Y431999D01*
X143249D01*
X143833Y431416D01*
Y430249D01*
X143249Y429666D01*
X141500D01*
X147331Y431416D02*
X146748Y431999D01*
X145582D01*
X144999Y431416D01*
Y429083D01*
X145582Y428500D01*
X146748D01*
X147331Y429083D01*
X148498Y431416D02*
X149081Y431999D01*
X150247D01*
X150830Y431416D01*
Y429083D01*
X150247Y428500D01*
X149081D01*
X148498Y429083D01*
Y431416D01*
X141500Y418000D02*
Y421499D01*
X143249D01*
X143833Y420916D01*
Y419749D01*
X143249Y419166D01*
X141500D01*
X147331Y420916D02*
X146748Y421499D01*
X145582D01*
X144999Y420916D01*
Y418583D01*
X145582Y418000D01*
X146748D01*
X147331Y418583D01*
X150247Y418000D02*
Y421499D01*
X148498Y419749D01*
X150830D01*
X141500Y408500D02*
Y411999D01*
X143249D01*
X143833Y411416D01*
Y410249D01*
X143249Y409666D01*
X141500D01*
X147331Y411416D02*
X146748Y411999D01*
X145582D01*
X144999Y411416D01*
Y409083D01*
X145582Y408500D01*
X146748D01*
X147331Y409083D01*
X150830Y411999D02*
X148498D01*
Y410249D01*
X149664Y410833D01*
X150247D01*
X150830Y410249D01*
Y409083D01*
X150247Y408500D01*
X149081D01*
X148498Y409083D01*
X141500Y398500D02*
Y401999D01*
X143249D01*
X143833Y401416D01*
Y400249D01*
X143249Y399666D01*
X141500D01*
X147331Y401416D02*
X146748Y401999D01*
X145582D01*
X144999Y401416D01*
Y399083D01*
X145582Y398500D01*
X146748D01*
X147331Y399083D01*
X148498Y398500D02*
X149664D01*
X149081D01*
Y401999D01*
X148498Y401416D01*
X151414D02*
X151997Y401999D01*
X153163D01*
X153746Y401416D01*
Y400833D01*
X153163Y400249D01*
X152580D01*
X153163D01*
X153746Y399666D01*
Y399083D01*
X153163Y398500D01*
X151997D01*
X151414Y399083D01*
X141500Y388500D02*
Y391999D01*
X143249D01*
X143833Y391416D01*
Y390249D01*
X143249Y389666D01*
X141500D01*
X144999Y388500D02*
Y390833D01*
X146165Y391999D01*
X147331Y390833D01*
Y388500D01*
Y390249D01*
X144999D01*
X148498Y388500D02*
X149664D01*
X149081D01*
Y391999D01*
X148498Y391416D01*
X141500Y379000D02*
Y382499D01*
X143249D01*
X143833Y381916D01*
Y380749D01*
X143249Y380166D01*
X141500D01*
X144999Y382499D02*
Y379000D01*
X146748D01*
X147331Y379583D01*
Y380166D01*
X146748Y380749D01*
X144999D01*
X146748D01*
X147331Y381333D01*
Y381916D01*
X146748Y382499D01*
X144999D01*
X148498Y379583D02*
X149081Y379000D01*
X150247D01*
X150830Y379583D01*
Y381916D01*
X150247Y382499D01*
X149081D01*
X148498Y381916D01*
Y381333D01*
X149081Y380749D01*
X150830D01*
X141500Y369000D02*
Y372499D01*
X143249D01*
X143833Y371916D01*
Y370749D01*
X143249Y370166D01*
X141500D01*
X144999Y372499D02*
Y369000D01*
X146748D01*
X147331Y369583D01*
Y370166D01*
X146748Y370749D01*
X144999D01*
X146748D01*
X147331Y371333D01*
Y371916D01*
X146748Y372499D01*
X144999D01*
X148498Y371916D02*
X149081Y372499D01*
X150247D01*
X150830Y371916D01*
Y371333D01*
X150247Y370749D01*
X150830Y370166D01*
Y369583D01*
X150247Y369000D01*
X149081D01*
X148498Y369583D01*
Y370166D01*
X149081Y370749D01*
X148498Y371333D01*
Y371916D01*
X149081Y370749D02*
X150247D01*
X141500Y358500D02*
Y361999D01*
X143249D01*
X143833Y361416D01*
Y360249D01*
X143249Y359666D01*
X141500D01*
X144999Y361999D02*
Y358500D01*
X146748D01*
X147331Y359083D01*
Y359666D01*
X146748Y360249D01*
X144999D01*
X146748D01*
X147331Y360833D01*
Y361416D01*
X146748Y361999D01*
X144999D01*
X148498D02*
X150830D01*
Y361416D01*
X148498Y359083D01*
Y358500D01*
X246500Y452500D02*
X243001D01*
Y454249D01*
X243584Y454833D01*
X244751D01*
X245334Y454249D01*
Y452500D01*
X243001Y455999D02*
X246500D01*
Y457748D01*
X245917Y458331D01*
X245334D01*
X244751Y457748D01*
Y455999D01*
Y457748D01*
X244167Y458331D01*
X243584D01*
X243001Y457748D01*
Y455999D01*
Y461830D02*
X243584Y460664D01*
X244751Y459498D01*
X245917D01*
X246500Y460081D01*
Y461247D01*
X245917Y461830D01*
X245334D01*
X244751Y461247D01*
Y459498D01*
X257000Y452500D02*
X253501D01*
Y454249D01*
X254084Y454833D01*
X255251D01*
X255834Y454249D01*
Y452500D01*
X253501Y455999D02*
X257000D01*
Y457748D01*
X256417Y458331D01*
X255834D01*
X255251Y457748D01*
Y455999D01*
Y457748D01*
X254667Y458331D01*
X254084D01*
X253501Y457748D01*
Y455999D01*
Y461830D02*
Y459498D01*
X255251D01*
X254667Y460664D01*
Y461247D01*
X255251Y461830D01*
X256417D01*
X257000Y461247D01*
Y460081D01*
X256417Y459498D01*
X267000Y452500D02*
X263501D01*
Y454249D01*
X264084Y454833D01*
X265251D01*
X265834Y454249D01*
Y452500D01*
X263501Y455999D02*
X267000D01*
Y457748D01*
X266417Y458331D01*
X265834D01*
X265251Y457748D01*
Y455999D01*
Y457748D01*
X264667Y458331D01*
X264084D01*
X263501Y457748D01*
Y455999D01*
X264084Y459498D02*
X263501Y460081D01*
Y461247D01*
X264084Y461830D01*
X264667D01*
X265251Y461247D01*
Y460664D01*
Y461247D01*
X265834Y461830D01*
X266417D01*
X267000Y461247D01*
Y460081D01*
X266417Y459498D01*
X277000Y449500D02*
X273501D01*
Y451249D01*
X274084Y451833D01*
X275251D01*
X275834Y451249D01*
Y449500D01*
X274084Y455332D02*
X273501Y454748D01*
Y453582D01*
X274084Y452999D01*
X276417D01*
X277000Y453582D01*
Y454748D01*
X276417Y455332D01*
X277000Y456498D02*
Y457664D01*
Y457081D01*
X273501D01*
X274084Y456498D01*
X277000Y461746D02*
Y459413D01*
X274667Y461746D01*
X274084D01*
X273501Y461163D01*
Y459997D01*
X274084Y459413D01*
X287500Y449500D02*
X284001D01*
Y451249D01*
X284584Y451833D01*
X285751D01*
X286334Y451249D01*
Y449500D01*
X287500Y452999D02*
X285167D01*
X284001Y454165D01*
X285167Y455332D01*
X287500D01*
X285751D01*
Y452999D01*
X287500Y456498D02*
Y457664D01*
Y457081D01*
X284001D01*
X284584Y456498D01*
X284001Y461746D02*
Y459413D01*
X285751D01*
X285167Y460580D01*
Y461163D01*
X285751Y461746D01*
X286917D01*
X287500Y461163D01*
Y459997D01*
X286917Y459413D01*
X297500Y449500D02*
X294001D01*
Y451249D01*
X294584Y451833D01*
X295751D01*
X296334Y451249D01*
Y449500D01*
X297500Y452999D02*
X295167D01*
X294001Y454165D01*
X295167Y455332D01*
X297500D01*
X295751D01*
Y452999D01*
X297500Y456498D02*
Y457664D01*
Y457081D01*
X294001D01*
X294584Y456498D01*
X297500Y461746D02*
Y459413D01*
X295167Y461746D01*
X294584D01*
X294001Y461163D01*
Y459997D01*
X294584Y459413D01*
X307500Y449500D02*
X304001D01*
Y451249D01*
X304584Y451833D01*
X305751D01*
X306334Y451249D01*
Y449500D01*
X307500Y452999D02*
X305167D01*
X304001Y454165D01*
X305167Y455332D01*
X307500D01*
X305751D01*
Y452999D01*
X307500Y456498D02*
Y457664D01*
Y457081D01*
X304001D01*
X304584Y456498D01*
X307500Y459413D02*
Y460580D01*
Y459997D01*
X304001D01*
X304584Y459413D01*
X317500Y452500D02*
X314001D01*
Y454249D01*
X314584Y454833D01*
X315751D01*
X316334Y454249D01*
Y452500D01*
X317500Y455999D02*
X315167D01*
X314001Y457165D01*
X315167Y458331D01*
X317500D01*
X315751D01*
Y455999D01*
X316917Y459498D02*
X317500Y460081D01*
Y461247D01*
X316917Y461830D01*
X314584D01*
X314001Y461247D01*
Y460081D01*
X314584Y459498D01*
X315167D01*
X315751Y460081D01*
Y461830D01*
X348000Y431000D02*
Y434499D01*
X349749D01*
X350333Y433916D01*
Y432749D01*
X349749Y432166D01*
X348000D01*
X351499Y431000D02*
Y433333D01*
X352665Y434499D01*
X353831Y433333D01*
Y431000D01*
Y432749D01*
X351499D01*
X354998Y433916D02*
X355581Y434499D01*
X356747D01*
X357330Y433916D01*
Y433333D01*
X356747Y432749D01*
X357330Y432166D01*
Y431583D01*
X356747Y431000D01*
X355581D01*
X354998Y431583D01*
Y432166D01*
X355581Y432749D01*
X354998Y433333D01*
Y433916D01*
X355581Y432749D02*
X356747D01*
X348000Y421000D02*
Y424499D01*
X349749D01*
X350333Y423916D01*
Y422749D01*
X349749Y422166D01*
X348000D01*
X353831Y423916D02*
X353248Y424499D01*
X352082D01*
X351499Y423916D01*
Y421583D01*
X352082Y421000D01*
X353248D01*
X353831Y421583D01*
X354998D02*
X355581Y421000D01*
X356747D01*
X357330Y421583D01*
Y423916D01*
X356747Y424499D01*
X355581D01*
X354998Y423916D01*
Y423333D01*
X355581Y422749D01*
X357330D01*
X348000Y410500D02*
Y413999D01*
X349749D01*
X350333Y413416D01*
Y412249D01*
X349749Y411666D01*
X348000D01*
X353831Y413416D02*
X353248Y413999D01*
X352082D01*
X351499Y413416D01*
Y411083D01*
X352082Y410500D01*
X353248D01*
X353831Y411083D01*
X354998Y413999D02*
X357330D01*
Y413416D01*
X354998Y411083D01*
Y410500D01*
X348000Y400500D02*
Y403999D01*
X349749D01*
X350333Y403416D01*
Y402249D01*
X349749Y401666D01*
X348000D01*
X353831Y403416D02*
X353248Y403999D01*
X352082D01*
X351499Y403416D01*
Y401083D01*
X352082Y400500D01*
X353248D01*
X353831Y401083D01*
X357330Y403999D02*
X356164Y403416D01*
X354998Y402249D01*
Y401083D01*
X355581Y400500D01*
X356747D01*
X357330Y401083D01*
Y401666D01*
X356747Y402249D01*
X354998D01*
X345000Y390500D02*
Y393999D01*
X346749D01*
X347333Y393416D01*
Y392249D01*
X346749Y391666D01*
X345000D01*
X348499Y393999D02*
Y390500D01*
X350248D01*
X350831Y391083D01*
Y391666D01*
X350248Y392249D01*
X348499D01*
X350248D01*
X350831Y392833D01*
Y393416D01*
X350248Y393999D01*
X348499D01*
X351998Y390500D02*
X353164D01*
X352581D01*
Y393999D01*
X351998Y393416D01*
X357246Y393999D02*
X354913D01*
Y392249D01*
X356080Y392833D01*
X356663D01*
X357246Y392249D01*
Y391083D01*
X356663Y390500D01*
X355497D01*
X354913Y391083D01*
X345000Y380500D02*
Y383999D01*
X346749D01*
X347333Y383416D01*
Y382249D01*
X346749Y381666D01*
X345000D01*
X348499Y383999D02*
Y380500D01*
X350248D01*
X350831Y381083D01*
Y381666D01*
X350248Y382249D01*
X348499D01*
X350248D01*
X350831Y382833D01*
Y383416D01*
X350248Y383999D01*
X348499D01*
X351998Y380500D02*
X353164D01*
X352581D01*
Y383999D01*
X351998Y383416D01*
X356663Y380500D02*
Y383999D01*
X354913Y382249D01*
X357246D01*
X345000Y371000D02*
Y374499D01*
X346749D01*
X347333Y373916D01*
Y372749D01*
X346749Y372166D01*
X345000D01*
X348499Y374499D02*
Y371000D01*
X350248D01*
X350831Y371583D01*
Y372166D01*
X350248Y372749D01*
X348499D01*
X350248D01*
X350831Y373333D01*
Y373916D01*
X350248Y374499D01*
X348499D01*
X351998Y371000D02*
X353164D01*
X352581D01*
Y374499D01*
X351998Y373916D01*
X354913D02*
X355497Y374499D01*
X356663D01*
X357246Y373916D01*
Y373333D01*
X356663Y372749D01*
X356080D01*
X356663D01*
X357246Y372166D01*
Y371583D01*
X356663Y371000D01*
X355497D01*
X354913Y371583D01*
X345000Y361000D02*
Y364499D01*
X346749D01*
X347333Y363916D01*
Y362749D01*
X346749Y362166D01*
X345000D01*
X348499Y364499D02*
Y361000D01*
X350248D01*
X350831Y361583D01*
Y362166D01*
X350248Y362749D01*
X348499D01*
X350248D01*
X350831Y363333D01*
Y363916D01*
X350248Y364499D01*
X348499D01*
X351998Y361000D02*
X353164D01*
X352581D01*
Y364499D01*
X351998Y363916D01*
X357246Y361000D02*
X354913D01*
X357246Y363333D01*
Y363916D01*
X356663Y364499D01*
X355497D01*
X354913Y363916D01*
D57*
X141500Y167499D02*
Y164000D01*
X143833D01*
X147331Y167499D02*
X144999D01*
Y164000D01*
X147331D01*
X144999Y165749D02*
X146165D01*
X148498Y167499D02*
Y164000D01*
X150247D01*
X150830Y164583D01*
Y166916D01*
X150247Y167499D01*
X148498D01*
X154329Y164000D02*
X151997D01*
X154329Y166333D01*
Y166916D01*
X153746Y167499D01*
X152580D01*
X151997Y166916D01*
M02*
